{"glyphs":{"0":{"ha":494,"x_min":72,"x_max":508,"o":"m 169 -6 q 99 35 126 -6 q 72 143 72 75 q 115 313 72 222 q 235 479 158 404 q 428 586 344 586 q 508 474 508 586 q 479 329 508 408 q 390 167 450 250 q 272 39 331 83 q 169 -6 214 -6 m 133 83 q 146 33 133 51 q 176 14 158 14 q 363 185 256 14 q 447 365 415 274 q 475 500 475 447 q 426 568 475 568 q 261 429 354 568 q 166 239 199 336 q 133 83 133 142 z "},"1":{"ha":379,"x_min":58,"x_max":449,"o":"m 65 0 l 381 503 q 64 242 99 242 l 58 250 q 106 292 58 256 q 242 405 181 349 q 385 539 304 461 q 439 586 433 586 l 449 578 q 435 538 449 565 l 165 13 l 65 0 z "},"2":{"ha":494,"x_min":-7,"x_max":499,"o":"m 67 92 q 175 144 128 144 q 247 90 235 144 q 256 49 251 69 q 276 36 261 36 q 371 108 307 36 q 396 140 378 117 q 419 164 414 164 q 424 154 424 157 q 386 99 424 140 q 331 40 349 57 q 236 -3 282 -3 q 171 39 185 -3 q 167 78 168 50 q 142 107 165 107 q 101 94 124 107 q 53 56 78 81 q 19 13 40 43 q 1 -6 7 -6 q -7 4 -7 -6 q 32 83 -7 33 q 168 208 81 146 q 264 272 232 251 q 357 348 322 313 q 413 427 392 383 q 433 496 433 471 q 412 548 433 528 q 354 568 390 568 q 224 516 282 568 q 167 403 167 464 q 178 369 167 383 q 204 356 189 356 q 335 461 275 356 q 353 504 336 464 q 368 522 360 522 q 376 504 376 522 q 328 384 376 443 q 215 325 279 325 q 144 399 144 325 q 213 528 144 468 q 372 588 281 588 q 465 555 431 588 q 499 468 499 522 q 454 356 499 410 q 319 257 410 301 q 172 185 246 221 q 67 92 100 144 z "},"3":{"ha":494,"x_min":29,"x_max":508,"o":"m 296 304 l 306 304 q 381 279 356 304 q 406 207 406 254 q 342 74 406 135 q 251 16 303 38 q 154 -6 200 -6 q 63 24 96 -6 q 29 101 29 53 q 43 153 29 133 q 82 172 57 172 q 121 129 121 172 q 92 88 121 101 q 64 68 64 75 q 85 38 64 51 q 138 24 106 24 q 288 117 215 24 q 328 182 314 150 q 343 235 343 214 q 296 285 343 285 q 243 270 272 285 q 208 256 214 256 q 199 265 199 256 q 231 292 199 276 q 311 335 286 319 q 449 507 449 426 q 375 563 449 563 q 267 524 318 563 q 215 440 215 485 q 253 401 215 401 q 303 420 275 401 q 356 474 332 439 q 373 508 368 492 q 383 525 378 525 q 390 515 390 519 q 349 414 390 457 q 257 371 307 371 q 196 431 196 371 q 258 536 196 486 q 397 586 319 586 q 478 560 447 586 q 508 492 508 533 q 296 304 508 378 z "},"4":{"ha":483,"x_min":25,"x_max":463,"o":"m 149 -6 l 228 114 q 175 121 213 117 q 125 125 138 125 q 76 117 96 125 q 38 101 57 110 q 28 104 31 101 q 25 110 25 107 q 144 288 72 174 q 299 565 225 414 l 406 575 q 226 324 319 444 q 79 143 167 246 q 101 148 88 144 q 124 151 114 151 q 163 150 153 151 q 244 136 172 149 q 454 424 438 424 q 463 415 463 424 q 403 301 463 411 q 319 136 356 215 q 375 154 349 139 q 421 185 397 169 q 431 176 431 185 q 383 132 431 161 q 349 115 364 119 q 311 110 333 110 l 306 110 q 257 4 286 78 l 149 -6 z "},"5":{"ha":472,"x_min":18,"x_max":554,"o":"m 299 503 l 189 331 q 288 361 244 361 q 374 328 342 361 q 407 240 407 296 q 321 72 407 149 q 131 -4 235 -4 q 49 22 79 -4 q 18 93 18 49 q 35 151 18 129 q 79 174 51 174 q 118 132 118 174 q 90 89 118 97 q 69 83 79 86 q 58 64 58 79 q 78 33 58 47 q 126 18 97 18 q 272 108 203 18 q 342 274 342 197 q 325 321 342 303 q 281 339 308 339 q 204 313 240 339 q 135 253 169 282 q 128 257 132 253 q 125 263 125 261 q 133 288 125 272 l 321 590 q 454 560 393 560 q 521 572 492 560 q 547 585 533 578 l 554 576 q 508 528 554 558 q 382 490 451 490 q 338 492 351 490 q 299 503 324 494 z "},"6":{"ha":499,"x_min":72,"x_max":593,"o":"m 189 285 q 321 369 260 369 q 388 340 363 369 q 414 257 414 310 q 335 76 414 156 q 254 15 296 36 q 174 -6 213 -6 q 100 34 128 -6 q 72 140 72 74 q 105 282 72 210 q 204 426 138 354 q 493 585 350 585 q 563 560 533 585 q 593 503 593 536 q 577 459 593 478 q 539 440 561 440 q 503 475 503 440 q 513 504 503 490 q 535 533 524 518 q 490 564 535 564 q 347 496 425 564 q 189 285 260 419 m 129 71 q 171 14 129 14 q 294 106 231 14 q 357 290 357 199 q 315 347 357 347 q 255 322 288 347 q 192 248 222 296 q 145 152 161 200 q 129 71 129 104 z "},"7":{"ha":461,"x_min":67,"x_max":538,"o":"m 67 -6 q 218 221 117 96 q 446 476 296 317 q 365 454 397 454 q 306 471 339 454 q 225 508 231 508 q 189 481 206 508 q 168 442 179 465 q 121 394 143 394 q 106 410 106 394 q 133 456 106 421 q 169 503 149 475 q 215 579 192 540 q 236 593 225 593 q 246 581 246 593 l 239 564 l 219 528 q 299 560 268 560 q 346 543 319 560 q 421 504 408 504 q 485 538 454 504 q 524 571 515 571 q 538 556 538 571 q 489 490 538 551 q 358 313 417 400 q 169 0 261 169 l 67 -6 z "},"8":{"ha":494,"x_min":46,"x_max":504,"o":"m 260 288 q 89 107 89 215 q 114 39 89 65 q 181 13 139 13 q 275 50 235 13 q 315 143 315 88 q 260 288 315 207 m 326 336 q 427 401 392 360 q 463 492 463 442 q 390 568 463 568 q 315 537 347 568 q 282 461 282 506 q 326 336 282 413 m 250 304 q 217 367 229 338 q 206 424 206 397 q 263 538 206 489 q 392 586 319 586 q 474 559 444 586 q 504 483 504 532 q 338 321 504 382 q 377 250 364 282 q 390 189 390 218 q 325 53 390 111 q 172 -6 260 -6 q 81 26 115 -6 q 46 108 46 58 q 250 304 46 210 z "},"9":{"ha":499,"x_min":-17,"x_max":499,"o":"m 382 308 q 253 221 315 221 q 185 252 211 221 q 160 340 160 283 q 233 506 160 428 q 313 567 271 546 q 396 588 356 588 q 469 549 440 588 q 499 444 499 510 q 467 296 499 375 q 382 151 436 217 q 242 37 318 78 q 103 -4 167 -4 q 17 24 51 -4 q -17 90 -17 53 q -3 136 -17 118 q 33 154 11 154 q 62 141 50 154 q 74 108 74 128 q 58 66 74 86 q 42 43 42 46 q 92 14 42 14 q 244 89 165 14 q 382 308 333 172 m 440 513 q 429 553 440 539 q 399 568 418 568 q 276 479 338 568 q 215 301 215 390 q 253 243 215 243 q 381 342 317 243 q 424 433 408 386 q 440 513 440 481 z "}," ":{"ha":249,"x_min":0,"x_max":0,"o":""},"!":{"ha":321,"x_min":11,"x_max":436,"o":"m 332 588 l 436 597 l 132 153 q 101 122 113 122 q 92 132 92 129 q 104 165 92 143 l 332 588 m 11 29 q 26 67 11 50 q 61 85 40 85 q 94 50 94 85 q 80 12 94 29 q 46 -6 65 -6 q 21 4 31 -6 q 11 29 11 14 z "},"\"":{"ha":394,"x_min":56,"x_max":339,"o":"m 111 514 l 93 514 l 58 782 l 56 808 q 101 864 56 864 q 147 808 147 864 l 144 782 l 111 514 m 301 514 l 285 514 l 250 782 l 247 808 q 293 864 247 864 q 339 808 339 864 l 336 782 l 301 514 z "},"#":{"ha":935,"x_min":76,"x_max":857,"o":"m 479 860 l 536 860 l 432 565 l 610 565 l 714 860 l 771 860 l 667 565 l 857 565 l 842 518 l 650 518 l 586 339 l 793 339 l 776 292 l 569 292 l 467 0 l 410 0 l 513 292 l 335 292 l 231 0 l 175 0 l 278 292 l 76 292 l 94 339 l 296 339 l 358 518 l 140 518 l 157 565 l 375 565 l 479 860 m 415 518 l 351 339 l 529 339 l 593 518 l 415 518 z "},"$":{"ha":428,"x_min":3,"x_max":508,"o":"m 72 24 l 18 -76 l 3 -67 l 54 33 q 7 122 7 72 q 38 208 7 175 q 114 240 69 240 q 158 225 139 240 l 210 324 q 194 404 194 372 q 235 516 194 468 q 342 571 276 564 l 392 661 l 406 653 l 364 571 q 398 567 383 571 q 435 554 413 564 l 490 658 l 508 651 l 450 544 q 481 475 481 515 q 454 403 481 433 q 392 372 428 372 q 378 375 386 372 q 363 381 371 378 l 307 275 q 322 228 318 247 q 325 193 325 210 q 279 78 325 132 q 167 11 233 24 l 121 -75 l 104 -65 l 144 10 q 72 24 106 10 m 64 49 l 121 156 q 100 182 108 161 q 82 203 92 203 q 44 181 63 203 q 26 125 26 158 q 64 49 26 78 m 81 42 q 135 28 115 28 l 156 29 l 257 219 q 242 261 247 249 q 221 303 236 274 l 171 211 q 181 183 181 197 q 171 157 181 168 q 146 146 161 146 l 138 147 l 81 42 m 179 33 q 265 167 265 60 l 264 196 l 179 33 m 257 411 l 328 544 q 253 444 253 522 l 257 411 m 264 386 l 297 299 l 349 390 q 335 419 335 404 q 368 456 335 456 l 382 454 l 426 539 q 372 551 394 551 l 351 550 l 264 386 m 397 444 q 421 414 401 414 q 449 431 438 414 q 461 479 461 449 q 442 529 461 508 l 397 444 z "},"%":{"ha":681,"x_min":6,"x_max":674,"o":"m 585 513 q 463 475 514 475 q 367 506 400 475 q 301 352 356 415 q 193 289 246 289 q 138 314 160 289 q 115 379 115 339 q 178 519 115 453 q 304 586 240 586 q 365 549 344 586 q 401 507 382 519 q 461 494 419 494 q 565 524 513 494 q 665 588 615 556 q 674 583 669 588 q 642 540 674 571 l 82 -29 q 56 -56 69 -42 q 22 -71 42 -71 q 11 -69 15 -71 q 6 -62 7 -67 q 15 -44 6 -56 q 44 -15 33 -26 l 585 513 m 306 564 q 225 507 269 564 q 172 422 190 463 q 153 353 153 381 q 192 308 153 308 q 292 378 239 308 q 346 514 346 449 q 306 564 346 564 m 639 219 q 580 69 639 143 q 463 -6 521 -6 q 406 19 428 -6 q 385 83 385 43 q 447 224 385 157 q 575 290 510 290 q 639 219 639 290 m 576 269 q 496 211 544 269 q 442 128 461 169 q 424 60 424 86 q 463 14 424 14 q 564 85 511 14 q 617 221 617 156 q 576 269 617 269 z "},"&":{"ha":867,"x_min":26,"x_max":961,"o":"m 550 138 q 572 68 563 108 q 581 -15 581 28 q 478 -273 581 -169 q 233 -376 376 -376 q 83 -330 139 -376 q 26 -211 26 -283 q 72 -113 26 -156 q 160 -71 117 -71 q 165 -72 163 -71 q 169 -74 168 -72 q 156 -85 169 -79 q 121 -99 125 -96 q 46 -208 46 -137 q 90 -295 46 -261 q 203 -329 133 -329 q 349 -293 276 -329 q 476 -192 421 -257 q 560 21 560 -89 q 538 124 560 65 q 300 -6 429 -6 q 178 39 224 -6 q 132 153 132 83 q 204 301 132 238 q 422 411 276 364 q 418 448 421 424 q 415 478 415 472 q 463 624 415 565 q 569 682 510 682 q 643 656 615 682 q 671 585 671 629 q 447 393 671 476 q 542 156 461 336 q 692 351 669 324 q 808 481 768 449 q 914 525 863 525 q 947 510 933 525 q 961 475 961 496 q 915 431 961 431 q 874 456 899 431 q 851 469 860 469 q 783 429 825 469 q 688 315 757 404 q 550 138 618 225 m 528 140 q 471 272 488 233 q 429 386 446 335 q 257 275 315 340 q 199 131 199 210 q 229 44 199 78 q 306 11 260 11 q 528 140 428 11 m 440 417 q 600 490 553 454 q 653 590 653 531 q 631 643 653 622 q 572 664 608 664 q 475 610 518 664 q 432 476 432 556 q 435 447 432 464 q 440 417 438 431 z "},"'":{"ha":203,"x_min":56,"x_max":147,"o":"m 110 514 l 92 514 l 57 782 l 56 808 q 101 864 56 864 q 147 808 147 864 l 144 782 l 110 514 z "},"(":{"ha":393,"x_min":58,"x_max":753,"o":"m 174 -204 q 163 -196 167 -199 q 139 -168 150 -185 q 58 81 58 -56 q 167 415 58 246 q 486 732 276 583 q 629 825 560 783 q 743 882 726 882 q 749 879 747 882 q 753 875 751 876 q 722 853 753 869 q 544 735 625 799 q 226 368 346 576 q 114 13 114 172 q 135 -110 114 -54 q 181 -196 157 -153 l 174 -204 z "},")":{"ha":393,"x_min":-296,"x_max":400,"o":"m 285 881 q 296 872 292 875 q 319 844 308 861 q 400 596 400 732 q 293 265 400 431 q -28 -56 182 93 q -208 -169 -125 -125 q -286 -204 -272 -204 q -292 -202 -289 -204 q -296 -199 -294 -200 q -264 -175 -296 -193 q -85 -57 -160 -117 q 232 308 114 103 q 343 664 343 503 q 322 786 343 731 q 276 874 299 829 l 285 881 z "},"*":{"ha":421,"x_min":238,"x_max":586,"o":"m 400 690 l 303 643 q 281 635 292 639 q 260 631 269 631 q 238 660 238 631 q 249 678 238 672 q 288 690 260 683 l 393 708 l 304 768 q 279 788 283 783 q 269 807 269 797 q 278 826 269 818 q 294 835 286 835 q 319 822 307 835 q 336 803 326 814 l 406 722 l 414 829 q 442 882 414 882 q 471 856 471 882 q 460 819 471 847 l 424 719 l 521 765 q 544 776 539 775 q 564 778 550 778 q 586 750 586 778 q 578 732 586 739 q 536 719 569 725 l 431 700 l 519 640 q 556 601 556 615 q 547 582 556 590 q 529 574 539 574 q 508 582 518 574 q 488 606 504 585 l 418 686 l 410 579 q 381 526 410 526 q 353 554 353 526 q 357 573 353 563 q 363 589 361 583 l 400 690 z "},"+":{"ha":1013,"x_min":150,"x_max":861,"o":"m 482 721 l 529 721 l 529 385 l 861 385 l 861 338 l 529 338 l 529 0 l 482 0 l 482 338 l 150 338 l 150 385 l 482 385 l 482 721 z "},",":{"ha":247,"x_min":-58,"x_max":158,"o":"m 158 49 q 64 -81 158 -14 q 6 -110 42 -96 q -50 -125 -29 -125 l -58 -117 q -40 -102 -58 -108 q -4 -89 -21 -96 q 72 15 72 -60 q 121 85 72 85 q 158 49 158 85 z "},"-":{"ha":432,"x_min":68,"x_max":376,"o":"m 68 149 l 93 201 l 376 201 l 351 149 l 68 149 z "},".":{"ha":247,"x_min":61,"x_max":144,"o":"m 61 29 q 76 67 61 50 q 111 85 90 85 q 144 50 144 85 q 130 12 144 29 q 96 -6 115 -6 q 71 4 81 -6 q 61 29 61 14 z "},"/":{"ha":360,"x_min":-10,"x_max":436,"o":"m -10 -108 l 372 668 l 436 668 l 0 -112 l -10 -108 z "},":":{"ha":276,"x_min":22,"x_max":247,"o":"m 22 29 q 37 67 22 50 q 72 85 51 85 q 106 50 106 85 q 91 12 106 29 q 57 -6 76 -6 q 32 4 42 -6 q 22 29 22 14 m 163 268 q 178 306 163 288 q 213 324 193 324 q 238 314 228 324 q 247 288 247 304 q 232 250 247 268 q 197 232 217 232 q 172 242 182 232 q 163 268 163 251 z "},";":{"ha":276,"x_min":-108,"x_max":247,"o":"m 110 49 q 14 -81 110 -12 q -37 -108 -11 -97 q -99 -125 -78 -125 l -108 -117 q -89 -102 -108 -108 q -53 -89 -69 -96 q 24 14 24 -58 q 72 83 24 83 q 110 49 110 83 m 163 268 q 178 306 163 288 q 213 324 193 324 q 238 314 228 324 q 247 288 247 304 q 232 250 247 268 q 197 232 217 232 q 172 242 182 232 q 163 268 163 251 z "},"<":{"ha":1013,"x_min":157,"x_max":856,"o":"m 856 664 l 856 611 l 236 361 l 856 110 l 856 58 l 157 343 l 157 379 l 856 664 z "},"=":{"ha":1013,"x_min":150,"x_max":861,"o":"m 150 492 l 861 492 l 861 444 l 150 444 l 150 492 m 150 278 l 861 278 l 861 231 l 150 231 l 150 278 z "},">":{"ha":1013,"x_min":157,"x_max":856,"o":"m 157 664 l 856 379 l 856 343 l 157 58 l 157 110 l 776 361 l 157 611 l 157 664 z "},"?":{"ha":396,"x_min":22,"x_max":449,"o":"m 96 131 q 118 178 96 143 q 196 274 146 222 q 325 397 260 335 q 390 539 390 467 q 332 585 390 585 q 248 555 288 585 q 208 506 208 525 q 231 488 208 501 q 253 451 253 474 q 240 422 253 435 q 213 410 228 410 q 182 424 194 410 q 169 463 169 439 q 220 559 169 515 q 335 603 271 603 q 417 572 386 603 q 449 485 449 540 q 363 343 449 403 q 279 292 351 335 q 186 222 222 258 q 129 150 157 193 q 103 121 111 121 q 96 131 96 128 m 22 29 q 37 67 22 50 q 72 85 51 85 q 106 50 106 85 q 91 12 106 29 q 57 -6 76 -6 q 32 4 42 -6 q 22 29 22 14 z "},"@":{"ha":1197,"x_min":89,"x_max":1110,"o":"m 646 574 q 528 494 582 574 q 458 355 483 428 q 433 225 433 282 q 460 132 433 165 q 531 99 486 99 q 682 204 610 99 q 737 322 717 258 q 757 439 757 386 q 725 535 757 496 q 646 574 693 574 m 708 203 q 519 75 638 75 q 409 130 453 75 q 365 271 365 185 q 394 397 365 333 q 475 513 422 461 q 649 593 556 593 q 779 475 749 593 l 813 583 l 885 583 l 785 226 q 776 193 781 210 q 772 163 772 176 q 835 97 772 97 q 897 113 861 97 q 965 161 932 129 q 1054 291 1021 213 q 1088 454 1088 369 q 972 729 1088 625 q 665 833 857 833 q 311 700 453 833 q 147 297 147 549 q 179 122 147 196 q 286 -17 211 47 q 444 -108 354 -76 q 635 -140 533 -140 q 1003 -17 843 -140 l 1019 -35 q 635 -164 846 -164 q 269 -56 410 -164 q 89 317 89 81 q 288 726 89 560 q 661 857 446 857 q 988 747 865 857 q 1110 453 1110 638 q 1075 278 1110 361 q 979 139 1040 194 q 829 74 907 74 q 740 106 771 74 q 708 203 708 139 z "},"A":{"ha":1482,"x_min":33,"x_max":1528,"o":"m 1042 421 q 860 236 922 296 q 731 122 779 158 q 552 26 643 57 q 358 -6 461 -6 q 123 76 213 -6 q 33 285 33 157 q 133 510 33 417 q 375 603 233 603 q 574 532 492 603 q 651 386 651 465 q 610 335 651 335 q 581 349 592 335 q 569 386 569 363 q 575 418 569 396 q 581 453 581 440 q 531 540 581 506 q 406 574 482 574 q 190 477 282 574 q 97 256 97 381 q 170 80 97 146 q 369 14 243 14 q 585 60 483 14 q 800 207 686 107 q 1029 438 892 286 q 947 483 992 483 q 881 457 907 483 q 838 399 858 428 l 832 404 q 868 472 832 439 q 965 511 910 511 q 1057 467 1018 511 l 1232 647 q 1503 869 1449 869 q 1528 846 1528 869 q 1483 753 1528 824 q 1261 379 1317 486 l 1274 379 q 1389 338 1346 379 q 1432 229 1432 296 q 1366 73 1432 149 q 1222 -3 1300 -3 q 1132 35 1165 -3 q 1099 139 1099 72 q 1154 343 1099 221 q 1057 285 1093 319 q 963 139 1004 139 q 935 169 935 139 q 1044 306 935 217 q 1058 361 1058 338 q 1042 421 1058 392 m 1063 311 q 1167 367 1103 346 q 1332 613 1243 490 q 1447 767 1371 665 q 1492 835 1492 825 q 1489 846 1492 840 q 1486 847 1488 846 q 1249 636 1454 847 l 1069 451 q 1083 383 1083 418 q 1063 311 1083 347 m 1249 356 q 1186 202 1208 274 q 1164 92 1164 131 q 1226 15 1164 15 q 1328 74 1283 15 q 1374 218 1374 132 q 1249 356 1374 356 z "},"B":{"ha":1204,"x_min":44,"x_max":1225,"o":"m 1074 789 q 960 686 1017 753 q 849 535 911 629 q 725 346 786 440 q 515 86 604 163 q 286 -6 408 -6 q 111 61 178 -6 q 44 238 44 128 q 115 474 44 354 q 315 689 185 593 q 867 881 575 881 q 1104 835 1007 881 q 1218 885 1199 885 l 1225 876 q 1183 851 1225 868 q 1122 822 1156 840 q 1214 668 1214 767 q 1155 535 1214 593 q 990 453 1096 476 q 1125 382 1078 433 q 1172 258 1172 331 q 1090 76 1172 157 q 894 -4 1008 -4 q 772 36 818 -4 q 726 140 726 76 q 831 300 726 242 q 884 324 858 315 q 919 332 910 332 q 928 321 928 324 q 917 313 928 317 q 851 281 872 293 q 750 124 750 217 q 861 38 750 38 q 990 94 925 38 q 1061 188 1035 133 q 1088 294 1088 243 q 1056 394 1088 356 q 967 440 1024 433 q 921 431 942 433 q 890 428 900 428 q 865 450 865 428 q 904 475 865 475 q 922 474 911 475 q 954 467 932 474 q 1074 528 1025 467 q 1122 676 1122 589 q 1111 735 1122 708 q 1074 789 1100 761 m 1053 803 q 847 860 974 860 q 592 815 718 860 q 372 693 467 771 q 197 481 257 599 q 136 240 136 363 q 185 75 136 133 q 315 17 233 17 q 497 101 408 17 q 642 283 567 169 q 721 408 694 367 q 913 672 839 588 q 1053 803 979 747 z "},"C":{"ha":1079,"x_min":160,"x_max":1203,"o":"m 857 782 q 1040 640 940 726 q 1124 723 1094 683 q 1154 790 1154 763 q 1069 839 1154 839 q 857 782 992 839 m 831 767 q 508 497 606 638 q 571 490 542 493 q 615 488 600 488 q 1022 625 818 488 q 928 704 960 679 q 831 767 876 743 m 418 515 q 786 786 513 669 q 450 868 621 868 q 266 826 333 868 q 199 718 199 785 q 256 597 199 653 q 418 515 314 540 m 428 150 q 547 -19 458 42 q 764 -81 636 -81 q 947 -34 874 -81 q 1021 68 1021 13 q 932 151 1021 117 q 699 186 843 186 q 428 150 575 186 m 361 153 q 335 283 335 215 q 386 474 335 379 q 160 676 160 510 q 251 838 160 769 q 486 906 342 906 q 651 879 567 906 q 825 801 735 853 q 963 842 914 831 q 1089 857 1029 857 q 1203 789 1203 857 q 1060 617 1203 722 l 1082 596 q 1097 572 1097 581 l 1092 568 q 1071 579 1082 568 q 1043 607 1047 604 q 483 460 804 460 l 475 460 q 413 254 413 360 q 416 208 413 232 q 422 171 419 185 q 591 206 508 193 q 744 218 674 218 q 963 169 885 218 q 1042 46 1042 121 q 975 -66 1042 -19 q 800 -112 908 -112 q 556 -48 671 -112 q 372 133 442 17 q 277 97 319 118 q 196 57 235 76 q 188 63 192 57 q 361 153 188 88 z "},"D":{"ha":1078,"x_min":3,"x_max":1079,"o":"m 489 254 q 303 368 371 286 q 235 560 235 450 q 331 792 235 700 q 582 883 426 883 q 863 794 724 883 q 950 857 938 857 q 957 853 954 857 q 961 849 960 850 q 942 826 961 842 q 885 781 894 789 q 1031 617 983 701 q 1079 435 1079 533 q 954 142 1079 269 q 788 35 886 74 q 581 -4 689 -4 q 290 44 492 -4 q 114 -6 194 -6 q 32 14 61 -6 q 3 64 3 33 q 121 132 3 132 q 344 101 192 132 q 489 254 433 164 m 518 296 q 618 461 543 335 q 711 613 682 568 q 808 742 760 688 q 514 832 669 832 q 340 773 403 832 q 276 610 276 714 q 342 419 276 507 q 518 296 408 332 m 372 99 q 556 70 482 79 q 679 61 631 61 q 941 156 839 61 q 1043 389 1043 251 q 829 729 1043 579 q 717 564 775 665 q 553 286 572 313 l 615 282 q 756 317 694 282 q 846 411 818 351 q 862 456 857 443 q 876 469 867 469 q 885 457 885 469 q 874 417 885 443 q 840 361 863 390 q 732 275 800 307 q 583 243 664 243 l 522 247 q 454 169 490 204 q 372 99 418 133 m 254 51 q 142 83 189 72 q 72 93 96 93 q 39 85 50 93 q 28 61 28 76 q 121 13 28 13 q 254 51 178 13 z "},"E":{"ha":1001,"x_min":33,"x_max":951,"o":"m 257 251 q 132 192 193 226 q 42 140 86 165 l 33 147 q 253 271 33 179 l 253 285 q 576 560 253 522 l 567 597 q 506 594 542 597 q 467 590 469 590 q 272 633 342 590 q 201 749 201 676 q 267 876 201 824 q 428 928 333 928 q 696 822 553 928 q 854 871 782 871 q 944 806 944 871 q 867 694 944 746 q 646 611 790 643 q 651 584 647 596 q 656 564 654 572 q 801 538 749 564 q 853 474 853 513 q 771 413 853 413 q 653 447 706 413 q 578 543 600 482 q 318 340 318 515 l 322 296 q 564 332 446 332 q 849 267 739 332 q 951 118 951 206 q 884 -23 951 29 q 700 -75 817 -75 q 503 -38 596 -75 q 349 65 411 -1 q 257 251 272 144 m 328 276 q 485 42 368 133 q 740 -49 603 -49 q 867 -14 818 -49 q 915 71 915 21 q 806 226 915 158 q 514 300 688 300 q 328 276 426 300 m 660 546 q 797 435 717 435 q 833 468 833 435 q 788 524 833 503 q 660 546 743 546 m 647 635 q 904 793 904 681 q 838 853 904 853 q 702 792 757 853 q 647 635 647 732 m 568 626 q 679 813 579 736 q 421 899 551 899 q 282 865 333 899 q 231 779 231 832 q 314 672 231 718 q 519 625 397 625 l 568 626 z "},"F":{"ha":1164,"x_min":76,"x_max":1360,"o":"m 726 193 q 503 639 503 389 q 563 818 503 754 q 726 882 622 882 q 889 851 786 882 q 1011 813 967 826 q 1095 792 1056 800 q 1175 785 1135 785 l 1196 785 q 1322 842 1272 842 q 1360 813 1360 842 q 1217 758 1360 758 l 1210 758 q 972 513 1086 729 q 1010 504 996 508 q 1043 493 1025 500 q 1140 533 1096 508 q 1210 578 1175 556 q 1215 569 1215 572 q 1181 535 1215 558 q 1069 482 1138 506 q 1172 319 1172 428 q 1103 174 1172 239 q 940 108 1033 108 q 743 181 858 108 q 558 34 650 82 q 363 -14 467 -14 q 159 70 242 -14 q 76 286 76 154 q 103 419 76 369 q 169 468 131 468 q 213 424 213 468 q 198 384 213 401 q 167 367 183 367 l 135 369 q 97 306 97 369 q 189 126 97 206 q 422 42 286 42 q 726 193 592 42 m 763 240 q 883 431 839 339 q 792 474 792 431 q 893 522 792 522 l 931 518 q 1032 665 989 618 q 1153 751 1086 725 l 1069 747 q 913 764 1004 747 q 679 800 714 800 q 519 639 519 800 q 581 438 519 542 q 763 240 647 324 m 925 435 q 853 318 889 369 q 783 226 818 267 q 881 182 835 197 q 971 167 926 167 q 1103 209 1054 167 q 1153 322 1153 251 q 1114 422 1153 381 q 1036 464 1075 464 q 976 444 1032 464 q 925 435 949 435 z "},"G":{"ha":990,"x_min":51,"x_max":1186,"o":"m 651 736 q 957 861 794 844 q 917 956 957 919 q 814 992 876 992 q 691 940 739 992 q 643 803 643 888 q 651 736 643 772 m 668 672 q 760 567 693 607 q 915 528 828 528 q 1093 585 1019 528 q 1167 714 1167 643 q 1124 802 1167 768 q 1003 836 1081 836 l 981 835 q 933 710 956 710 q 928 712 931 710 q 925 715 926 714 q 944 772 933 739 q 958 832 954 806 q 668 672 783 817 m 947 311 q 1035 376 1004 340 q 1067 436 1067 411 q 1050 458 1067 458 q 947 311 1018 458 m 817 240 q 755 225 782 231 q 703 219 728 219 q 549 279 608 219 q 489 438 489 339 q 596 682 489 563 q 576 785 576 743 q 643 949 576 881 q 804 1017 710 1017 q 928 975 881 1017 q 976 867 976 933 l 989 863 q 1134 824 1082 863 q 1186 719 1186 786 q 1103 565 1186 633 q 896 496 1019 496 q 635 619 721 496 q 572 418 572 521 q 617 294 572 340 q 739 247 663 247 q 833 268 785 247 q 1051 483 946 483 q 1088 439 1088 483 q 933 283 1088 357 q 367 -151 703 -151 q 136 -74 221 -151 q 51 136 51 4 q 128 363 51 269 q 299 457 204 457 q 378 396 378 457 q 363 358 378 374 q 328 343 347 343 q 274 376 300 343 q 233 408 249 408 q 144 354 183 408 q 101 201 101 294 q 192 -31 101 64 q 417 -125 282 -125 q 644 -35 547 -125 q 817 240 740 54 z "},"H":{"ha":1485,"x_min":51,"x_max":1632,"o":"m 524 338 q 343 215 343 297 q 363 174 343 192 q 411 156 382 156 q 494 197 463 156 q 525 311 525 238 l 524 338 m 578 372 l 803 428 q 940 645 874 554 q 1074 794 1007 736 q 889 731 985 731 q 749 762 828 731 q 647 793 669 793 q 588 706 588 793 q 608 601 588 656 q 656 501 632 551 q 654 497 656 499 q 651 493 653 494 q 600 567 633 493 q 567 708 567 642 q 604 818 567 776 q 700 860 642 860 q 832 816 746 860 q 953 772 918 772 q 1079 813 999 772 q 1115 854 1097 833 q 1163 883 1142 883 q 1185 861 1185 883 q 1107 806 1185 825 q 853 439 968 668 l 1051 490 q 1332 785 1176 675 q 1549 878 1464 878 q 1632 797 1632 878 q 1514 635 1632 715 q 1351 556 1451 593 q 1138 490 1268 524 q 1072 330 1093 404 q 1050 185 1050 256 q 1133 24 1050 39 l 1131 89 q 1192 313 1131 229 q 1335 390 1249 390 q 1425 353 1390 390 q 1460 253 1460 315 q 1379 79 1460 156 q 1167 -4 1292 -4 q 1170 -53 1167 -35 q 1176 -83 1174 -71 q 1172 -90 1176 -87 q 1168 -92 1169 -90 q 1153 -67 1160 -92 l 1139 -3 q 1015 62 1061 4 q 969 210 969 119 q 1040 465 969 329 l 838 414 q 586 101 733 211 q 300 -3 446 -3 q 122 65 193 -3 q 51 235 51 133 q 76 342 51 292 q 147 435 100 393 q 254 501 194 478 q 375 524 314 524 q 509 484 456 524 q 578 372 563 444 m 1156 515 q 1474 660 1357 574 q 1579 811 1579 738 q 1529 854 1579 854 q 1365 772 1465 854 q 1156 515 1246 674 m 1165 21 q 1333 84 1267 21 q 1399 242 1399 147 q 1374 334 1399 300 q 1311 368 1350 368 q 1206 277 1247 368 q 1165 21 1165 186 m 789 403 l 579 351 l 579 343 q 514 189 579 256 q 375 122 449 122 q 296 200 296 122 q 517 358 296 301 q 449 460 496 424 q 340 496 403 496 q 186 433 251 496 q 121 279 121 371 q 188 111 121 178 q 360 44 254 44 q 588 131 488 44 q 789 403 689 218 z "},"I":{"ha":956,"x_min":69,"x_max":1010,"o":"m 708 165 q 857 381 797 243 q 747 676 747 517 q 780 815 747 764 q 867 865 813 865 q 967 805 924 865 q 1010 653 1010 744 q 984 515 1010 586 q 907 354 958 443 q 957 303 925 332 q 976 278 976 285 l 969 269 q 942 286 961 269 q 894 336 922 303 q 809 235 850 279 q 718 147 768 190 q 733 67 733 108 q 667 -98 733 -32 q 519 -164 601 -164 q 501 -156 501 -164 q 528 -144 501 -150 q 578 -129 556 -139 q 693 61 693 -79 q 692 92 693 75 q 686 125 690 108 q 512 27 593 60 q 349 -6 431 -6 q 147 67 224 -6 q 69 256 69 140 q 153 451 69 371 q 354 531 238 531 q 493 485 439 531 q 547 368 547 439 q 513 265 547 314 l 518 265 q 708 165 656 265 m 867 406 q 917 567 900 486 q 933 719 933 649 q 913 816 933 782 q 858 850 893 850 q 806 811 826 850 q 786 700 786 772 q 806 550 786 624 q 867 406 825 476 m 678 143 q 510 247 635 247 l 497 247 q 394 179 433 179 q 364 201 364 179 q 490 264 364 244 q 501 322 501 290 q 446 450 501 394 q 313 506 390 506 q 178 449 232 506 q 124 304 124 392 q 203 113 124 190 q 406 36 283 36 q 678 143 543 36 z "},"J":{"ha":928,"x_min":44,"x_max":1342,"o":"m 608 -14 q 443 390 443 164 q 481 566 443 488 q 582 691 518 644 q 733 756 646 738 q 936 775 819 775 q 1053 776 1028 775 q 1194 807 1143 782 q 1269 850 1215 817 q 1315 869 1301 869 q 1342 849 1342 869 q 1203 781 1342 814 q 1049 606 1126 735 q 960 447 1021 560 q 857 264 882 306 q 754 108 803 171 q 635 -14 696 33 q 700 -81 665 -49 q 749 -125 749 -124 l 742 -132 q 622 -26 715 -132 q 463 -120 546 -87 q 304 -153 379 -153 q 114 -81 183 -153 q 44 118 44 -8 q 65 240 44 197 q 121 283 86 283 q 161 239 161 283 q 111 178 161 196 q 76 167 93 172 q 63 139 63 160 q 148 -31 63 42 q 363 -104 233 -104 q 608 -14 493 -104 m 622 0 q 825 274 726 92 q 922 456 874 364 q 1171 779 1065 715 q 903 729 1140 771 q 756 692 817 714 q 551 551 622 644 q 481 333 481 458 q 517 159 481 247 q 622 0 554 71 z "},"K":{"ha":1485,"x_min":63,"x_max":1697,"o":"m 1047 725 q 857 660 942 660 q 767 738 797 660 q 750 786 758 761 q 721 808 740 808 q 653 767 697 808 q 557 638 597 715 q 519 538 536 597 q 500 503 510 503 l 493 510 q 510 576 493 532 q 572 699 532 636 q 673 811 619 772 q 765 850 726 850 q 811 834 794 850 q 845 777 828 818 q 865 729 863 736 q 913 690 885 690 q 991 713 942 690 q 1110 785 1040 736 q 1226 861 1199 861 q 1244 843 1244 861 q 1126 769 1244 815 q 1013 647 1071 732 q 896 450 969 585 q 943 431 921 440 q 978 413 965 421 q 1126 517 1049 443 q 1264 663 1140 531 q 1424 806 1356 763 q 1578 856 1501 856 q 1665 835 1633 856 q 1697 781 1697 814 q 1681 738 1697 757 q 1640 718 1664 718 q 1601 758 1601 718 q 1610 785 1601 768 q 1618 810 1618 801 q 1567 838 1618 838 q 1417 750 1500 838 q 1308 629 1349 675 q 1157 490 1232 544 q 993 401 1082 435 q 1063 331 1043 363 q 1089 225 1089 288 q 1086 163 1089 206 q 1083 119 1083 121 q 1167 13 1083 13 q 1322 79 1256 13 q 1389 238 1389 146 q 1364 324 1389 290 q 1303 357 1339 357 q 1239 335 1269 357 q 1183 286 1211 310 l 1176 293 q 1221 344 1176 308 q 1322 388 1274 388 q 1412 351 1376 388 q 1447 254 1447 314 q 1357 75 1447 157 q 1150 -7 1267 -7 q 1039 39 1081 -7 q 997 160 997 85 q 1000 231 997 181 q 1003 282 1003 281 q 968 390 1003 357 q 910 369 943 378 q 847 354 876 360 q 613 88 744 179 q 335 -4 481 -4 q 136 67 210 -4 q 63 256 63 138 q 83 351 63 317 q 138 385 104 385 q 179 344 179 385 q 129 288 179 300 q 92 279 110 283 q 78 251 78 274 q 167 117 78 197 q 400 38 257 38 q 620 113 525 38 q 803 349 715 188 l 788 349 q 698 368 732 349 q 664 415 664 388 q 691 458 664 440 q 767 475 718 475 q 864 463 814 475 q 957 610 921 557 q 1047 725 1004 679 m 815 367 l 854 444 q 799 451 819 451 q 744 438 765 451 q 722 408 722 425 q 799 367 722 367 l 815 367 m 888 435 l 856 374 q 956 400 908 381 q 888 435 926 425 z "},"L":{"ha":1090,"x_min":-7,"x_max":1222,"o":"m 646 435 q 822 379 728 379 q 1060 466 967 379 q 1154 681 1154 553 q 1122 789 1154 750 q 1031 828 1090 828 q 646 435 833 828 m 610 457 q 1044 847 800 847 q 1174 803 1125 847 q 1222 685 1222 758 q 1106 459 1222 557 q 821 361 989 361 q 632 408 729 361 q 464 163 536 242 q 276 43 378 69 q 553 -33 460 -11 q 753 -62 675 -62 q 940 -10 872 -62 q 1008 126 1008 42 q 1006 169 1008 147 q 1003 194 1003 192 q 1010 204 1003 204 q 1026 136 1026 204 q 937 -56 1026 21 q 721 -133 847 -133 q 598 -113 667 -133 q 432 -53 529 -93 q 238 31 396 -37 q 79 1 158 1 q -7 50 -7 1 q 44 88 -7 88 q 150 74 85 88 q 236 53 206 60 q 419 149 329 53 q 596 431 508 246 q 485 635 485 515 q 557 807 485 740 q 750 874 629 874 q 799 861 799 874 q 785 854 799 854 l 757 854 q 603 790 660 854 q 547 624 547 725 q 610 457 547 533 z "},"M":{"ha":1504,"x_min":39,"x_max":1951,"o":"m 1292 572 q 1318 547 1307 557 q 1344 529 1329 538 q 1485 637 1419 600 q 1590 674 1550 674 q 1633 635 1633 674 q 1619 599 1633 614 q 1583 583 1606 583 q 1542 599 1569 583 q 1496 614 1514 614 q 1436 589 1469 614 q 1367 514 1403 564 q 1449 474 1413 486 q 1553 456 1499 456 q 1710 481 1633 456 q 1847 550 1788 506 q 1932 678 1932 613 q 1885 767 1932 735 q 1754 800 1839 800 q 1535 743 1649 800 q 1292 572 1422 686 m 1256 615 q 1697 842 1474 842 q 1881 794 1811 842 q 1951 674 1951 746 q 1860 515 1951 593 q 1599 419 1744 419 q 1480 438 1536 419 q 1354 497 1424 457 q 1229 160 1229 342 q 1306 25 1229 25 q 1374 50 1331 25 q 1463 122 1417 75 q 1494 158 1475 136 q 1510 172 1506 172 l 1517 165 q 1458 96 1517 147 q 1350 19 1400 44 q 1257 -7 1300 -7 q 1178 35 1210 -7 q 1147 150 1147 78 q 1192 327 1147 233 q 1329 515 1238 421 q 1304 536 1313 529 q 1279 558 1288 550 q 960 129 1082 368 q 874 -14 922 -14 q 846 14 846 -14 q 869 72 846 33 q 942 160 893 111 q 1012 367 985 250 q 1039 601 1039 485 q 975 437 1015 517 q 885 297 935 357 q 617 74 764 154 q 339 -7 469 -7 q 122 70 204 -7 q 39 269 39 147 q 134 494 39 400 q 361 588 229 588 q 506 533 450 588 q 561 397 561 479 q 504 256 561 321 q 407 197 453 197 q 396 204 396 197 q 409 216 396 210 q 439 231 422 222 q 500 353 500 264 q 444 491 500 436 q 303 546 388 546 q 148 485 211 546 q 85 333 85 425 q 175 125 85 211 q 404 39 265 39 q 808 267 632 39 q 930 474 889 368 q 971 672 971 579 q 936 800 971 756 q 839 844 901 844 q 694 784 757 844 q 631 635 631 724 q 656 537 631 574 q 724 500 682 500 q 806 532 769 500 q 861 603 833 567 l 869 596 q 822 519 869 563 q 701 468 767 468 q 603 506 640 468 q 567 606 567 544 q 590 702 567 656 q 664 788 614 749 q 758 843 706 824 q 857 863 810 863 q 1003 797 951 863 q 1056 610 1056 732 q 1037 422 1056 522 q 979 211 1018 321 q 1100 411 1043 324 q 1243 600 1168 514 q 1175 727 1197 660 q 1153 839 1153 794 q 1169 864 1153 864 q 1186 821 1181 864 q 1256 615 1201 694 z "},"N":{"ha":1356,"x_min":72,"x_max":1769,"o":"m 1060 653 q 743 165 919 329 q 367 0 567 0 q 149 72 225 0 q 72 278 72 144 q 95 405 72 357 q 156 453 118 453 q 194 408 194 453 q 179 372 194 385 q 140 356 169 365 q 89 286 89 340 q 182 124 89 200 q 421 40 283 40 q 761 206 596 40 q 1040 683 935 379 q 754 833 918 833 q 563 757 638 833 q 488 561 488 681 q 540 410 488 471 q 668 349 593 349 q 815 451 753 349 q 833 488 825 467 q 847 508 842 508 l 854 503 q 844 472 854 493 q 813 422 835 451 q 614 315 731 315 q 479 371 533 315 q 425 515 425 426 q 547 766 425 663 q 818 869 668 869 q 1067 769 960 869 q 1082 854 1074 811 q 1099 868 1086 868 q 1118 850 1118 868 q 1089 747 1118 832 q 1160 602 1135 682 q 1186 421 1186 522 q 1165 203 1186 314 q 1529 715 1286 517 q 1439 708 1467 708 l 1413 708 q 1329 719 1329 708 q 1340 728 1329 728 q 1382 723 1357 725 q 1425 721 1407 721 q 1480 724 1454 721 q 1557 736 1506 728 q 1729 842 1671 842 q 1758 832 1747 842 q 1769 806 1769 822 q 1593 722 1769 751 q 1340 482 1444 618 q 1167 171 1235 346 q 1148 37 1167 83 q 1100 -10 1129 -10 q 1079 17 1079 -10 q 1096 80 1079 38 q 1149 186 1113 122 q 1156 239 1154 214 q 1157 296 1157 264 q 1060 653 1157 490 z "},"O":{"ha":743,"x_min":43,"x_max":872,"o":"m 511 71 l 549 68 q 688 118 622 68 q 729 156 710 135 q 760 186 758 186 l 765 182 q 699 106 765 154 q 532 46 617 46 l 479 51 q 285 -6 374 -6 q 108 67 174 -6 q 43 263 43 139 q 110 511 43 382 q 296 736 178 640 q 649 879 471 879 q 810 819 747 879 q 872 663 872 760 q 801 474 872 568 q 688 242 761 342 q 511 71 615 142 m 447 61 q 337 151 378 89 q 296 296 296 214 q 336 492 296 396 q 450 661 376 588 q 646 761 549 761 q 766 708 722 761 q 810 557 810 654 l 808 522 q 832 577 824 550 q 840 635 840 604 q 786 799 840 738 q 640 861 732 861 q 457 810 550 861 q 288 661 364 758 q 135 242 135 463 q 178 76 135 135 q 303 18 221 18 q 447 61 364 18 m 485 79 q 731 418 660 182 q 550 379 658 379 q 489 390 489 379 q 503 400 489 400 l 540 399 q 662 412 613 399 q 740 454 711 425 q 753 528 749 496 q 758 586 758 561 q 726 703 758 661 q 640 744 694 744 q 469 643 558 744 q 388 499 415 579 q 360 331 360 419 q 394 165 360 232 q 485 79 429 97 z "},"P":{"ha":1208,"x_min":76,"x_max":1396,"o":"m 715 176 q 779 260 747 210 q 842 365 801 294 q 744 409 789 393 q 660 429 700 425 l 658 399 q 715 176 658 290 m 867 349 q 725 161 790 226 q 820 63 767 99 q 918 26 874 26 q 1010 122 1010 26 q 867 349 1010 249 m 661 449 q 763 423 718 439 q 849 381 807 407 q 1032 692 933 572 q 1133 782 1106 782 l 1140 775 q 1095 735 1121 758 q 1042 672 1069 711 q 969 544 1014 632 q 876 363 878 365 q 1026 140 1026 254 q 988 31 1026 71 q 882 -10 949 -10 q 671 111 757 -10 q 374 -7 531 -7 q 157 76 238 -7 q 76 306 76 160 q 102 429 76 382 q 168 476 128 476 q 215 419 215 476 q 164 369 215 378 q 111 361 138 365 q 94 310 94 353 q 196 125 94 207 q 438 43 297 43 q 661 124 549 43 q 592 369 592 242 l 596 433 l 576 433 q 431 390 485 433 q 376 278 376 347 q 450 174 376 199 q 492 163 471 167 q 513 156 513 160 q 494 146 513 146 q 367 185 417 146 q 317 289 317 224 q 572 456 317 456 l 600 456 q 785 758 643 642 q 1097 875 926 875 q 1311 806 1226 875 q 1396 639 1396 736 q 1326 465 1396 536 q 1157 394 1257 394 q 1045 423 1088 394 q 1003 496 1003 451 q 1016 540 1003 522 q 1050 557 1029 557 q 1099 518 1099 557 q 1090 488 1099 507 q 1082 460 1082 468 q 1157 413 1082 413 q 1270 459 1228 413 q 1313 588 1313 506 q 1242 774 1313 704 q 1057 843 1171 843 q 901 808 979 843 q 765 713 822 774 q 694 599 719 663 q 661 449 668 535 z "},"Q":{"ha":911,"x_min":46,"x_max":1307,"o":"m 572 785 q 436 535 436 694 q 488 358 436 425 q 618 292 539 292 q 744 353 694 292 q 794 514 794 414 q 731 706 794 628 q 572 785 668 785 m 578 806 q 660 835 618 825 q 738 846 703 846 q 924 772 851 846 q 996 582 996 699 q 899 313 996 440 q 606 82 797 179 q 1094 -264 924 -264 q 1214 -231 1157 -264 q 1301 -158 1257 -194 l 1307 -162 q 1261 -215 1307 -179 q 1144 -281 1207 -260 q 1007 -301 1082 -301 q 774 -211 883 -301 q 540 53 690 -143 q 257 -6 386 -6 q 102 41 158 -6 q 46 160 46 88 q 95 277 46 232 q 226 322 144 322 q 408 261 319 322 q 586 99 469 219 q 857 304 763 179 q 951 578 951 429 q 893 764 951 697 q 735 831 835 831 q 610 804 681 831 q 788 725 722 792 q 853 554 853 658 q 769 349 853 438 q 576 261 685 261 q 425 324 486 261 q 364 482 364 386 q 413 648 364 565 q 547 788 461 731 q 314 704 401 788 q 226 489 226 621 l 228 453 q 226 447 228 449 q 222 443 224 444 q 208 488 208 443 q 303 719 208 633 q 560 806 397 806 l 578 806 m 525 71 q 215 303 363 303 q 122 274 157 303 q 88 199 88 244 q 156 83 88 132 q 335 33 224 33 q 525 71 431 33 z "},"R":{"ha":1274,"x_min":18,"x_max":1215,"o":"m 460 115 q 606 304 522 164 q 703 468 654 386 q 836 656 782 593 q 999 790 911 742 q 806 847 931 847 q 631 817 715 847 q 481 732 547 788 q 358 578 401 665 q 315 397 315 490 q 350 237 315 307 q 460 115 385 167 m 479 99 q 692 29 568 43 q 735 14 735 25 q 715 -1 735 1 q 640 -4 696 -4 q 321 24 454 -4 q 257 8 281 14 q 160 -3 204 -3 q 56 15 94 -3 q 18 61 18 33 q 76 99 18 99 q 191 77 110 99 q 318 44 272 56 q 374 63 347 51 q 431 92 388 68 q 239 397 239 196 q 436 736 239 596 q 846 869 622 869 q 1049 824 961 869 q 1143 861 1124 861 q 1150 853 1150 856 q 1129 836 1150 844 q 1071 810 1090 821 q 1153 671 1153 753 q 1111 558 1153 606 q 992 471 1078 519 q 854 375 890 413 q 803 247 803 322 q 860 96 803 158 q 1006 33 917 33 q 1117 75 1075 33 q 1158 183 1158 117 q 1128 278 1158 240 q 1049 315 1097 315 q 969 282 1003 315 q 938 249 953 265 l 929 256 q 969 308 929 276 q 1076 349 1019 349 q 1175 310 1135 349 q 1215 211 1215 271 q 1134 62 1215 128 q 947 -4 1053 -4 q 794 55 854 -4 q 733 203 733 114 q 832 390 733 315 q 967 476 851 404 q 1039 550 1011 504 q 1067 647 1067 596 q 1013 779 1067 733 q 879 657 946 742 q 744 454 829 594 q 665 324 704 389 q 581 201 618 249 q 479 99 535 144 m 453 81 q 404 53 428 65 q 357 35 381 42 q 536 17 429 17 l 622 24 q 453 81 532 40 z "},"S":{"ha":1043,"x_min":67,"x_max":1356,"o":"m 828 460 q 974 544 903 488 q 932 593 950 574 q 886 635 908 618 l 828 460 m 894 656 q 944 603 917 635 q 983 557 971 572 q 1014 585 993 565 q 1047 618 1035 604 l 1042 663 q 1058 721 1042 696 q 1092 746 1074 746 q 1118 717 1118 746 q 1096 663 1118 696 q 1061 611 1074 629 q 1167 538 1094 538 q 1255 577 1218 538 q 1292 676 1292 617 q 1244 795 1292 749 q 1124 842 1196 842 q 988 794 1047 842 q 894 656 928 746 m 746 438 q 780 584 763 526 q 826 685 797 642 q 649 785 740 751 q 468 819 557 819 q 328 777 378 819 q 279 663 279 735 q 379 499 279 572 q 628 426 479 426 q 746 438 676 426 m 738 400 q 575 376 643 376 q 346 449 435 376 q 257 635 257 521 q 324 796 257 732 q 494 860 390 860 q 660 819 575 860 q 838 700 746 778 q 983 817 896 775 q 1161 860 1069 860 q 1302 815 1249 860 q 1356 699 1356 769 q 1305 570 1356 621 q 1176 519 1254 519 q 1050 596 1089 519 l 996 540 q 1068 424 1068 446 q 1060 417 1068 417 q 1046 432 1056 417 q 983 528 1007 496 q 921 482 943 497 q 818 428 867 446 q 638 104 754 214 q 358 -6 521 -6 q 147 71 228 -6 q 67 271 67 147 q 103 418 67 357 q 178 479 139 479 q 208 466 194 479 q 221 435 221 453 q 205 399 221 414 q 165 385 189 385 q 138 390 153 385 q 118 394 122 394 q 103 376 111 394 q 96 332 96 357 q 194 117 96 208 q 418 26 292 26 q 624 122 542 26 q 738 400 707 218 z "},"T":{"ha":947,"x_min":114,"x_max":1353,"o":"m 325 686 q 425 824 351 771 q 592 876 499 876 q 717 858 642 876 q 867 821 792 839 q 1036 785 964 796 q 1154 775 1108 775 q 1278 814 1206 775 q 1328 833 1314 833 q 1353 813 1353 833 q 1316 772 1353 788 q 1204 757 1279 757 q 1086 650 1143 717 q 987 510 1040 596 q 882 339 933 424 q 659 82 778 169 q 421 -6 540 -6 q 197 76 281 -6 q 114 301 114 158 q 137 423 114 379 q 200 467 160 467 q 242 426 242 467 q 198 371 242 378 q 149 361 154 364 q 131 311 131 350 q 158 211 131 263 q 233 119 185 160 q 458 40 332 40 q 703 140 594 40 q 907 418 789 219 q 1062 652 1013 592 q 1168 754 1111 713 q 1100 742 1133 747 q 1022 738 1067 738 q 778 771 947 738 q 514 804 608 804 q 404 774 449 804 q 344 690 360 744 q 494 708 438 708 q 714 645 628 708 q 800 493 800 582 q 731 342 800 411 q 567 272 661 272 q 385 358 460 272 q 310 572 310 444 q 321 667 310 614 q 231 636 269 654 q 167 601 199 618 q 160 604 163 601 q 158 610 158 607 q 325 686 158 640 m 338 671 l 332 611 q 417 410 332 496 q 621 324 501 324 q 728 357 689 324 q 767 449 767 390 q 667 611 767 542 q 424 681 567 681 q 385 678 407 681 q 338 671 363 675 z "},"U":{"ha":1092,"x_min":156,"x_max":1294,"o":"m 392 325 q 542 504 467 414 q 646 642 618 594 q 683 754 683 706 q 651 828 683 800 q 563 856 619 856 q 374 785 472 856 q 263 653 303 732 q 222 490 222 575 q 392 325 222 325 m 850 268 q 1138 578 1018 411 q 1275 824 1275 774 q 1257 847 1275 847 q 1085 694 1204 847 q 946 484 1008 597 q 850 268 883 371 m 750 192 q 805 368 758 268 q 939 583 851 468 q 1260 860 1149 860 q 1285 847 1275 860 q 1294 813 1294 835 q 1185 590 1294 736 q 842 231 1063 428 q 825 114 825 154 q 840 44 825 69 q 879 19 854 19 q 1031 103 951 19 q 1068 142 1057 129 q 1097 169 1093 169 l 1103 164 q 1057 106 1103 151 q 956 22 1003 50 q 861 -6 908 -6 q 749 157 749 -6 l 749 167 q 407 -8 499 -8 q 301 107 301 -8 q 374 306 301 203 q 212 358 268 306 q 156 503 156 410 q 197 649 156 578 q 319 779 238 719 q 567 871 443 871 q 670 831 628 871 q 713 729 713 792 q 657 542 713 640 q 497 325 608 456 q 617 361 565 338 q 696 406 656 383 l 704 396 q 483 306 704 344 q 391 171 424 236 q 358 67 358 106 q 415 11 358 11 q 542 56 461 11 q 750 192 622 100 z "},"V":{"ha":1249,"x_min":135,"x_max":1474,"o":"m 308 543 l 307 494 q 383 308 307 386 q 551 231 460 231 q 649 269 611 231 q 688 361 688 307 q 615 506 688 440 q 440 571 543 571 q 308 543 383 571 m 257 536 q 401 772 286 678 q 649 865 515 865 q 863 778 782 865 q 943 540 943 690 q 813 200 943 349 q 482 25 682 51 l 536 24 q 1269 603 1096 24 q 1244 685 1253 650 q 1235 750 1235 721 q 1250 831 1235 801 q 1290 860 1265 860 q 1338 757 1338 860 q 1331 677 1338 725 q 1313 578 1324 629 q 1400 475 1326 517 q 1447 457 1421 464 q 1474 443 1474 450 q 1458 432 1474 432 q 1386 457 1429 432 q 1301 539 1332 489 q 980 129 1192 264 q 440 -6 768 -6 q 238 14 307 -6 q 169 71 169 33 q 213 106 169 106 q 311 75 231 106 q 460 44 392 44 q 746 172 626 44 q 865 485 865 300 q 792 734 865 642 q 603 826 718 826 q 407 753 492 826 q 310 568 322 681 q 469 603 388 603 q 648 547 582 603 q 714 400 714 492 q 649 247 714 306 q 486 189 585 189 q 311 261 381 189 q 242 444 242 333 q 244 478 242 460 q 247 508 246 497 q 161 421 207 474 q 142 404 147 404 l 135 411 q 151 439 135 417 q 257 536 193 496 z "},"W":{"ha":1303,"x_min":150,"x_max":1619,"o":"m 1290 446 q 1186 540 1224 479 q 1149 679 1149 601 q 1190 815 1149 761 q 1286 869 1231 869 q 1369 825 1339 869 q 1399 696 1399 781 q 1342 456 1399 603 q 1403 446 1371 446 q 1572 532 1503 446 q 1601 575 1588 551 q 1613 589 1610 589 l 1619 585 q 1610 564 1614 572 q 1581 519 1597 540 q 1390 426 1504 426 q 1368 427 1381 426 q 1332 432 1356 428 q 1094 106 1235 226 q 856 -6 967 -6 q 743 57 785 -6 q 701 222 701 119 q 874 658 701 415 q 621 403 732 517 q 375 146 489 268 q 231 -24 292 -24 q 213 4 213 -24 q 254 64 213 26 q 311 115 282 89 q 394 226 367 165 q 433 356 414 268 q 472 532 453 443 q 563 693 500 624 q 718 824 664 804 q 331 696 478 824 q 192 394 192 575 q 200 318 192 353 q 219 257 210 288 l 214 251 q 181 318 206 251 q 150 467 150 399 q 297 738 150 638 q 729 842 450 842 l 747 842 q 771 836 771 842 q 732 819 771 833 q 664 765 693 806 q 602 642 636 731 q 535 464 568 554 q 431 236 485 336 q 667 499 550 381 q 922 731 792 625 q 1018 835 978 800 q 1086 869 1058 869 q 1111 850 1111 869 q 1053 782 1111 821 q 932 703 994 743 q 886 647 908 686 q 846 556 869 618 q 801 416 818 485 q 785 269 785 347 q 819 94 785 156 q 911 33 853 33 q 1103 138 999 33 q 1290 446 1222 257 m 1299 474 q 1336 692 1336 578 q 1313 797 1336 754 q 1256 840 1289 840 q 1203 804 1225 840 q 1181 715 1181 768 q 1213 577 1181 644 q 1299 474 1244 510 z "},"X":{"ha":1164,"x_min":81,"x_max":1378,"o":"m 692 221 q 771 315 739 268 q 825 418 803 363 q 738 405 753 407 q 699 403 724 403 q 689 349 693 378 q 685 296 685 319 q 692 221 685 267 m 315 379 q 479 408 393 397 q 660 418 565 418 q 844 664 711 547 q 773 772 831 731 q 638 814 715 814 q 413 699 506 814 q 315 393 315 578 l 315 379 m 653 400 q 476 389 560 400 q 315 358 392 378 q 326 251 326 261 q 325 244 326 247 q 321 240 324 242 q 308 279 315 240 l 299 354 q 125 201 125 311 q 183 90 125 135 q 339 44 242 44 q 625 160 499 44 q 618 200 621 182 q 615 233 615 218 q 653 400 615 308 m 863 443 q 1213 583 1076 474 q 1333 785 1333 681 q 1257 842 1333 842 q 1095 806 1182 842 q 910 696 1008 771 l 914 644 q 863 443 914 551 m 696 197 q 776 74 718 121 q 907 28 835 28 q 1031 78 975 28 q 1110 214 1088 129 q 1123 290 1118 243 q 1135 336 1128 336 q 1142 318 1142 336 q 1128 203 1142 251 q 1082 108 1115 154 q 978 19 1039 53 q 853 -14 917 -14 q 716 26 774 -14 q 635 142 658 67 q 288 -11 458 -11 q 137 37 193 -11 q 81 160 81 85 q 135 290 81 233 q 297 375 190 346 l 297 394 q 413 730 297 600 q 692 860 529 860 q 828 821 771 860 q 901 718 885 782 q 1264 858 1089 858 q 1348 830 1318 858 q 1378 750 1378 801 q 1243 553 1378 642 q 853 422 1100 458 q 783 299 814 344 q 696 197 744 239 m 704 422 q 744 424 726 422 q 832 438 761 426 q 851 507 844 474 q 857 569 857 540 q 853 611 857 588 q 847 644 849 635 q 704 422 743 540 z "},"Y":{"ha":1122,"x_min":63,"x_max":1442,"o":"m 869 174 q 1188 699 1032 506 q 1399 869 1325 869 q 1442 819 1442 869 q 1314 563 1442 728 q 915 185 1164 369 q 648 -147 794 -33 q 349 -260 501 -260 q 139 -187 215 -260 q 63 15 63 -115 q 88 158 63 103 q 151 213 114 213 q 192 171 192 213 q 133 101 192 126 q 94 85 99 88 q 81 44 81 74 q 97 -23 81 13 q 149 -96 113 -58 q 414 -208 249 -208 q 650 -127 550 -208 q 847 135 750 -46 q 578 1 661 1 q 463 160 463 1 q 490 288 463 225 q 622 488 517 350 q 713 607 694 582 q 778 744 778 697 q 685 839 778 839 q 576 813 639 839 q 457 739 514 786 q 301 390 301 607 q 314 274 301 328 q 343 183 328 228 q 336 176 339 176 q 307 243 325 176 q 285 410 285 324 q 401 751 285 613 q 646 878 507 878 q 793 733 793 878 q 751 579 793 667 q 644 390 726 526 q 578 271 596 306 q 529 106 529 174 q 590 24 529 24 q 702 60 632 24 q 869 174 772 97 m 935 221 q 1104 375 1017 282 q 1281 585 1181 457 q 1390 737 1354 679 q 1425 822 1425 794 q 1403 850 1425 850 q 935 221 1257 850 z "},"Z":{"ha":931,"x_min":35,"x_max":1382,"o":"m 1000 686 q 1310 865 1192 865 q 1371 806 1371 865 q 1292 691 1371 740 q 1082 642 1213 642 l 993 646 q 731 354 826 453 q 503 150 604 224 q 296 43 393 69 q 444 7 361 38 q 618 -67 497 -12 q 806 -149 774 -135 q 979 -210 907 -190 q 1124 -231 1051 -231 q 1336 -156 1253 -231 q 1363 -126 1346 -147 q 1378 -114 1372 -114 l 1382 -118 q 1339 -175 1382 -133 q 1039 -304 1199 -304 q 893 -272 969 -304 q 741 -190 835 -247 q 557 -79 647 -133 q 281 26 378 26 l 275 26 q 151 3 194 11 q 82 -4 108 -4 q 35 25 35 -4 q 121 61 35 61 q 175 58 142 61 q 247 50 208 54 q 431 124 326 50 q 664 333 522 189 q 964 654 740 411 q 726 769 928 665 q 607 807 654 807 q 483 728 535 807 q 432 531 432 650 l 438 456 q 489 311 489 374 q 461 275 489 275 q 419 446 419 275 q 326 510 378 488 q 249 540 288 525 q 257 547 254 547 q 329 529 285 547 q 419 472 374 511 l 418 526 q 506 785 418 679 q 679 881 585 881 q 860 786 742 881 q 1000 686 946 717 m 1025 676 q 1103 663 1076 663 q 1288 715 1215 663 q 1351 817 1351 761 q 1303 853 1351 853 q 1025 676 1203 853 z "},"[":{"ha":393,"x_min":-56,"x_max":715,"o":"m 692 872 q 715 860 715 872 q 706 852 711 856 q 692 849 701 849 l 561 849 l -1 -57 l 135 -57 q 157 -68 157 -57 q 133 -81 157 -81 l -26 -81 q -56 -67 -56 -81 q -33 -24 -56 -56 l 493 838 q 521 866 507 860 q 561 872 535 872 l 692 872 z "},"\\":{"ha":360,"x_min":197,"x_max":296,"o":"m 253 668 l 296 -108 l 285 -112 l 197 668 l 253 668 z "},"]":{"ha":393,"x_min":-197,"x_max":575,"o":"m -174 -81 q -197 -69 -197 -81 q -174 -57 -197 -57 l -43 -57 l 519 849 l 383 849 q 363 860 363 849 q 383 872 363 872 l 546 872 q 575 858 575 872 q 553 814 575 851 l 25 -46 q -3 -74 11 -68 q -43 -81 -17 -81 l -174 -81 z "},"^":{"ha":1215,"x_min":244,"x_max":968,"o":"m 561 864 l 651 864 l 968 531 l 918 531 l 606 804 l 292 531 l 244 531 l 561 864 z "},"_":{"ha":607,"x_min":0,"x_max":607,"o":"m 0 -239 l 607 -239 l 607 -286 l 0 -286 l 0 -239 z "},"`":{"ha":607,"x_min":310,"x_max":440,"o":"m 440 364 l 431 356 q 360 416 410 356 q 310 518 310 476 q 349 568 310 568 q 383 525 383 568 l 383 490 q 411 404 383 444 q 440 364 425 383 z "},"a":{"ha":479,"x_min":-10,"x_max":489,"o":"m 325 258 l 375 332 l 456 336 l 322 126 q 296 85 308 106 q 276 33 276 51 q 296 14 276 14 q 426 117 328 14 q 464 157 438 128 q 482 172 478 172 l 489 167 q 435 101 489 157 q 347 20 382 46 q 282 -6 313 -6 q 232 54 232 -6 l 238 100 q 85 -6 153 -6 q 33 27 53 -6 q 14 118 14 60 q 24 174 14 146 q -3 150 8 150 l -10 156 q 48 223 -10 165 q 164 311 106 281 q 267 342 222 342 q 313 326 296 342 q 331 286 331 310 q 325 258 331 274 m 65 53 q 94 15 65 15 q 208 92 136 15 q 285 199 258 149 q 311 286 311 250 q 300 313 311 301 q 271 324 289 324 q 138 225 208 324 q 85 129 104 178 q 65 53 65 81 z "},"b":{"ha":411,"x_min":-8,"x_max":450,"o":"m 450 739 l 149 228 q 50 35 50 63 q 86 13 50 13 q 199 64 146 13 q 274 215 258 122 q 285 307 279 261 q 322 342 292 342 q 357 292 357 342 q 340 209 357 253 q 281 110 322 165 l 301 107 q 400 160 347 107 l 417 176 q 425 182 418 179 q 431 174 431 176 l 429 168 l 415 153 q 292 89 360 89 l 264 92 q 170 19 219 44 q 76 -6 121 -6 q 6 71 6 -6 q 26 149 6 99 q 53 208 42 186 l 24 175 q 7 156 13 161 q -3 150 1 150 l -8 156 q 85 274 28 197 q 211 464 150 361 l 367 728 l 450 739 z "},"c":{"ha":342,"x_min":-10,"x_max":353,"o":"m 24 174 q -3 151 7 151 l -10 156 q 39 215 -10 165 q 258 342 157 342 q 317 325 296 342 q 338 278 338 308 q 325 238 338 253 q 293 222 313 222 q 257 254 257 222 q 282 286 257 269 q 294 304 294 294 q 268 324 294 324 q 150 243 218 324 q 76 68 76 156 q 126 11 76 11 q 276 100 185 11 q 325 153 301 125 q 346 172 342 172 q 351 169 349 172 q 353 165 351 167 q 292 93 353 157 q 119 -6 193 -6 q 46 31 75 -6 q 17 125 17 68 q 24 174 17 143 z "},"d":{"ha":479,"x_min":-10,"x_max":674,"o":"m 325 258 l 596 736 l 674 739 l 343 165 q 283 33 283 63 q 303 17 283 17 q 435 125 331 17 q 482 172 479 172 l 489 167 q 435 101 489 157 q 347 20 382 46 q 282 -6 313 -6 q 232 54 232 -6 l 238 100 q 85 -6 153 -6 q 33 27 53 -6 q 14 118 14 60 q 24 174 14 146 q -3 150 8 150 l -10 156 q 48 223 -10 165 q 164 311 106 281 q 267 342 222 342 q 313 326 296 342 q 331 286 331 310 q 325 258 331 274 m 65 53 q 94 15 65 15 q 208 92 136 15 q 285 199 258 149 q 311 286 311 250 q 300 313 311 301 q 271 324 289 324 q 138 225 208 324 q 85 129 104 178 q 65 53 65 81 z "},"e":{"ha":342,"x_min":-8,"x_max":353,"o":"m 24 175 q -3 151 7 151 l -8 156 q 39 215 -8 167 q 261 342 156 342 q 328 286 328 342 q 263 190 328 238 q 83 117 197 143 l 78 68 q 126 13 78 13 q 194 34 160 13 q 276 100 229 56 q 325 153 301 125 q 346 172 342 172 q 351 169 349 172 q 353 165 351 167 q 292 93 353 157 q 121 -6 193 -6 q 46 31 75 -6 q 17 125 17 67 q 24 175 17 144 m 90 136 q 236 211 176 154 q 288 303 288 260 q 267 326 288 326 q 181 278 231 326 q 90 136 122 221 z "},"f":{"ha":267,"x_min":-208,"x_max":575,"o":"m 224 344 q 472 564 381 450 q 547 706 547 657 q 515 740 547 740 q 224 344 418 740 m 61 17 l 67 17 q 200 99 118 17 q 251 153 224 122 q 272 172 269 172 l 279 165 q 193 68 279 149 q 50 -12 107 -12 l 44 -12 l -122 -346 l -208 -356 l -15 0 q -35 33 -35 15 q -24 62 -35 50 q 3 74 -12 74 l 22 68 l 146 299 q 58 214 97 256 q -4 150 0 150 l -8 156 q 38 217 -8 165 q 182 361 89 274 q 518 757 389 757 q 558 740 542 757 q 575 700 575 724 q 203 306 575 574 l 61 17 z "},"g":{"ha":449,"x_min":-139,"x_max":460,"o":"m 325 258 l 375 332 l 450 336 q 257 -3 335 151 q 375 90 325 42 q 453 172 414 131 l 460 165 q 239 -31 460 106 q 65 -292 147 -203 q -76 -382 -17 -382 q -139 -322 -139 -382 q 186 -24 -139 -211 l 247 110 q 85 -6 149 -6 q 33 27 53 -6 q 14 118 14 60 q 24 174 14 146 q -3 150 8 150 l -10 156 q 48 223 -10 165 q 164 311 106 281 q 267 342 222 342 q 313 326 296 342 q 331 286 331 310 q 325 258 331 274 m 65 53 q 94 15 65 15 q 208 92 136 15 q 285 199 258 149 q 311 286 311 250 q 300 313 311 301 q 271 324 289 324 q 138 225 208 324 q 85 129 104 178 q 65 53 65 81 m 172 -49 q -106 -324 -106 -210 q -71 -365 -106 -365 q 172 -49 15 -365 z "},"h":{"ha":458,"x_min":-51,"x_max":469,"o":"m -51 -1 l 124 278 l 26 174 q 8 156 17 163 q -1 150 6 153 l -8 156 q 97 275 35 200 q 229 464 167 357 l 385 728 l 464 739 l 121 156 q 343 343 292 343 q 376 326 364 343 q 389 283 389 310 q 357 194 389 242 q 314 136 328 157 q 271 73 285 97 q 257 33 257 49 q 276 13 257 13 q 408 115 310 13 q 464 172 463 172 l 469 165 q 411 96 469 154 q 276 -6 311 -6 q 218 81 218 -6 q 239 150 218 113 q 296 229 256 179 q 332 274 315 253 q 349 308 349 296 q 335 324 349 324 q 24 7 272 324 l -51 -1 z "},"i":{"ha":267,"x_min":-8,"x_max":340,"o":"m 257 526 q 273 563 257 546 q 307 581 289 581 q 340 546 340 581 q 326 509 340 526 q 292 492 311 492 q 267 501 276 492 q 257 526 257 511 m 108 265 q 43 197 83 242 q -4 151 3 151 l -8 156 q 146 331 -8 169 l 233 336 l 113 147 q 69 76 82 100 q 53 33 53 46 q 74 11 53 11 q 131 37 97 11 q 217 117 164 63 q 246 150 239 142 q 272 172 265 172 l 279 165 q 224 99 279 157 q 75 -6 119 -6 q 10 71 10 -6 q 51 176 10 108 q 108 265 72 211 z "},"j":{"ha":244,"x_min":-340,"x_max":300,"o":"m 218 526 q 233 563 218 546 q 267 581 247 581 q 300 546 300 581 q 285 509 300 526 q 251 492 271 492 q 218 526 218 492 m -31 -49 q -308 -324 -308 -210 q -274 -365 -308 -365 q -31 -49 -187 -365 m 131 290 q 36 186 96 254 q -3 150 4 150 l -8 156 q 19 194 -8 163 l 139 331 l 225 336 q 53 -3 138 153 q 171 93 117 42 q 249 172 210 132 l 257 167 q 204 100 257 153 q 38 -31 136 32 q -136 -292 -54 -203 q -278 -382 -218 -382 q -340 -322 -340 -382 q -15 -24 -340 -211 l 131 290 z "},"k":{"ha":469,"x_min":-51,"x_max":481,"o":"m 22 7 l -51 -1 l 124 278 l 26 174 q 8 156 17 163 q -1 150 6 153 l -8 156 q 97 275 35 200 q 229 464 167 357 l 385 728 l 463 739 l 22 7 m 228 183 q 196 170 210 175 q 169 165 182 165 q 144 186 144 165 q 185 211 144 211 q 222 201 203 211 q 272 234 249 206 q 307 276 296 263 q 410 343 365 343 q 457 300 457 343 q 421 260 457 260 q 388 293 401 260 q 372 310 381 310 q 335 261 365 310 q 247 192 300 206 q 296 118 296 160 q 285 67 296 97 q 274 28 274 36 q 290 13 274 13 q 338 40 304 13 q 428 125 372 67 q 474 172 472 172 l 481 165 q 422 96 481 154 q 283 -6 325 -6 q 233 22 256 -6 q 211 86 211 49 q 222 143 211 110 q 229 168 229 164 l 228 183 z "},"l":{"ha":267,"x_min":-8,"x_max":482,"o":"m 107 265 q 31 181 78 236 q -3 150 4 150 l -8 156 q 19 194 -8 163 l 58 238 q 121 306 114 299 q 164 358 146 335 l 403 728 l 482 739 l 108 147 q 65 76 78 100 q 49 33 49 46 q 71 11 49 11 q 133 39 97 11 q 217 117 158 58 q 254 157 228 128 q 272 172 268 172 l 279 165 q 224 99 279 157 q 75 -6 119 -6 q 10 71 10 -6 q 50 176 10 110 q 107 265 65 203 z "},"m":{"ha":740,"x_min":-8,"x_max":751,"o":"m 15 -1 l 175 235 q 204 279 194 263 q 214 307 214 296 q 197 324 214 324 q 143 295 178 324 q 54 210 108 267 q 13 160 33 185 q -3 150 3 150 l -8 156 q 19 194 -8 163 l 58 238 q 201 343 157 343 q 249 286 249 343 q 200 156 249 232 q 411 343 351 343 q 447 328 433 343 q 460 292 460 314 q 410 157 460 231 q 624 343 572 343 q 657 326 644 343 q 669 283 669 310 q 638 194 669 242 q 594 136 608 157 q 551 73 565 97 q 538 33 538 49 q 557 13 538 13 q 689 115 590 13 q 744 172 743 172 l 751 165 q 692 96 751 156 q 557 -6 592 -6 q 499 81 499 -6 q 519 150 499 113 q 576 229 536 179 q 613 274 596 253 q 629 308 629 296 q 615 324 629 324 q 314 7 558 324 l 228 -1 l 386 235 q 424 308 424 288 q 407 324 424 324 q 342 288 382 324 q 243 179 310 258 q 101 7 203 132 l 15 -1 z "},"n":{"ha":538,"x_min":-8,"x_max":550,"o":"m 17 -1 l 175 235 q 203 277 193 260 q 214 307 214 294 q 197 324 214 324 q 143 295 178 324 q 54 210 108 267 q 13 160 33 185 q -3 150 3 150 l -8 156 q 19 194 -8 163 l 58 238 q 201 343 157 343 q 249 286 249 343 q 200 156 249 232 q 421 342 367 342 q 468 283 468 342 q 446 211 468 249 q 392 136 443 206 q 351 74 365 99 q 336 33 336 49 q 356 13 336 13 q 488 115 389 13 q 543 172 542 172 l 550 165 q 490 96 550 158 q 354 -6 390 -6 q 313 18 329 -6 q 296 81 296 42 q 317 150 296 114 q 374 229 331 175 q 406 267 389 247 q 428 308 428 294 q 414 322 428 322 q 101 7 351 322 l 17 -1 z "},"o":{"ha":403,"x_min":-8,"x_max":422,"o":"m 272 110 l 292 107 q 341 119 315 107 q 392 160 367 131 l 408 178 l 418 182 q 422 174 422 176 l 421 168 l 408 153 q 285 89 356 89 q 257 92 267 89 q 96 -6 168 -6 q 14 119 14 -6 q 17 144 14 131 q 24 175 19 158 q -3 151 7 151 l -8 156 q 42 218 -8 164 q 155 311 99 279 q 256 343 211 343 q 316 320 293 343 q 339 257 339 297 q 272 110 339 193 m 68 57 q 106 14 68 14 q 156 32 126 14 q 219 86 186 50 q 306 263 306 176 q 260 324 306 324 q 136 225 206 324 q 85 131 103 178 q 68 57 68 85 z "},"p":{"ha":458,"x_min":-231,"x_max":469,"o":"m -151 -311 l -231 -319 l 124 278 l 26 174 q 8 156 17 163 q -1 150 6 153 l -8 156 q 100 276 35 201 q 238 461 174 361 l 307 571 l 381 578 l 121 156 q 343 343 292 343 q 376 326 364 343 q 389 283 389 310 q 357 194 389 242 q 314 136 328 157 q 271 73 285 97 q 257 33 257 49 q 276 13 257 13 q 408 115 310 13 q 464 172 463 172 l 469 165 q 411 96 469 154 q 276 -6 311 -6 q 218 81 218 -6 q 239 150 218 113 q 296 229 256 179 q 332 274 315 253 q 349 308 349 296 q 335 324 349 324 q 171 185 293 324 q 8 -40 81 83 l -151 -311 z "},"q":{"ha":440,"x_min":-14,"x_max":454,"o":"m 325 254 l 375 333 l 440 336 l 154 -171 l 274 -24 l 351 67 q 449 172 442 172 l 454 168 q 285 -37 389 89 q 61 -339 167 -181 l -14 -343 l 238 101 q 85 -4 153 -4 q 14 118 14 -4 q 17 144 14 131 q 24 174 19 158 q -3 151 7 151 l -10 156 q 42 217 -10 165 q 160 312 101 281 q 267 343 219 343 q 329 286 329 343 l 325 254 m 65 53 q 94 15 65 15 q 208 92 136 15 q 285 199 258 149 q 311 286 311 250 q 300 313 311 301 q 271 324 289 324 q 138 225 208 324 q 85 129 104 178 q 65 53 65 81 z "},"r":{"ha":401,"x_min":-8,"x_max":422,"o":"m 17 0 l 175 235 q 204 279 194 263 q 214 307 214 296 q 197 324 214 324 q 143 295 178 324 q 54 210 108 267 q 13 160 33 185 q -3 150 3 150 l -8 156 q 19 194 -8 163 l 58 238 q 201 343 157 343 q 249 290 249 343 q 240 233 249 261 q 190 140 231 206 q 253 200 250 197 q 296 238 264 211 q 338 319 318 294 q 394 343 358 343 q 422 324 422 343 q 335 238 422 304 q 299 201 308 218 q 285 147 285 179 q 315 115 285 115 q 375 144 344 115 q 407 174 406 174 l 414 167 q 380 126 414 154 q 317 99 346 99 q 267 146 267 99 q 282 204 267 165 q 200 125 244 174 q 101 8 156 76 l 17 0 z "},"s":{"ha":265,"x_min":-37,"x_max":276,"o":"m 150 313 q 42 193 106 268 q -4 150 4 150 l -10 156 q 149 335 -10 164 q 199 386 168 386 q 222 363 222 386 q 197 333 222 344 q 177 324 188 329 q 167 289 167 318 q 178 218 167 265 q 189 146 189 171 q 174 74 189 108 q 229 132 204 104 q 269 172 265 172 q 275 169 272 172 q 276 165 275 167 q 229 108 276 156 q 136 25 174 50 q 44 -6 89 -6 q -15 11 7 -6 q -37 57 -37 28 q -26 85 -37 74 q 0 96 -15 96 q 25 72 25 96 q 18 48 25 65 q 11 26 11 31 q 29 14 11 14 q 106 79 67 14 q 151 267 151 157 l 150 313 z "},"t":{"ha":267,"x_min":-8,"x_max":442,"o":"m 108 265 q 43 197 83 242 q -4 151 3 151 l -8 156 q 82 261 -8 167 q 164 358 138 319 l 217 438 l 158 438 l 168 454 l 228 454 l 301 571 l 381 578 l 303 454 l 442 454 l 432 438 l 292 438 l 111 147 q 53 33 53 60 q 74 11 53 11 q 131 36 99 11 q 216 117 163 61 q 272 172 269 172 l 279 165 q 224 99 279 157 q 75 -6 119 -6 q 10 71 10 -6 q 51 176 10 108 q 108 265 72 211 z "},"u":{"ha":471,"x_min":-10,"x_max":482,"o":"m 303 106 q 276 61 285 76 q 268 33 268 46 q 288 13 268 13 q 419 115 319 13 q 457 157 436 132 q 475 172 469 172 l 482 167 q 435 108 482 156 q 286 -6 326 -6 q 244 17 260 -6 q 229 76 229 39 q 235 111 229 89 q 75 -6 132 -6 q 27 15 46 -6 q 8 71 8 36 q 50 176 8 108 q 107 265 78 222 q 29 182 71 229 q -4 151 3 151 l -10 156 q 144 331 -10 168 l 232 335 l 111 147 q 53 33 53 53 q 72 13 53 13 q 367 331 175 13 l 449 335 l 303 106 z "},"v":{"ha":492,"x_min":-8,"x_max":511,"o":"m 363 110 l 382 107 q 481 160 432 107 l 497 178 l 508 182 q 511 174 511 176 l 510 168 l 497 153 q 372 89 442 89 l 344 92 q 163 -4 243 -4 q 115 18 132 -4 q 99 78 99 40 q 128 167 99 121 q 164 217 129 169 q 213 310 213 282 q 197 324 213 324 q 143 296 178 324 q 56 209 108 268 q -3 150 3 150 l -8 156 q 19 194 -8 163 l 58 238 q 119 300 103 285 q 204 343 167 343 q 257 279 257 343 q 247 226 257 250 q 210 165 236 203 q 169 104 189 135 q 140 42 140 58 q 171 13 140 13 q 285 64 222 13 q 382 206 356 122 q 393 285 388 226 q 432 343 399 343 q 465 303 465 343 q 442 226 465 274 q 363 110 414 172 z "},"w":{"ha":625,"x_min":-8,"x_max":644,"o":"m 235 111 q 75 -6 132 -6 q 27 15 46 -6 q 8 71 8 36 q 49 175 8 110 q 106 261 64 199 q 43 196 72 231 q -3 150 4 150 l -8 156 q 19 194 -8 163 l 58 238 q 97 278 83 263 q 149 331 136 318 l 232 335 l 111 147 q 53 33 53 53 q 72 13 53 13 q 367 331 175 13 l 449 335 l 313 122 q 274 42 274 63 q 304 13 274 13 q 417 64 354 13 q 513 206 486 122 q 528 301 514 208 q 565 343 535 343 q 597 303 597 343 q 572 224 597 274 q 493 110 547 174 l 515 107 q 614 160 564 107 l 629 178 l 639 182 q 644 174 644 176 l 643 168 l 629 153 q 506 89 574 89 l 478 92 q 296 -4 374 -4 q 249 18 267 -4 q 231 78 231 40 l 235 111 z "},"x":{"ha":406,"x_min":-58,"x_max":460,"o":"m -3 -6 q -43 7 -28 -6 q -58 38 -58 19 q -22 76 -58 76 q 8 49 3 76 q 25 21 14 21 q 75 47 39 21 q 151 128 119 79 q 195 218 178 167 q 213 300 213 269 q 194 324 213 324 q 141 294 176 324 q 54 208 106 264 q 17 165 49 203 q -3 150 3 150 l -8 156 q 19 194 -8 163 l 58 238 q 200 343 157 343 q 260 242 260 343 l 258 221 q 338 314 303 285 q 407 343 372 343 q 460 299 460 343 q 450 276 460 285 q 426 268 440 268 q 396 291 406 268 q 375 314 386 314 q 257 190 335 314 q 218 105 232 149 q 204 36 204 61 q 225 13 204 13 q 357 115 258 13 q 394 157 374 132 q 411 172 407 172 l 419 165 q 361 96 419 154 q 222 -6 264 -6 q 176 24 196 -6 q 156 101 156 53 q -3 -6 56 -6 z "},"y":{"ha":518,"x_min":-67,"x_max":531,"o":"m 353 161 q 150 4 217 4 q 114 24 129 4 q 99 75 99 43 q 118 150 99 114 q 164 217 125 164 q 213 307 213 282 q 194 324 213 324 q 141 294 176 324 q 54 208 106 264 q 17 165 49 203 q -3 150 3 150 l -8 156 q 19 194 -8 163 l 58 238 q 119 300 103 285 q 204 343 167 343 q 257 279 257 343 q 236 208 257 246 q 207 164 231 197 q 140 44 140 61 q 146 28 140 35 q 160 21 151 21 q 267 94 192 21 q 447 332 361 186 l 521 336 q 328 -3 408 153 q 446 90 396 42 q 525 172 485 131 l 531 165 q 311 -31 531 104 q 135 -294 221 -200 q -4 -382 54 -382 q -67 -322 -67 -382 q 257 -24 -67 -211 l 353 161 m 244 -49 q 35 -203 108 -126 q -33 -324 -33 -272 q 1 -365 -33 -365 q 244 -49 83 -365 z "},"z":{"ha":401,"x_min":-44,"x_max":413,"o":"m 13 69 q 250 261 133 174 q 208 251 229 256 q 171 247 188 247 q 104 271 129 247 l 26 176 l 7 156 q 2 150 6 153 q -3 147 -1 147 l -8 151 l -7 161 l 6 178 q 50 231 26 203 q 94 289 74 260 l 89 310 q 129 347 89 347 q 161 321 161 347 q 158 305 161 314 q 151 286 154 296 q 190 265 151 265 q 278 288 242 265 q 344 338 311 313 q 363 324 363 338 q 340 294 363 307 q 306 275 325 286 q 94 111 189 192 q 150 136 136 131 q 196 147 178 147 q 229 135 215 147 q 243 103 243 122 q 231 58 243 86 q 218 25 218 31 q 226 13 218 13 q 340 104 246 13 q 385 154 350 114 q 406 172 400 172 l 413 165 q 354 97 413 156 q 215 -6 254 -6 q 165 61 165 -6 q 172 97 165 74 q 175 114 175 107 q 167 118 169 118 q 115 106 149 118 q 50 69 81 93 q 4 21 31 54 q -29 -4 -15 -4 q -44 11 -44 -4 q 13 69 -44 38 z "},"{":{"ha":607,"x_min":104,"x_max":500,"o":"m 500 896 l 500 868 q 376 835 407 868 q 344 711 344 803 l 344 625 q 314 451 344 499 q 165 375 278 394 q 313 300 276 356 q 344 126 344 251 l 344 39 q 375 -85 344 -53 q 500 -118 406 -118 l 500 -144 l 494 -144 q 320 -101 367 -144 q 274 61 274 -57 l 274 192 q 240 319 274 283 q 104 360 203 360 l 104 392 q 240 435 206 401 q 274 560 274 469 l 274 690 q 320 851 274 806 q 494 896 367 896 l 500 896 z "},"|":{"ha":607,"x_min":276,"x_max":331,"o":"m 276 925 l 331 925 l 331 -286 l 276 -286 l 276 925 z "},"}":{"ha":607,"x_min":106,"x_max":503,"o":"m 106 896 l 111 896 q 288 851 240 896 q 335 690 335 807 l 335 560 q 368 435 335 468 q 503 392 401 401 l 503 360 q 369 322 404 360 q 335 192 335 285 l 335 61 q 287 -99 335 -54 q 111 -144 239 -144 l 106 -144 l 106 -118 q 231 -85 200 -118 q 263 39 263 -53 l 263 126 q 293 299 263 251 q 442 375 329 356 q 297 448 331 394 q 263 625 263 501 l 263 711 q 231 835 263 801 q 106 868 199 868 l 106 896 z "},"~":{"ha":1013,"x_min":106,"x_max":907,"o":"m 907 438 l 907 382 q 678 296 785 296 q 589 308 635 296 q 507 336 564 315 q 422 365 436 361 q 335 378 378 378 q 228 355 283 378 q 106 285 174 332 l 106 339 q 335 425 229 425 q 424 413 378 425 q 508 384 442 408 q 590 356 575 360 q 678 343 635 343 q 907 438 774 343 z "},"":{"ha":247,"x_min":-43,"x_max":136,"o":"m 136 49 q 76 -57 136 7 q -32 -144 -7 -144 q -43 -136 -43 -144 q 13 -81 -14 -108 q 49 -29 40 -54 q 63 53 57 22 q 100 85 69 85 q 136 49 136 85 z "},"":{"ha":393,"x_min":-306,"x_max":657,"o":"m 203 210 q -232 -257 -37 -257 q -306 -204 -306 -257 q -271 -169 -306 -169 q -239 -196 -244 -169 q -235 -224 -237 -208 q -214 -239 -233 -239 q -94 -174 -156 -239 q 36 18 -44 -121 q 207 329 99 125 l 97 329 l 97 347 l 217 347 q 583 690 419 690 q 657 639 657 690 q 622 604 657 604 q 590 625 593 604 q 585 663 586 646 q 565 672 582 672 q 274 347 454 672 l 396 347 l 396 329 l 265 329 l 203 210 z "},"":{"ha":385,"x_min":-26,"x_max":289,"o":"m 151 49 q 92 -57 151 7 q -15 -144 8 -144 q -26 -136 -26 -144 q 28 -81 1 -108 q 64 -29 56 -54 q 78 53 72 22 q 115 85 85 85 q 151 49 151 85 m 289 49 q 229 -57 289 7 q 121 -144 146 -144 q 111 -136 111 -144 q 167 -81 140 -108 q 203 -29 194 -54 q 217 53 211 22 q 254 85 224 85 q 289 49 289 85 z "},"":{"ha":1215,"x_min":140,"x_max":1033,"o":"m 140 29 q 155 67 140 50 q 189 85 169 85 q 214 75 204 85 q 224 50 224 65 q 209 12 224 29 q 175 -6 194 -6 q 150 4 160 -6 q 140 29 140 14 m 544 29 q 559 67 544 50 q 594 85 574 85 q 628 50 628 85 q 613 12 628 29 q 579 -6 599 -6 q 554 4 564 -6 q 544 29 544 14 m 950 29 q 965 67 950 49 q 1000 85 981 85 q 1033 50 1033 85 q 1019 12 1033 29 q 985 -6 1004 -6 q 960 4 969 -6 q 950 29 950 14 z "},"":{"ha":681,"x_min":111,"x_max":763,"o":"m 536 635 l 528 550 q 346 250 454 433 q 132 -115 243 78 l 111 -108 q 251 153 168 -4 q 365 374 335 311 q 449 556 418 481 l 517 635 q 408 608 460 617 q 336 600 357 600 q 294 632 294 600 q 360 667 294 667 q 425 662 385 667 q 525 649 465 657 q 578 790 544 696 q 644 883 611 883 q 673 874 661 883 q 685 853 685 865 q 644 776 685 828 q 547 650 557 663 q 644 663 599 657 q 717 668 690 668 q 753 662 743 668 q 763 635 763 656 q 710 600 763 600 q 642 607 682 600 q 536 635 601 614 z "},"":{"ha":681,"x_min":24,"x_max":763,"o":"m 269 133 q 367 156 314 146 q 449 167 419 167 q 490 136 490 167 q 425 99 490 99 q 342 106 389 99 q 260 118 296 113 q 207 -23 240 71 q 140 -117 174 -117 q 113 -107 125 -117 q 100 -86 100 -97 q 160 15 100 -60 q 238 118 213 82 q 143 105 189 111 q 68 99 97 99 q 24 132 24 99 q 75 167 24 167 q 144 160 103 167 q 249 133 186 153 q 313 282 281 207 q 351 399 340 350 q 443 517 403 458 q 517 635 479 568 q 408 608 460 617 q 336 600 357 600 q 294 632 294 600 q 360 667 294 667 q 425 662 385 667 q 525 649 465 657 q 578 790 544 696 q 644 883 611 883 q 673 874 661 883 q 685 853 685 865 q 644 776 685 828 q 547 650 557 663 q 644 663 599 657 q 717 668 690 668 q 753 662 743 668 q 763 635 763 656 q 710 600 763 600 q 642 607 682 600 q 536 635 601 614 q 475 489 493 532 q 435 371 444 414 q 358 272 403 340 q 269 133 314 203 z "},"":{"ha":607,"x_min":217,"x_max":522,"o":"m 444 471 l 303 396 q 232 365 244 365 q 217 376 217 365 q 236 397 217 385 q 297 436 271 419 q 393 501 344 465 q 463 550 458 550 q 479 536 475 550 l 519 392 l 522 376 q 513 364 522 364 q 444 471 497 364 z "},"":{"ha":983,"x_min":6,"x_max":943,"o":"m 585 513 q 463 475 514 475 q 367 506 400 475 q 301 352 356 415 q 193 289 246 289 q 138 314 160 289 q 115 379 115 339 q 178 519 115 453 q 304 586 240 586 q 365 549 344 586 q 401 507 382 519 q 461 494 419 494 q 565 524 513 494 q 665 588 615 556 q 674 583 669 588 q 642 540 674 571 l 82 -29 q 56 -56 69 -42 q 22 -71 42 -71 q 11 -69 15 -71 q 6 -62 7 -67 q 15 -44 6 -56 q 44 -15 33 -26 l 585 513 m 306 564 q 225 507 269 564 q 172 422 190 463 q 153 353 153 381 q 192 308 153 308 q 292 378 239 308 q 346 514 346 449 q 306 564 346 564 m 639 219 q 580 69 639 143 q 463 -6 521 -6 q 406 19 428 -6 q 385 83 385 43 q 447 224 385 157 q 575 290 510 290 q 639 219 639 290 m 576 269 q 496 211 544 269 q 442 128 461 169 q 424 60 424 86 q 463 14 424 14 q 564 85 511 14 q 617 221 617 156 q 576 269 617 269 m 881 269 q 799 211 847 269 q 747 128 765 172 q 728 60 728 85 q 767 14 728 14 q 868 85 814 14 q 922 221 922 156 q 881 269 922 269 m 943 219 q 884 69 943 143 q 767 -6 825 -6 q 712 19 733 -6 q 690 83 690 43 q 751 224 690 157 q 878 290 813 290 q 943 219 943 290 z "},"":{"ha":1043,"x_min":67,"x_max":1440,"o":"m 828 460 q 974 544 903 488 q 932 593 950 574 q 886 635 908 618 l 828 460 m 894 656 q 944 603 917 635 q 983 557 971 572 q 1014 585 993 565 q 1047 618 1035 604 l 1042 663 q 1058 721 1042 696 q 1092 746 1074 746 q 1118 717 1118 746 q 1096 663 1118 696 q 1061 611 1074 629 q 1167 538 1094 538 q 1255 577 1218 538 q 1292 676 1292 617 q 1244 795 1292 749 q 1124 842 1196 842 q 988 794 1047 842 q 894 656 928 746 m 746 438 q 780 584 763 526 q 826 685 797 642 q 649 785 740 751 q 468 819 557 819 q 328 777 378 819 q 279 663 279 735 q 379 499 279 572 q 628 426 479 426 q 746 438 676 426 m 738 400 q 575 376 643 376 q 346 449 435 376 q 257 635 257 521 q 324 796 257 732 q 494 860 390 860 q 660 819 575 860 q 838 700 746 778 q 983 817 896 775 q 1161 860 1069 860 q 1302 815 1249 860 q 1356 699 1356 769 q 1305 570 1356 621 q 1176 519 1254 519 q 1050 596 1089 519 l 996 540 q 1068 424 1068 446 q 1060 417 1068 417 q 1046 432 1056 417 q 983 528 1007 496 q 921 482 943 497 q 818 428 867 446 q 638 104 754 214 q 358 -6 521 -6 q 147 71 228 -6 q 67 271 67 147 q 103 418 67 357 q 178 479 139 479 q 208 466 194 479 q 221 435 221 453 q 205 399 221 414 q 165 385 189 385 q 138 390 153 385 q 118 394 122 394 q 103 376 111 394 q 96 332 96 357 q 194 117 96 208 q 418 26 292 26 q 624 122 542 26 q 738 400 707 218 m 1214 1078 l 1354 1153 q 1425 1182 1411 1182 q 1440 1172 1440 1182 q 1361 1111 1440 1163 q 1224 1015 1297 1071 q 1194 997 1200 997 q 1179 1013 1185 997 l 1139 1156 l 1136 1171 q 1144 1185 1136 1185 q 1214 1078 1160 1185 z "},"":{"ha":258,"x_min":71,"x_max":269,"o":"m 71 183 l 239 307 q 257 315 251 315 q 269 306 269 315 q 257 286 269 299 l 125 175 l 165 49 l 169 33 q 160 21 169 21 q 140 39 149 21 l 71 183 z "},"":{"ha":1086,"x_min":43,"x_max":1303,"o":"m 914 497 q 857 596 857 538 q 974 794 857 707 q 1174 869 1078 869 q 1269 837 1235 869 q 1303 747 1303 804 q 1248 620 1303 675 q 1126 565 1193 565 q 1069 585 1090 565 q 1047 642 1047 606 q 1099 739 1047 692 q 1169 779 1143 779 q 1176 775 1172 779 q 1105 710 1136 747 q 1074 632 1074 674 q 1128 579 1074 579 q 1233 631 1182 579 q 1285 747 1285 682 q 1257 824 1285 796 q 1181 851 1229 851 q 1000 749 1090 851 q 935 649 957 700 q 914 560 914 599 q 947 506 914 506 l 975 506 q 1043 483 1043 506 q 1006 465 1043 465 q 960 473 985 465 q 935 481 936 481 q 877 468 914 481 q 803 433 840 456 q 692 315 733 389 q 650 163 650 240 q 688 54 650 94 q 789 14 725 14 q 983 108 886 14 q 1072 281 1072 194 q 1053 340 1072 318 q 1000 363 1033 363 q 913 321 961 363 q 818 197 857 274 q 792 122 803 165 q 775 78 781 78 q 771 85 772 81 q 769 99 769 89 q 836 302 769 217 q 983 388 903 388 q 1062 359 1032 388 q 1092 283 1092 331 q 1010 110 1092 203 q 769 -6 906 -6 q 620 45 676 -6 q 564 178 564 96 l 564 193 q 228 -6 388 -6 q 94 55 144 -6 q 43 219 43 115 q 103 441 43 322 q 275 667 163 560 q 481 815 375 764 q 674 867 588 867 q 789 831 747 867 q 831 729 831 794 q 817 686 831 686 q 810 699 810 693 l 814 731 q 779 818 814 786 q 681 850 744 850 q 513 801 601 850 q 342 660 424 753 q 176 399 236 540 q 115 156 115 257 q 148 52 115 90 q 236 14 181 14 q 381 58 300 14 q 544 193 469 107 q 688 418 633 294 q 736 613 736 531 q 711 706 736 672 q 646 740 686 740 q 497 660 581 740 q 353 446 407 574 q 322 353 335 406 q 308 322 315 322 q 304 340 304 333 q 321 439 304 379 q 374 565 338 499 q 496 711 424 657 q 632 765 568 765 q 720 726 688 765 q 753 615 753 686 q 697 401 753 517 q 789 456 733 432 q 914 497 844 481 z "},"":{"ha":247,"x_min":239,"x_max":419,"o":"m 239 690 q 299 794 239 733 q 407 883 383 883 q 419 875 419 883 q 362 821 389 847 q 326 768 335 794 q 315 694 319 717 q 276 654 307 654 q 239 690 239 654 z "},"":{"ha":247,"x_min":81,"x_max":260,"o":"m 260 579 q 200 475 260 536 q 92 386 115 386 q 81 396 81 386 q 137 447 110 421 q 172 501 164 474 q 187 584 181 553 q 224 615 193 615 q 260 579 260 615 z "},"":{"ha":385,"x_min":239,"x_max":557,"o":"m 239 690 q 299 794 239 733 q 407 883 383 883 q 419 875 419 883 q 362 821 389 847 q 326 768 335 794 q 315 694 319 717 q 276 654 307 654 q 239 690 239 654 m 378 690 q 438 794 378 733 q 546 883 522 883 q 557 875 557 883 q 499 821 526 847 q 464 768 472 794 q 451 694 456 717 q 413 654 443 654 q 378 690 378 654 z "},"":{"ha":385,"x_min":214,"x_max":531,"o":"m 393 847 q 335 742 393 807 q 226 654 249 654 q 214 663 214 654 q 269 714 243 689 q 306 768 296 739 q 320 851 314 819 q 357 882 326 882 q 393 847 393 882 m 531 847 q 471 742 531 806 q 363 654 388 654 q 353 663 353 654 q 408 714 382 689 q 444 768 435 739 q 459 851 453 819 q 496 882 465 882 q 531 847 531 882 z "},"":{"ha":717,"x_min":182,"x_max":533,"o":"m 182 450 q 233 574 182 522 q 358 625 285 625 q 482 575 431 625 q 533 450 533 525 q 482 326 533 378 q 357 275 431 275 q 233 326 283 275 q 182 450 182 376 z "},"":{"ha":607,"x_min":10,"x_max":617,"o":"m 617 196 l 592 156 l 10 156 l 33 196 l 617 196 z "},"":{"ha":1215,"x_min":-12,"x_max":1226,"o":"m 1226 196 l 1203 156 l -12 156 l 13 196 l 1226 196 z "},"":{"ha":607,"x_min":235,"x_max":568,"o":"m 335 503 q 410 480 358 503 q 481 457 461 457 q 529 486 507 457 q 557 515 551 515 q 568 507 568 515 q 542 444 568 481 q 469 400 508 400 q 393 423 444 400 q 322 446 342 446 q 274 417 296 446 q 246 388 251 388 q 235 396 235 388 q 263 458 235 421 q 335 503 296 503 z "},"":{"ha":999,"x_min":150,"x_max":851,"o":"m 157 846 l 415 846 l 421 743 l 408 743 q 324 832 399 832 l 310 832 l 310 581 q 339 549 310 549 l 357 549 l 357 533 l 214 533 l 214 549 l 233 549 q 263 581 263 549 l 263 832 l 249 832 q 164 743 172 832 l 150 743 l 157 846 m 475 846 l 576 846 l 663 601 l 756 846 l 851 846 l 851 832 l 833 832 q 804 799 804 832 l 804 581 q 833 549 804 549 l 851 549 l 851 533 l 717 533 l 717 549 l 735 549 q 764 581 764 549 l 764 821 l 654 531 l 649 531 l 546 819 l 546 581 q 575 549 546 549 l 593 549 l 593 533 l 475 533 l 475 547 l 493 547 q 522 581 522 547 l 522 797 q 493 832 522 832 l 475 832 l 475 846 z "},"":{"ha":265,"x_min":-37,"x_max":472,"o":"m 149 335 q 199 386 168 386 q 222 363 222 386 q 200 334 222 344 q 175 321 178 324 q 167 289 167 313 q 178 218 167 265 q 189 146 189 171 q 174 74 189 108 q 229 132 204 104 q 269 172 265 172 l 276 165 q 229 108 276 156 q 136 25 172 50 q 44 -6 90 -6 q -15 11 7 -6 q -37 57 -37 28 q -26 85 -37 74 q 0 96 -15 96 q 25 72 25 96 q 17 49 25 67 q 10 26 10 32 q 29 14 10 14 q 104 79 67 14 q 150 268 150 158 l 150 313 q 42 193 106 268 q -4 150 4 150 l -10 154 q 149 335 -10 164 m 386 588 q 421 604 404 597 q 457 617 449 617 q 472 606 472 617 q 442 578 472 596 q 392 547 418 564 q 296 481 350 521 q 226 433 232 433 q 210 446 214 433 l 169 590 l 167 606 q 176 618 167 618 q 204 592 189 618 q 244 513 226 547 l 386 588 z "},"":{"ha":258,"x_min":-14,"x_max":186,"o":"m 186 154 l 17 29 q -1 21 6 21 q -14 32 -14 21 q 0 50 -14 36 l 131 161 l 92 288 l 88 303 q 97 315 88 315 q 117 297 107 315 l 186 154 z "},"":{"ha":583,"x_min":-10,"x_max":596,"o":"m 265 104 q 94 -6 169 -6 q 14 118 14 -6 q 24 175 14 147 q -3 151 6 151 l -10 156 q 35 211 -10 163 q 148 308 89 274 q 251 343 207 343 q 335 264 326 343 q 506 342 424 342 q 553 326 536 342 q 571 286 571 310 q 507 190 571 236 q 329 117 443 143 l 324 68 q 372 13 324 13 q 439 34 404 13 q 518 100 474 56 q 567 153 539 121 q 589 172 583 172 q 594 169 592 172 q 596 165 594 167 q 535 93 596 157 q 364 -6 436 -6 q 265 104 285 -6 m 335 136 q 481 211 422 156 q 532 303 532 260 q 510 326 532 326 q 425 278 475 326 q 335 136 367 221 m 65 56 q 103 13 65 13 q 218 86 149 13 q 280 177 258 131 q 301 261 301 224 q 257 322 301 322 q 135 224 204 322 q 83 131 100 176 q 65 56 65 85 z "},"":{"ha":1122,"x_min":63,"x_max":1442,"o":"m 869 174 q 1188 699 1032 506 q 1399 869 1325 869 q 1442 819 1442 869 q 1314 563 1442 728 q 915 185 1164 369 q 648 -147 794 -33 q 349 -260 501 -260 q 139 -187 215 -260 q 63 15 63 -115 q 88 158 63 103 q 151 213 114 213 q 192 171 192 213 q 133 101 192 126 q 94 85 99 88 q 81 44 81 74 q 97 -23 81 13 q 149 -96 113 -58 q 414 -208 249 -208 q 650 -127 550 -208 q 847 135 750 -46 q 578 1 661 1 q 463 160 463 1 q 490 288 463 225 q 622 488 517 350 q 713 607 694 582 q 778 744 778 697 q 685 839 778 839 q 576 813 639 839 q 457 739 514 786 q 301 390 301 607 q 314 274 301 328 q 343 183 328 228 q 336 176 339 176 q 307 243 325 176 q 285 410 285 324 q 401 751 285 613 q 646 878 507 878 q 793 733 793 878 q 751 579 793 667 q 644 390 726 526 q 578 271 596 306 q 529 106 529 174 q 590 24 529 24 q 702 60 632 24 q 869 174 772 97 m 935 221 q 1104 375 1017 282 q 1281 585 1181 457 q 1390 737 1354 679 q 1425 822 1425 794 q 1403 850 1425 850 q 935 221 1257 850 m 996 965 q 1040 1010 996 1010 q 1074 975 1074 1010 q 1062 942 1074 954 q 1031 931 1050 931 q 996 965 996 931 m 824 965 q 836 997 824 985 q 867 1010 849 1010 q 901 975 901 1010 q 857 931 901 931 q 824 965 824 931 z "},"":{"ha":607,"x_min":0,"x_max":0,"o":""},"":{"ha":321,"x_min":13,"x_max":438,"o":"m 117 4 l 13 -4 l 315 442 q 346 472 335 472 q 357 461 357 472 q 343 428 357 451 l 117 4 m 438 564 q 422 527 438 544 q 388 510 406 510 q 363 519 372 510 q 353 544 353 529 q 367 581 353 564 q 401 599 382 599 q 426 589 415 599 q 438 564 438 579 z "},"":{"ha":494,"x_min":57,"x_max":376,"o":"m 139 24 q 167 17 156 17 q 244 43 204 17 q 319 103 282 72 l 324 99 q 246 28 324 71 q 157 0 196 0 l 128 4 l 81 -75 l 64 -64 l 111 14 q 57 126 57 51 q 136 275 57 204 q 311 346 215 346 l 354 418 l 371 408 l 331 342 q 376 279 376 326 q 365 244 376 258 q 336 231 354 231 q 311 254 311 231 q 322 286 311 269 q 333 310 333 303 q 322 326 333 318 l 139 24 m 125 36 l 300 329 q 172 228 226 306 q 117 71 117 150 q 125 36 117 51 z "},"":{"ha":653,"x_min":-53,"x_max":690,"o":"m 189 38 q 43 -4 121 -4 q -26 11 1 -4 q -53 50 -53 26 q 24 99 -53 99 q 103 91 63 99 q 189 71 143 83 q 259 152 224 97 q 329 283 294 207 l 203 283 l 203 301 l 340 301 q 472 517 407 447 q 611 588 538 588 q 669 565 647 588 q 690 506 690 542 q 683 463 690 481 q 668 444 676 444 q 663 453 663 450 q 670 471 667 460 q 674 503 674 482 q 657 550 674 532 q 615 568 640 568 q 414 301 526 568 l 554 301 l 554 283 l 406 283 q 222 61 325 125 q 374 28 311 28 q 467 58 424 28 q 547 125 507 92 l 551 121 q 543 108 546 113 q 518 81 532 92 q 353 -6 421 -6 q 189 38 307 -6 m 160 50 q 85 73 117 65 q 21 81 54 81 q -33 51 -33 81 q -12 24 -33 35 q 46 13 8 13 q 160 50 108 13 z "},"":{"ha":736,"x_min":56,"x_max":682,"o":"m 90 833 l 213 711 q 368 767 282 767 q 525 711 456 767 l 646 833 l 682 799 l 558 678 q 614 522 614 610 q 558 368 614 436 l 682 247 l 646 211 l 525 333 q 368 279 456 279 q 213 333 282 279 l 90 211 l 56 247 l 179 368 q 124 522 124 436 q 179 678 124 610 l 56 799 l 90 833 m 369 719 q 229 663 286 719 q 172 524 172 606 q 230 385 172 443 q 369 328 288 328 q 510 385 453 328 q 567 524 567 442 q 510 663 567 606 q 369 719 453 719 z "},"":{"ha":494,"x_min":33,"x_max":651,"o":"m 72 0 l 228 244 l 33 244 l 54 278 l 249 278 l 235 353 l 101 353 l 125 388 l 226 388 l 182 568 l 236 568 l 296 314 l 600 568 l 651 568 l 436 388 l 549 388 l 528 353 l 394 353 l 301 278 l 479 278 l 457 244 l 281 244 l 124 0 l 72 0 z "},"":{"ha":607,"x_min":276,"x_max":331,"o":"m 276 846 l 331 846 l 331 399 l 276 399 l 276 846 m 276 240 l 331 240 l 331 -207 l 276 -207 l 276 240 z "},"":{"ha":607,"x_min":7,"x_max":725,"o":"m 357 179 q 379 94 379 128 q 312 -37 379 18 q 147 -92 244 -92 q 49 -74 90 -92 q 7 -33 7 -56 q 14 -12 7 -21 q 35 -4 21 -4 q 115 -39 76 -24 q 192 -54 153 -54 q 291 -23 253 -54 q 329 53 329 8 q 322 94 329 69 q 296 157 314 118 l 236 286 q 199 422 199 361 q 248 551 199 500 q 383 613 297 601 q 371 646 375 633 q 363 697 363 672 q 429 826 363 771 q 583 882 496 882 q 685 865 644 882 q 725 826 725 847 q 701 800 725 800 q 623 831 661 817 q 547 844 585 844 q 448 816 483 844 q 413 735 413 788 q 425 675 413 707 q 443 635 431 660 l 504 504 q 540 369 540 428 q 492 241 540 292 q 357 179 444 190 m 347 196 q 460 239 418 204 q 501 329 501 274 q 479 408 501 364 l 392 596 q 278 550 319 586 q 238 461 238 514 q 243 426 238 444 q 260 385 244 422 l 347 196 z "},"":{"ha":607,"x_min":258,"x_max":544,"o":"m 456 446 q 471 482 456 467 q 507 497 486 497 q 544 457 544 497 q 531 421 544 436 q 494 406 517 406 q 456 446 456 406 m 258 446 q 273 483 258 468 q 308 497 288 497 q 347 457 347 497 q 333 421 347 436 q 297 406 319 406 q 258 446 258 406 z "},"":{"ha":999,"x_min":90,"x_max":908,"o":"m 500 810 q 789 690 665 810 q 876 558 844 635 q 908 400 908 482 q 790 115 908 236 q 499 -7 671 -7 q 211 113 332 -7 q 90 400 90 232 q 208 689 90 568 q 342 778 267 746 q 500 810 418 810 m 500 767 q 361 739 428 767 q 243 660 294 711 q 136 400 136 550 q 243 142 136 249 q 499 35 350 35 q 756 142 653 35 q 864 400 864 253 q 836 543 864 475 q 757 663 808 611 q 500 767 650 767 m 664 646 l 682 646 l 682 465 l 660 465 q 490 626 622 626 q 338 404 338 626 q 501 178 338 178 q 672 279 606 178 l 690 268 q 490 146 622 146 q 325 217 393 146 q 257 392 257 288 q 324 576 257 501 q 489 650 392 650 q 556 637 522 650 q 625 610 590 624 q 664 646 657 610 z "},"":{"ha":360,"x_min":-7,"x_max":367,"o":"m 244 825 l 282 876 l 342 879 l 242 732 q 208 667 208 685 q 221 653 208 653 q 319 725 246 653 q 341 747 324 729 q 363 764 358 764 l 367 761 q 325 713 367 750 q 278 671 290 681 q 211 640 239 640 q 174 682 174 640 l 179 714 q 64 640 115 640 q 25 663 39 640 q 11 726 11 685 l 17 765 q -3 749 6 749 l -7 753 q 3 767 -1 761 q 35 800 14 779 q 122 861 79 840 q 199 882 165 882 q 247 843 247 882 l 244 825 m 50 682 q 72 654 50 654 q 156 708 103 654 q 233 843 233 788 q 203 869 233 869 q 103 801 157 869 q 63 735 76 767 q 50 682 50 703 z "},"":{"ha":374,"x_min":71,"x_max":383,"o":"m 71 183 l 239 307 q 257 315 251 315 q 269 306 269 315 q 257 286 269 299 l 125 175 l 165 49 l 169 33 q 160 21 169 21 q 140 39 149 21 l 71 183 m 186 183 l 354 307 q 372 315 367 315 q 383 306 383 315 q 372 286 383 297 l 239 175 l 281 49 l 285 33 q 274 21 285 21 q 256 39 264 21 l 186 183 z "},"":{"ha":1013,"x_min":150,"x_max":861,"o":"m 150 506 l 861 506 l 861 210 l 814 210 l 814 458 l 150 458 l 150 506 z "},"":{"ha":1013,"x_min":150,"x_max":861,"o":"m 150 385 l 861 385 l 861 338 l 150 338 l 150 385 z "},"":{"ha":999,"x_min":90,"x_max":908,"o":"m 500 810 q 789 690 665 810 q 876 558 844 635 q 908 400 908 482 q 790 115 908 236 q 499 -7 671 -7 q 211 113 332 -7 q 90 400 90 232 q 208 689 90 568 q 342 778 267 746 q 500 810 418 810 m 500 767 q 361 739 428 767 q 243 660 294 711 q 136 400 136 550 q 243 142 136 249 q 499 35 350 35 q 756 142 653 35 q 864 400 864 253 q 836 543 864 475 q 757 663 808 611 q 500 767 650 767 m 278 643 l 510 643 q 648 612 599 643 q 697 526 697 581 q 656 453 697 481 q 525 408 615 425 q 608 363 581 390 q 650 282 636 335 q 665 210 657 246 q 690 194 672 194 q 738 271 738 194 l 760 271 q 671 163 760 163 q 596 203 611 163 q 588 286 589 221 q 581 329 585 317 q 449 404 556 404 l 425 403 l 425 257 q 444 210 425 224 q 507 196 463 196 l 507 174 l 278 174 l 278 196 q 342 209 324 196 q 360 257 360 222 l 360 560 q 341 607 360 593 q 278 621 322 621 l 278 643 m 425 424 l 465 422 q 621 526 621 422 q 588 598 621 571 q 492 625 554 625 q 425 579 425 625 l 425 424 z "},"":{"ha":607,"x_min":254,"x_max":550,"o":"m 271 428 q 254 439 254 428 l 261 469 q 281 483 265 483 l 533 483 q 550 469 550 483 l 543 440 q 524 428 539 428 l 271 428 z "},"":{"ha":400,"x_min":38,"x_max":363,"o":"m 200 857 q 315 809 267 857 q 363 694 363 761 q 315 581 363 628 q 199 533 268 533 q 85 581 132 533 q 38 694 38 628 q 85 810 38 763 q 200 857 132 857 m 200 821 q 110 784 147 821 q 74 694 74 747 q 110 605 74 642 q 200 568 147 568 q 290 604 254 568 q 326 694 326 640 q 290 785 326 749 q 200 821 254 821 z "},"":{"ha":1013,"x_min":150,"x_max":861,"o":"m 482 686 l 529 686 l 529 476 l 861 476 l 861 429 l 529 429 l 529 221 l 482 221 l 482 429 l 150 429 l 150 476 l 482 476 l 482 686 m 150 83 l 861 83 l 861 36 l 150 36 l 150 83 z "},"":{"ha":326,"x_min":-4,"x_max":329,"o":"m 43 289 q 115 319 83 319 q 148 311 135 319 q 164 288 161 303 q 169 264 167 272 q 182 256 171 256 q 244 299 206 256 q 267 322 258 314 q 276 332 269 325 l 279 325 q 253 291 279 317 q 218 258 228 265 q 156 232 186 232 q 113 257 122 232 q 109 288 110 278 q 93 297 108 297 q 35 268 68 297 q 14 244 24 257 q 1 231 4 231 q -4 236 -4 231 q 21 285 -4 256 q 111 358 51 321 q 189 407 150 382 q 235 442 219 426 q 273 490 260 465 q 286 531 286 515 q 235 574 286 574 q 147 543 185 574 q 110 475 110 513 q 116 456 110 467 q 135 446 122 446 q 221 511 181 446 q 233 536 224 517 q 243 547 239 547 q 249 536 249 540 q 217 463 249 499 q 142 428 185 428 q 96 472 96 428 q 141 551 96 515 q 246 586 186 586 q 329 514 329 586 q 211 388 329 442 q 114 344 163 365 q 43 289 65 319 z "},"":{"ha":326,"x_min":19,"x_max":336,"o":"m 196 417 l 201 417 q 267 358 267 417 q 257 316 267 336 q 225 278 247 296 q 101 231 169 231 q 42 249 64 231 q 19 294 19 267 q 54 336 19 336 q 81 311 81 336 q 56 285 81 294 q 43 275 43 281 q 56 256 43 264 q 92 247 69 247 q 189 304 143 247 q 228 374 228 347 q 194 404 228 404 q 161 396 181 404 q 139 388 142 388 q 134 389 136 388 q 131 392 132 390 q 160 412 131 399 q 206 435 189 425 q 296 538 296 488 q 247 571 296 571 q 176 547 210 571 q 142 497 142 522 q 167 475 142 475 q 201 487 181 475 q 235 518 221 499 q 244 537 240 525 q 254 549 249 549 l 257 543 q 229 482 257 508 q 169 456 201 456 q 129 493 129 456 q 169 556 129 528 q 263 585 208 585 q 316 569 296 585 q 336 529 336 553 q 196 417 336 460 z "},"":{"ha":607,"x_min":333,"x_max":543,"o":"m 343 358 q 333 367 333 358 q 381 404 333 368 q 432 458 410 425 q 464 526 436 464 q 507 564 481 564 q 543 528 543 564 q 431 400 543 465 q 343 358 363 358 z "},"":{"ha":624,"x_min":-29,"x_max":626,"o":"m 96 113 q 57 -194 76 -40 q 13 -246 44 -246 q -29 -210 -29 -246 q -3 -74 -29 -183 q 64 215 44 119 l 129 522 l 199 522 l 133 217 l 129 164 q 156 74 129 107 q 228 40 182 40 q 393 239 347 40 l 460 522 l 529 522 l 460 211 q 444 107 444 135 q 489 51 444 51 q 567 111 543 51 q 586 163 572 125 q 611 200 600 200 q 626 182 626 200 q 619 136 626 165 q 596 78 611 107 q 469 -8 547 -8 q 385 94 385 -8 l 386 114 q 226 -12 336 -12 q 96 113 113 -12 z "},"":{"ha":607,"x_min":53,"x_max":553,"o":"m 553 874 l 553 836 l 476 836 l 476 0 l 435 0 l 435 836 l 321 836 l 321 0 l 279 0 l 279 463 q 115 520 176 463 q 53 668 53 578 q 117 817 53 760 q 288 874 181 874 l 553 874 z "},"":{"ha":247,"x_min":117,"x_max":206,"o":"m 117 289 q 161 333 117 333 q 192 321 178 333 q 206 289 206 308 q 193 258 206 271 q 161 246 181 246 q 129 258 142 246 q 117 289 117 271 z "},"":{"ha":607,"x_min":43,"x_max":326,"o":"m 168 -71 q 238 -53 199 -53 q 326 -128 326 -53 q 292 -198 326 -171 q 201 -225 258 -225 q 93 -205 143 -225 q 43 -174 43 -185 q 53 -168 50 -168 q 126 -187 89 -179 q 197 -196 163 -196 q 253 -178 231 -196 q 276 -136 276 -160 q 211 -89 276 -89 l 175 -94 l 168 -71 z "},"":{"ha":250,"x_min":39,"x_max":296,"o":"m 43 233 l 251 535 q 43 379 67 379 l 39 383 q 69 408 39 388 q 160 475 122 446 q 236 542 188 499 q 289 585 285 585 l 296 581 q 294 571 294 575 q 286 556 293 567 l 110 240 l 43 233 z "},"":{"ha":303,"x_min":-6,"x_max":317,"o":"m 204 721 l 218 719 q 294 756 258 719 l 306 768 l 314 771 l 317 765 l 315 761 l 306 750 q 214 707 268 707 l 192 708 q 72 640 128 640 q 11 728 11 640 q 18 765 11 744 q -3 749 4 749 l -6 753 q 3 764 0 760 q 32 796 17 781 q 192 885 119 885 q 238 868 221 885 q 254 822 254 851 q 204 721 254 779 m 51 683 q 79 653 51 653 q 165 704 114 653 q 229 828 229 768 q 196 869 229 869 q 101 801 156 869 q 63 736 75 765 q 51 683 51 707 z "},"":{"ha":374,"x_min":-14,"x_max":301,"o":"m 186 154 l 17 29 q -1 21 6 21 q -14 32 -14 21 q 0 50 -14 36 l 131 161 l 92 288 l 88 303 q 97 315 88 315 q 117 297 107 315 l 186 154 m 301 154 l 132 29 q 114 21 121 21 q 101 32 101 21 q 115 50 101 36 l 247 161 l 207 288 l 203 303 q 213 315 203 315 q 232 297 222 315 l 301 154 z "},"":{"ha":746,"x_min":32,"x_max":733,"o":"m 42 257 l 239 538 q 40 392 64 392 l 36 397 q 82 429 53 408 q 151 483 106 444 q 256 569 189 513 q 276 585 274 585 l 282 581 l 275 558 l 104 264 l 42 257 m 649 586 l 64 -15 l 32 -15 l 617 586 l 649 586 m 536 -4 l 586 64 q 548 68 572 65 q 521 71 524 71 q 490 66 503 71 q 467 57 478 61 q 462 58 464 57 q 458 61 460 60 q 533 161 489 97 q 631 317 583 232 l 697 322 q 585 182 644 251 q 492 81 536 125 l 519 85 q 552 83 533 85 q 596 76 571 81 q 729 238 715 238 l 733 232 q 696 169 714 200 q 644 76 668 124 q 678 87 664 79 q 708 104 693 94 l 713 99 q 706 90 708 93 q 683 74 696 81 q 638 61 663 61 q 606 3 624 47 l 536 -4 z "},"":{"ha":753,"x_min":32,"x_max":757,"o":"m 42 257 l 239 538 q 40 392 64 392 l 36 397 q 82 429 53 408 q 151 483 106 444 q 256 569 189 513 q 276 585 274 585 l 282 581 l 275 558 l 104 264 l 42 257 m 649 586 l 64 -15 l 32 -15 l 617 586 l 649 586 m 485 51 q 553 81 521 81 q 599 51 592 81 q 603 31 600 40 q 617 21 606 21 q 675 61 639 21 q 697 83 683 69 q 706 92 700 86 l 710 86 q 685 54 710 79 q 639 14 654 24 q 590 -1 615 -1 q 550 22 560 -1 q 547 51 547 42 q 532 60 546 60 q 476 32 507 60 q 455 9 464 22 q 443 -4 446 -4 q 438 3 438 0 q 463 47 438 18 q 547 117 493 83 q 608 153 589 142 q 667 195 646 175 q 702 239 689 215 q 715 278 715 263 q 702 307 715 296 q 665 318 689 318 q 583 289 619 318 q 547 225 547 260 q 571 200 547 200 q 653 258 613 200 q 667 286 664 281 q 674 292 669 292 q 679 283 679 286 q 649 217 679 250 q 578 183 618 183 q 533 222 533 183 q 576 295 533 261 q 676 329 619 329 q 735 310 714 329 q 757 263 757 292 q 644 144 757 194 q 551 104 597 124 q 485 51 506 82 z "},"":{"ha":818,"x_min":18,"x_max":806,"o":"m 188 428 l 193 428 q 256 372 256 428 q 215 297 256 333 q 158 265 192 278 q 97 253 124 253 q 40 269 61 253 q 18 314 18 286 q 28 342 18 331 q 53 353 38 353 q 76 329 76 353 q 58 307 76 314 q 40 294 40 300 q 53 277 40 285 q 86 269 67 269 q 181 322 136 269 q 208 358 199 342 q 217 389 217 375 q 186 417 217 417 q 153 408 171 417 q 131 400 135 400 l 125 406 q 154 424 125 411 q 196 444 172 431 q 282 540 282 493 q 238 571 282 571 q 169 549 201 571 q 136 503 136 528 q 160 482 136 482 q 192 493 174 482 q 225 522 211 504 q 233 539 229 528 q 242 550 238 550 l 246 546 q 220 490 246 514 q 161 465 194 465 q 122 497 122 465 q 160 558 122 531 q 250 585 199 585 q 301 569 281 585 q 321 531 321 554 q 188 428 321 469 m 721 586 l 136 -15 l 103 -15 l 689 586 l 721 586 m 607 -4 l 657 64 q 620 68 640 65 q 593 71 600 71 q 563 66 576 71 q 538 57 550 61 l 529 61 q 604 161 560 97 q 701 317 654 232 l 769 322 q 657 182 717 251 q 564 81 621 140 l 592 85 q 624 83 606 85 q 668 76 643 81 q 800 238 788 238 l 806 232 q 768 169 806 231 q 715 76 738 119 q 749 87 735 79 q 779 104 764 94 l 785 99 q 778 90 781 93 q 756 74 768 81 q 710 61 732 61 l 676 3 l 607 -4 z "},"":{"ha":396,"x_min":24,"x_max":450,"o":"m 450 568 q 435 531 450 549 q 401 514 421 514 q 376 524 386 514 q 367 549 367 533 q 381 587 367 569 q 415 604 396 604 q 440 594 431 604 q 450 568 450 585 m 376 468 q 354 421 376 456 q 276 325 326 376 q 147 201 211 263 q 82 61 82 132 q 140 14 82 14 q 226 43 186 14 q 265 92 265 72 q 242 112 265 99 q 219 146 219 125 q 258 189 219 189 q 291 174 278 189 q 304 136 304 160 q 252 40 304 83 q 136 -4 200 -4 q 55 28 86 -4 q 24 114 24 61 q 111 257 24 194 q 194 307 114 260 q 286 376 250 340 q 343 449 315 406 q 369 478 361 478 q 376 468 376 472 z "},"":{"ha":1482,"x_min":33,"x_max":1561,"o":"m 1042 421 q 860 236 922 296 q 731 122 779 158 q 552 26 643 57 q 358 -6 461 -6 q 123 76 213 -6 q 33 285 33 157 q 133 510 33 417 q 375 603 233 603 q 574 532 492 603 q 651 386 651 465 q 610 335 651 335 q 581 349 592 335 q 569 386 569 363 q 575 418 569 396 q 581 453 581 440 q 531 540 581 506 q 406 574 482 574 q 190 477 282 574 q 97 256 97 381 q 170 80 97 146 q 369 14 243 14 q 585 60 483 14 q 800 207 686 107 q 1029 438 892 286 q 947 483 992 483 q 881 457 907 483 q 838 399 858 428 l 832 404 q 868 472 832 439 q 965 511 910 511 q 1057 467 1018 511 l 1232 647 q 1503 869 1449 869 q 1528 846 1528 869 q 1483 753 1528 824 q 1261 379 1317 486 l 1274 379 q 1389 338 1346 379 q 1432 229 1432 296 q 1366 73 1432 149 q 1222 -3 1300 -3 q 1132 35 1165 -3 q 1099 139 1099 72 q 1154 343 1099 221 q 1057 285 1093 319 q 963 139 1004 139 q 935 169 935 139 q 1044 306 935 217 q 1058 361 1058 338 q 1042 421 1058 392 m 1063 311 q 1167 367 1103 346 q 1332 613 1243 490 q 1447 767 1371 665 q 1492 835 1492 825 q 1489 846 1492 840 q 1486 847 1488 846 q 1249 636 1454 847 l 1069 451 q 1083 383 1083 418 q 1063 311 1083 347 m 1249 356 q 1186 202 1208 274 q 1164 92 1164 131 q 1226 15 1164 15 q 1328 74 1283 15 q 1374 218 1374 132 q 1249 356 1374 356 m 1561 915 l 1551 907 q 1481 967 1531 907 q 1431 1069 1431 1028 q 1469 1119 1431 1119 q 1504 1076 1504 1119 l 1504 1042 q 1532 956 1504 996 q 1561 915 1546 935 z "},"":{"ha":1482,"x_min":33,"x_max":1844,"o":"m 1042 421 q 860 236 922 296 q 731 122 779 158 q 552 26 643 57 q 358 -6 461 -6 q 123 76 213 -6 q 33 285 33 157 q 133 510 33 417 q 375 603 233 603 q 574 532 492 603 q 651 386 651 465 q 610 335 651 335 q 581 349 592 335 q 569 386 569 363 q 575 418 569 396 q 581 453 581 440 q 531 540 581 506 q 406 574 482 574 q 190 477 282 574 q 97 256 97 381 q 170 80 97 146 q 369 14 243 14 q 585 60 483 14 q 800 207 686 107 q 1029 438 892 286 q 947 483 992 483 q 881 457 907 483 q 838 399 858 428 l 832 404 q 868 472 832 439 q 965 511 910 511 q 1057 467 1018 511 l 1232 647 q 1503 869 1449 869 q 1528 846 1528 869 q 1483 753 1528 824 q 1261 379 1317 486 l 1274 379 q 1389 338 1346 379 q 1432 229 1432 296 q 1366 73 1432 149 q 1222 -3 1300 -3 q 1132 35 1165 -3 q 1099 139 1099 72 q 1154 343 1099 221 q 1057 285 1093 319 q 963 139 1004 139 q 935 169 935 139 q 1044 306 935 217 q 1058 361 1058 338 q 1042 421 1058 392 m 1063 311 q 1167 367 1103 346 q 1332 613 1243 490 q 1447 767 1371 665 q 1492 835 1492 825 q 1489 846 1492 840 q 1486 847 1488 846 q 1249 636 1454 847 l 1069 451 q 1083 383 1083 418 q 1063 311 1083 347 m 1249 356 q 1186 202 1208 274 q 1164 92 1164 131 q 1226 15 1164 15 q 1328 74 1283 15 q 1374 218 1374 132 q 1249 356 1374 356 m 1644 1021 q 1635 1029 1635 1021 q 1682 1067 1635 1031 q 1733 1121 1711 1088 q 1765 1189 1738 1126 q 1808 1226 1782 1226 q 1844 1190 1844 1226 q 1732 1063 1844 1128 q 1644 1021 1664 1021 z "},"":{"ha":1482,"x_min":33,"x_max":1824,"o":"m 1042 421 q 860 236 922 296 q 731 122 779 158 q 552 26 643 57 q 358 -6 461 -6 q 123 76 213 -6 q 33 285 33 157 q 133 510 33 417 q 375 603 233 603 q 574 532 492 603 q 651 386 651 465 q 610 335 651 335 q 581 349 592 335 q 569 386 569 363 q 575 418 569 396 q 581 453 581 440 q 531 540 581 506 q 406 574 482 574 q 190 477 282 574 q 97 256 97 381 q 170 80 97 146 q 369 14 243 14 q 585 60 483 14 q 800 207 686 107 q 1029 438 892 286 q 947 483 992 483 q 881 457 907 483 q 838 399 858 428 l 832 404 q 868 472 832 439 q 965 511 910 511 q 1057 467 1018 511 l 1232 647 q 1503 869 1449 869 q 1528 846 1528 869 q 1483 753 1528 824 q 1261 379 1317 486 l 1274 379 q 1389 338 1346 379 q 1432 229 1432 296 q 1366 73 1432 149 q 1222 -3 1300 -3 q 1132 35 1165 -3 q 1099 139 1099 72 q 1154 343 1099 221 q 1057 285 1093 319 q 963 139 1004 139 q 935 169 935 139 q 1044 306 935 217 q 1058 361 1058 338 q 1042 421 1058 392 m 1063 311 q 1167 367 1103 346 q 1332 613 1243 490 q 1447 767 1371 665 q 1492 835 1492 825 q 1489 846 1492 840 q 1486 847 1488 846 q 1249 636 1454 847 l 1069 451 q 1083 383 1083 418 q 1063 311 1083 347 m 1249 356 q 1186 202 1208 274 q 1164 92 1164 131 q 1226 15 1164 15 q 1328 74 1283 15 q 1374 218 1374 132 q 1249 356 1374 356 m 1746 1133 l 1604 1058 q 1533 1028 1546 1028 q 1518 1039 1518 1028 q 1538 1060 1518 1047 q 1599 1099 1572 1082 q 1694 1164 1646 1128 q 1764 1213 1760 1213 q 1781 1199 1776 1213 l 1821 1054 l 1824 1039 q 1814 1026 1824 1026 q 1746 1133 1799 1026 z "},"":{"ha":1482,"x_min":33,"x_max":1869,"o":"m 1042 421 q 860 236 922 296 q 731 122 779 158 q 552 26 643 57 q 358 -6 461 -6 q 123 76 213 -6 q 33 285 33 157 q 133 510 33 417 q 375 603 233 603 q 574 532 492 603 q 651 386 651 465 q 610 335 651 335 q 581 349 592 335 q 569 386 569 363 q 575 418 569 396 q 581 453 581 440 q 531 540 581 506 q 406 574 482 574 q 190 477 282 574 q 97 256 97 381 q 170 80 97 146 q 369 14 243 14 q 585 60 483 14 q 800 207 686 107 q 1029 438 892 286 q 947 483 992 483 q 881 457 907 483 q 838 399 858 428 l 832 404 q 868 472 832 439 q 965 511 910 511 q 1057 467 1018 511 l 1232 647 q 1503 869 1449 869 q 1528 846 1528 869 q 1483 753 1528 824 q 1261 379 1317 486 l 1274 379 q 1389 338 1346 379 q 1432 229 1432 296 q 1366 73 1432 149 q 1222 -3 1300 -3 q 1132 35 1165 -3 q 1099 139 1099 72 q 1154 343 1099 221 q 1057 285 1093 319 q 963 139 1004 139 q 935 169 935 139 q 1044 306 935 217 q 1058 361 1058 338 q 1042 421 1058 392 m 1063 311 q 1167 367 1103 346 q 1332 613 1243 490 q 1447 767 1371 665 q 1492 835 1492 825 q 1489 846 1492 840 q 1486 847 1488 846 q 1249 636 1454 847 l 1069 451 q 1083 383 1083 418 q 1063 311 1083 347 m 1249 356 q 1186 202 1208 274 q 1164 92 1164 131 q 1226 15 1164 15 q 1328 74 1283 15 q 1374 218 1374 132 q 1249 356 1374 356 m 1636 1165 q 1711 1142 1660 1165 q 1782 1119 1763 1119 q 1831 1149 1808 1119 q 1858 1178 1853 1178 q 1869 1169 1869 1178 q 1843 1107 1869 1143 q 1771 1063 1810 1063 q 1694 1085 1746 1063 q 1624 1108 1643 1108 q 1575 1079 1597 1108 q 1547 1050 1553 1050 q 1536 1058 1536 1050 q 1564 1121 1536 1083 q 1636 1165 1597 1165 z "},"":{"ha":1482,"x_min":33,"x_max":1846,"o":"m 1042 421 q 860 236 922 296 q 731 122 779 158 q 552 26 643 57 q 358 -6 461 -6 q 123 76 213 -6 q 33 285 33 157 q 133 510 33 417 q 375 603 233 603 q 574 532 492 603 q 651 386 651 465 q 610 335 651 335 q 581 349 592 335 q 569 386 569 363 q 575 418 569 396 q 581 453 581 440 q 531 540 581 506 q 406 574 482 574 q 190 477 282 574 q 97 256 97 381 q 170 80 97 146 q 369 14 243 14 q 585 60 483 14 q 800 207 686 107 q 1029 438 892 286 q 947 483 992 483 q 881 457 907 483 q 838 399 858 428 l 832 404 q 868 472 832 439 q 965 511 910 511 q 1057 467 1018 511 l 1232 647 q 1503 869 1449 869 q 1528 846 1528 869 q 1483 753 1528 824 q 1261 379 1317 486 l 1274 379 q 1389 338 1346 379 q 1432 229 1432 296 q 1366 73 1432 149 q 1222 -3 1300 -3 q 1132 35 1165 -3 q 1099 139 1099 72 q 1154 343 1099 221 q 1057 285 1093 319 q 963 139 1004 139 q 935 169 935 139 q 1044 306 935 217 q 1058 361 1058 338 q 1042 421 1058 392 m 1063 311 q 1167 367 1103 346 q 1332 613 1243 490 q 1447 767 1371 665 q 1492 835 1492 825 q 1489 846 1492 840 q 1486 847 1488 846 q 1249 636 1454 847 l 1069 451 q 1083 383 1083 418 q 1063 311 1083 347 m 1249 356 q 1186 202 1208 274 q 1164 92 1164 131 q 1226 15 1164 15 q 1328 74 1283 15 q 1374 218 1374 132 q 1249 356 1374 356 m 1757 1108 q 1772 1144 1757 1129 q 1808 1160 1788 1160 q 1846 1119 1846 1160 q 1832 1083 1846 1099 q 1796 1068 1818 1068 q 1757 1108 1757 1068 m 1560 1108 q 1574 1145 1560 1131 q 1610 1160 1589 1160 q 1649 1119 1649 1160 q 1635 1083 1649 1099 q 1599 1068 1621 1068 q 1560 1108 1560 1068 z "},"":{"ha":1482,"x_min":33,"x_max":1685,"o":"m 1042 421 q 860 236 922 296 q 731 122 779 158 q 552 26 643 57 q 358 -6 461 -6 q 123 76 213 -6 q 33 285 33 157 q 133 510 33 417 q 375 603 233 603 q 574 532 492 603 q 651 386 651 465 q 610 335 651 335 q 581 349 592 335 q 569 386 569 363 q 575 422 569 397 q 581 454 581 446 q 532 539 581 503 q 410 575 483 575 q 190 478 283 575 q 97 256 97 381 q 170 80 97 146 q 369 14 243 14 q 585 60 483 14 q 800 207 686 107 q 1029 438 892 286 q 947 483 992 483 q 881 457 907 483 q 838 399 858 428 l 832 404 q 868 472 832 439 q 965 511 910 511 q 1057 467 1018 511 l 1232 647 q 1503 869 1449 869 q 1528 846 1528 869 q 1483 753 1528 824 q 1261 379 1317 486 l 1274 379 q 1389 338 1346 379 q 1432 229 1432 296 q 1366 73 1432 149 q 1222 -3 1300 -3 q 1132 35 1165 -3 q 1099 139 1099 72 q 1154 343 1099 221 q 1057 285 1093 319 q 963 139 1004 139 q 935 169 935 139 q 1044 306 935 217 q 1058 361 1058 338 q 1042 421 1058 392 m 1063 311 q 1167 367 1103 346 q 1332 613 1243 490 q 1447 767 1371 665 q 1492 835 1492 825 q 1489 846 1492 840 q 1486 847 1488 846 q 1249 636 1454 847 l 1069 451 q 1083 383 1083 418 q 1063 311 1083 347 m 1249 356 q 1186 202 1208 274 q 1164 92 1164 131 q 1226 15 1164 15 q 1328 74 1283 15 q 1374 218 1374 132 q 1249 356 1374 356 m 1478 989 q 1508 1061 1478 1031 q 1582 1092 1539 1092 q 1656 1063 1626 1092 q 1685 989 1685 1033 q 1655 916 1685 946 q 1582 886 1625 886 q 1508 915 1539 886 q 1478 989 1478 944 m 1511 989 q 1531 938 1511 958 q 1582 918 1551 918 q 1631 938 1611 918 q 1651 989 1651 958 q 1631 1038 1651 1018 q 1582 1058 1611 1058 q 1532 1039 1553 1058 q 1511 989 1511 1019 z "},"":{"ha":1378,"x_min":40,"x_max":1594,"o":"m 544 154 q 217 -4 367 -4 q 90 34 139 -4 q 40 128 40 72 q 58 190 40 167 q 106 214 76 214 q 142 199 126 214 q 158 163 158 185 q 126 113 158 128 q 94 90 94 97 q 132 41 94 64 q 225 18 169 18 q 528 164 375 18 q 353 436 353 293 q 412 578 353 521 q 557 636 471 636 q 706 592 640 636 q 811 463 772 547 q 1225 868 1178 868 l 1229 860 q 1139 686 1193 794 q 1024 428 1074 556 q 1206 497 1108 475 q 1149 596 1149 538 q 1267 794 1149 707 q 1465 869 1371 869 q 1560 838 1525 869 q 1594 747 1594 806 q 1540 620 1594 675 q 1418 565 1485 565 q 1360 585 1382 565 q 1339 642 1339 606 q 1390 739 1339 693 q 1463 779 1435 779 l 1469 775 q 1398 710 1429 747 q 1367 632 1367 674 q 1381 593 1367 607 q 1419 579 1394 579 q 1526 631 1474 579 q 1578 747 1578 683 q 1550 824 1578 796 q 1472 851 1522 851 q 1293 749 1381 851 q 1228 649 1251 701 q 1206 560 1206 596 q 1216 520 1206 535 q 1240 506 1226 506 l 1268 506 q 1335 483 1335 506 q 1299 465 1335 465 q 1263 470 1281 465 q 1225 481 1244 475 q 1169 469 1206 481 q 1089 432 1132 457 q 980 315 1022 390 q 938 164 938 240 q 978 56 938 97 q 1083 14 1018 14 q 1275 107 1182 14 q 1341 194 1318 147 q 1364 281 1364 240 q 1344 340 1364 318 q 1293 363 1325 363 q 1206 321 1254 363 q 1111 197 1150 274 q 1083 119 1093 161 q 1068 78 1074 78 q 1065 82 1065 81 q 1061 99 1061 90 q 1128 302 1061 217 q 1276 388 1196 388 q 1355 359 1325 388 q 1385 283 1385 331 q 1303 110 1385 203 q 1060 -6 1199 -6 q 881 101 922 -6 l 857 32 q 826 0 844 1 l 769 -6 l 760 -6 q 750 3 750 0 l 757 22 l 779 78 q 544 154 657 89 m 557 167 q 672 115 614 133 q 786 90 731 96 q 828 297 828 179 q 804 429 828 356 q 654 261 689 299 q 557 167 608 213 m 540 178 q 799 447 631 246 q 713 564 767 524 q 588 604 658 604 q 456 550 508 604 q 403 413 403 496 q 442 278 403 339 q 540 178 475 224 m 838 190 q 1040 588 949 428 q 1199 833 1131 749 q 1038 682 1138 786 q 819 446 953 594 q 846 279 846 358 q 838 190 846 236 z "},"":{"ha":1079,"x_min":160,"x_max":1203,"o":"m 857 782 q 949 716 903 751 q 1040 640 994 681 q 1124 723 1094 683 q 1154 790 1154 763 q 1069 839 1154 839 q 857 782 988 839 m 831 767 q 508 497 606 639 q 611 489 558 489 q 1022 625 817 489 q 929 704 958 682 q 831 767 883 739 m 418 515 q 786 786 513 669 q 619 847 703 826 q 450 868 536 868 q 265 827 332 868 q 199 718 199 786 q 256 597 199 653 q 418 515 314 540 m 428 150 q 547 -19 458 42 q 764 -81 636 -81 q 947 -34 874 -81 q 1021 68 1021 13 q 934 151 1021 115 q 699 186 847 186 q 428 150 575 186 m 361 153 q 335 283 335 215 q 386 474 335 381 q 160 676 160 511 q 249 836 160 771 q 486 906 343 906 q 649 879 565 906 q 825 801 733 853 q 971 843 907 829 q 1089 857 1035 857 q 1203 789 1203 857 q 1060 617 1203 722 l 1082 596 q 1097 572 1097 581 l 1092 568 q 1076 574 1083 568 q 1043 607 1058 594 q 483 460 806 460 l 475 460 q 413 254 413 360 q 416 208 413 233 q 422 171 419 183 q 592 206 510 193 q 744 218 675 218 q 962 169 882 218 q 1042 46 1042 121 q 975 -67 1042 -21 q 800 -112 908 -112 q 558 -48 671 -112 q 372 133 444 17 q 276 97 317 117 q 196 57 235 76 q 188 63 192 57 q 361 153 188 89 m 563 -151 q 633 -135 589 -135 q 721 -210 721 -135 q 688 -279 721 -253 q 596 -306 654 -306 q 486 -286 533 -306 q 439 -256 439 -267 q 450 -249 446 -249 q 522 -269 486 -260 q 593 -278 557 -278 q 650 -260 628 -278 q 672 -217 672 -242 q 607 -169 672 -169 l 569 -175 l 563 -151 z "},"":{"ha":1001,"x_min":33,"x_max":1019,"o":"m 257 251 q 132 192 193 226 q 42 140 86 165 l 33 147 q 253 271 33 179 l 253 285 q 576 560 253 522 l 567 597 q 506 594 542 597 q 467 590 469 590 q 272 633 342 590 q 201 749 201 676 q 267 876 201 824 q 428 928 333 928 q 696 822 553 928 q 854 871 782 871 q 944 806 944 871 q 867 694 944 746 q 646 611 790 643 q 651 584 647 596 q 656 564 654 572 q 801 538 749 564 q 853 474 853 513 q 771 413 853 413 q 653 447 706 413 q 578 543 600 482 q 318 340 318 515 l 322 296 q 564 332 446 332 q 849 267 739 332 q 951 118 951 206 q 884 -23 951 29 q 700 -75 817 -75 q 503 -38 596 -75 q 349 65 411 -1 q 257 251 272 144 m 328 276 q 485 42 368 133 q 740 -49 603 -49 q 867 -14 818 -49 q 915 71 915 21 q 806 226 915 158 q 514 300 688 300 q 328 276 426 300 m 660 546 q 797 435 717 435 q 833 468 833 435 q 788 524 833 503 q 660 546 743 546 m 647 635 q 904 793 904 681 q 838 853 904 853 q 702 792 757 853 q 647 635 647 732 m 568 626 q 679 813 579 736 q 421 899 551 899 q 282 865 333 899 q 231 779 231 832 q 314 672 231 718 q 519 625 397 625 l 568 626 m 1019 1026 l 1010 1018 q 939 1078 989 1018 q 889 1181 889 1139 q 928 1231 889 1231 q 963 1188 963 1231 l 963 1153 q 990 1067 963 1107 q 1019 1026 1004 1046 z "},"":{"ha":1001,"x_min":33,"x_max":1122,"o":"m 257 251 q 132 192 193 226 q 42 140 86 165 l 33 147 q 253 271 33 179 l 253 285 q 576 560 253 522 l 567 597 q 506 594 542 597 q 467 590 469 590 q 272 633 342 590 q 201 749 201 676 q 267 876 201 824 q 428 928 333 928 q 696 822 553 928 q 854 871 782 871 q 944 806 944 871 q 867 694 944 746 q 646 611 790 643 q 651 584 647 596 q 656 564 654 572 q 801 538 749 564 q 853 474 853 513 q 771 413 853 413 q 653 447 706 413 q 578 543 600 482 q 318 340 318 515 l 322 296 q 564 332 446 332 q 849 267 739 332 q 951 118 951 206 q 884 -23 951 29 q 700 -75 817 -75 q 503 -38 596 -75 q 349 65 411 -1 q 257 251 272 144 m 328 276 q 485 42 368 133 q 740 -49 603 -49 q 867 -14 818 -49 q 915 71 915 21 q 806 226 915 158 q 514 300 688 300 q 328 276 426 300 m 660 546 q 797 435 717 435 q 833 468 833 435 q 788 524 833 503 q 660 546 743 546 m 647 635 q 904 793 904 681 q 838 853 904 853 q 702 792 757 853 q 647 635 647 732 m 568 626 q 679 813 579 736 q 421 899 551 899 q 282 865 333 899 q 231 779 231 832 q 314 672 231 718 q 519 625 397 625 l 568 626 m 922 1021 q 913 1029 913 1021 q 960 1067 913 1031 q 1011 1121 989 1088 q 1043 1189 1015 1126 q 1086 1226 1060 1226 q 1122 1190 1122 1226 q 1010 1063 1122 1128 q 922 1021 942 1021 z "},"":{"ha":1001,"x_min":33,"x_max":1101,"o":"m 257 251 q 132 192 193 226 q 42 140 86 165 l 33 147 q 253 271 33 179 l 253 285 q 576 560 253 522 l 567 597 q 506 594 542 597 q 467 590 469 590 q 272 633 342 590 q 201 749 201 676 q 267 876 201 824 q 428 928 333 928 q 696 822 553 928 q 854 871 782 871 q 944 806 944 871 q 867 694 944 746 q 646 611 790 643 q 651 584 647 596 q 656 564 654 572 q 801 538 749 564 q 853 474 853 513 q 771 413 853 413 q 653 447 706 413 q 578 543 600 482 q 318 340 318 515 l 322 296 q 564 332 446 332 q 849 267 739 332 q 951 118 951 206 q 884 -23 951 29 q 700 -75 817 -75 q 503 -38 596 -75 q 349 65 411 -1 q 257 251 272 144 m 328 276 q 485 42 368 133 q 740 -49 603 -49 q 867 -14 818 -49 q 915 71 915 21 q 806 226 915 158 q 514 300 688 300 q 328 276 426 300 m 660 546 q 797 435 717 435 q 833 468 833 435 q 788 524 833 503 q 660 546 743 546 m 647 635 q 904 793 904 681 q 838 853 904 853 q 702 792 757 853 q 647 635 647 732 m 568 626 q 679 813 579 736 q 421 899 551 899 q 282 865 333 899 q 231 779 231 832 q 314 672 231 718 q 519 625 397 625 l 568 626 m 1024 1133 l 882 1058 q 811 1028 824 1028 q 796 1039 796 1028 q 815 1060 796 1047 q 876 1099 850 1082 q 972 1164 924 1128 q 1042 1213 1038 1213 q 1058 1199 1054 1213 l 1099 1054 l 1101 1039 q 1092 1026 1101 1026 q 1024 1133 1076 1026 z "},"":{"ha":1001,"x_min":33,"x_max":1124,"o":"m 257 251 q 132 192 193 226 q 42 140 86 165 l 33 147 q 253 271 33 179 l 253 285 q 576 560 253 522 l 567 597 q 506 594 542 597 q 467 590 469 590 q 272 633 342 590 q 201 749 201 676 q 267 876 201 824 q 428 928 333 928 q 696 822 553 928 q 854 871 782 871 q 944 806 944 871 q 867 694 944 746 q 646 611 790 643 q 651 584 647 596 q 656 564 654 572 q 801 538 749 564 q 853 474 853 513 q 771 413 853 413 q 653 447 706 413 q 578 543 600 482 q 318 340 318 515 l 322 296 q 564 332 446 332 q 849 267 739 332 q 951 118 951 206 q 884 -23 951 29 q 700 -75 817 -75 q 503 -38 596 -75 q 349 65 411 -1 q 257 251 272 144 m 328 276 q 485 42 368 133 q 740 -49 603 -49 q 867 -14 818 -49 q 915 71 915 21 q 806 226 915 158 q 514 300 688 300 q 328 276 426 300 m 660 546 q 797 435 717 435 q 833 468 833 435 q 788 524 833 503 q 660 546 743 546 m 647 635 q 904 793 904 681 q 838 853 904 853 q 702 792 757 853 q 647 635 647 732 m 568 626 q 679 813 579 736 q 421 899 551 899 q 282 865 333 899 q 231 779 231 832 q 314 672 231 718 q 519 625 397 625 l 568 626 m 1035 1108 q 1050 1144 1035 1129 q 1086 1160 1065 1160 q 1124 1119 1124 1160 q 1110 1083 1124 1099 q 1074 1068 1096 1068 q 1035 1108 1035 1068 m 838 1108 q 852 1145 838 1131 q 888 1160 867 1160 q 926 1119 926 1160 q 913 1083 926 1099 q 876 1068 899 1068 q 838 1108 838 1068 z "},"":{"ha":956,"x_min":69,"x_max":1029,"o":"m 708 165 q 857 381 797 243 q 747 676 747 517 q 780 815 747 764 q 867 865 813 865 q 967 805 924 865 q 1010 653 1010 744 q 984 515 1010 586 q 907 354 958 443 q 957 303 925 332 q 976 278 976 285 l 969 269 q 942 286 961 269 q 894 336 922 303 q 809 235 850 279 q 718 147 768 190 q 733 67 733 108 q 667 -98 733 -32 q 519 -164 601 -164 q 501 -156 501 -164 q 528 -144 501 -150 q 578 -129 556 -139 q 693 61 693 -79 q 692 92 693 75 q 686 125 690 108 q 512 27 593 60 q 349 -6 431 -6 q 147 67 224 -6 q 69 256 69 140 q 153 451 69 371 q 354 531 238 531 q 493 485 439 531 q 547 368 547 439 q 513 265 547 314 l 518 265 q 708 165 656 265 m 867 406 q 917 567 900 486 q 933 719 933 649 q 913 816 933 782 q 858 850 893 850 q 806 811 826 850 q 786 700 786 772 q 806 550 786 624 q 867 406 825 476 m 678 143 q 510 247 635 247 l 497 247 q 394 179 433 179 q 364 201 364 179 q 490 264 364 244 q 501 322 501 290 q 446 450 501 394 q 313 506 390 506 q 178 449 232 506 q 124 304 124 392 q 203 113 124 190 q 406 36 283 36 q 678 143 543 36 m 1029 1026 l 1019 1018 q 949 1078 999 1018 q 899 1181 899 1139 q 938 1231 899 1231 q 972 1188 972 1231 l 972 1153 q 1000 1067 972 1107 q 1029 1026 1014 1046 z "},"":{"ha":956,"x_min":69,"x_max":1132,"o":"m 708 165 q 857 381 797 243 q 747 676 747 517 q 780 815 747 764 q 867 865 813 865 q 967 805 924 865 q 1010 653 1010 744 q 984 515 1010 586 q 907 354 958 443 q 957 303 925 332 q 976 278 976 285 l 969 269 q 942 286 961 269 q 894 336 922 303 q 809 235 850 279 q 718 147 768 190 q 733 67 733 108 q 667 -98 733 -32 q 519 -164 601 -164 q 501 -156 501 -164 q 528 -144 501 -150 q 578 -129 556 -139 q 693 61 693 -79 q 692 92 693 75 q 686 125 690 108 q 512 27 593 60 q 349 -6 431 -6 q 147 67 224 -6 q 69 256 69 140 q 153 451 69 371 q 354 531 238 531 q 493 485 439 531 q 547 368 547 439 q 513 265 547 314 l 518 265 q 708 165 656 265 m 867 406 q 917 567 900 486 q 933 719 933 649 q 913 816 933 782 q 858 850 893 850 q 806 811 826 850 q 786 700 786 772 q 806 550 786 624 q 867 406 825 476 m 678 143 q 510 247 635 247 l 497 247 q 394 179 433 179 q 364 201 364 179 q 490 264 364 244 q 501 322 501 290 q 446 450 501 394 q 313 506 390 506 q 178 449 232 506 q 124 304 124 392 q 203 113 124 190 q 406 36 283 36 q 678 143 543 36 m 932 1021 q 922 1029 922 1021 q 969 1067 922 1031 q 1021 1121 999 1088 q 1053 1189 1025 1126 q 1096 1226 1069 1226 q 1132 1190 1132 1226 q 1019 1063 1132 1128 q 932 1021 951 1021 z "},"":{"ha":956,"x_min":69,"x_max":1111,"o":"m 708 165 q 857 381 797 243 q 747 676 747 517 q 780 815 747 764 q 867 865 813 865 q 967 805 924 865 q 1010 653 1010 744 q 984 515 1010 586 q 907 354 958 443 q 957 303 925 332 q 976 278 976 285 l 969 269 q 942 286 961 269 q 894 336 922 303 q 809 235 850 279 q 718 147 768 190 q 733 67 733 108 q 667 -98 733 -32 q 519 -164 601 -164 q 501 -156 501 -164 q 528 -144 501 -150 q 578 -129 556 -139 q 693 61 693 -79 q 692 92 693 75 q 686 125 690 108 q 512 27 593 60 q 349 -6 431 -6 q 147 67 224 -6 q 69 256 69 140 q 153 451 69 371 q 354 531 238 531 q 493 485 439 531 q 547 368 547 439 q 513 265 547 314 l 518 265 q 708 165 656 265 m 867 406 q 917 567 900 486 q 933 719 933 649 q 913 816 933 782 q 858 850 893 850 q 806 811 826 850 q 786 700 786 772 q 806 550 786 624 q 867 406 825 476 m 678 143 q 510 247 635 247 l 497 247 q 394 179 433 179 q 364 201 364 179 q 490 264 364 244 q 501 322 501 290 q 446 450 501 394 q 313 506 390 506 q 178 449 232 506 q 124 304 124 392 q 203 113 124 190 q 406 36 283 36 q 678 143 543 36 m 1033 1133 l 892 1058 q 821 1028 833 1028 q 806 1039 806 1028 q 825 1060 806 1047 q 886 1099 860 1082 q 982 1164 933 1128 q 1051 1213 1047 1213 q 1068 1199 1064 1213 l 1108 1054 l 1111 1039 q 1101 1026 1111 1026 q 1033 1133 1086 1026 z "},"":{"ha":956,"x_min":69,"x_max":1133,"o":"m 708 165 q 857 381 797 243 q 747 676 747 517 q 780 815 747 764 q 867 865 813 865 q 967 805 924 865 q 1010 653 1010 744 q 984 515 1010 586 q 907 354 958 443 q 957 303 925 332 q 976 278 976 285 l 969 269 q 942 286 961 269 q 894 336 922 303 q 809 235 850 279 q 718 147 768 190 q 733 67 733 108 q 667 -98 733 -32 q 519 -164 601 -164 q 501 -156 501 -164 q 528 -144 501 -150 q 578 -129 556 -139 q 693 61 693 -79 q 692 92 693 75 q 686 125 690 108 q 512 27 593 60 q 349 -6 431 -6 q 147 67 224 -6 q 69 256 69 140 q 153 451 69 371 q 354 531 238 531 q 493 485 439 531 q 547 368 547 439 q 513 265 547 314 l 518 265 q 708 165 656 265 m 867 406 q 917 567 900 486 q 933 719 933 649 q 913 816 933 782 q 858 850 893 850 q 806 811 826 850 q 786 700 786 772 q 806 550 786 624 q 867 406 825 476 m 678 143 q 510 247 635 247 l 497 247 q 394 179 433 179 q 364 201 364 179 q 490 264 364 244 q 501 322 501 290 q 446 450 501 394 q 313 506 390 506 q 178 449 232 506 q 124 304 124 392 q 203 113 124 190 q 406 36 283 36 q 678 143 543 36 m 1044 1108 q 1060 1144 1044 1129 q 1096 1160 1075 1160 q 1133 1119 1133 1160 q 1119 1083 1133 1099 q 1083 1068 1106 1068 q 1044 1108 1044 1068 m 847 1108 q 862 1145 847 1131 q 897 1160 876 1160 q 936 1119 936 1160 q 922 1083 936 1099 q 886 1068 908 1068 q 847 1108 847 1068 z "},"":{"ha":1078,"x_min":3,"x_max":1079,"o":"m 372 99 q 556 70 482 79 q 679 61 631 61 q 941 156 839 61 q 1043 389 1043 251 q 836 726 1043 574 q 625 404 767 646 l 861 404 l 847 382 l 613 382 q 487 203 546 271 q 372 99 428 135 m 254 54 q 144 81 196 72 q 72 90 93 90 q 28 61 28 90 q 51 31 28 44 q 115 18 75 18 q 181 28 146 18 q 254 54 215 38 m 572 382 l 346 382 l 361 404 l 586 404 q 708 607 654 526 q 808 742 763 688 q 513 832 669 832 q 364 790 426 832 q 276 676 301 749 q 262 610 267 650 q 249 569 257 569 q 242 585 242 579 q 337 799 242 715 q 583 883 432 883 q 863 794 724 883 q 950 857 938 857 q 957 853 954 857 q 961 849 960 850 q 942 826 961 842 q 885 781 894 789 q 1031 617 983 701 q 1079 435 1079 533 q 954 142 1079 269 q 788 35 886 74 q 581 -4 689 -4 q 290 44 492 -4 q 114 -6 194 -6 q 32 14 61 -6 q 3 64 3 33 q 121 132 3 132 q 335 104 196 132 q 444 199 386 131 q 572 382 501 268 z "},"":{"ha":1356,"x_min":72,"x_max":1769,"o":"m 1060 653 q 743 165 919 329 q 367 0 567 0 q 149 72 225 0 q 72 278 72 144 q 95 405 72 357 q 156 453 118 453 q 194 408 194 453 q 179 372 194 385 q 140 356 169 365 q 89 286 89 340 q 182 124 89 200 q 421 40 283 40 q 761 206 596 40 q 1040 683 935 379 q 754 833 918 833 q 563 757 638 833 q 488 561 488 681 q 540 410 488 471 q 668 349 593 349 q 815 451 753 349 q 833 488 825 467 q 847 508 842 508 l 854 503 q 844 472 854 493 q 813 422 835 451 q 614 315 731 315 q 479 371 533 315 q 425 515 425 426 q 547 766 425 663 q 818 869 668 869 q 1067 769 960 869 q 1082 854 1074 811 q 1099 868 1086 868 q 1118 850 1118 868 q 1089 747 1118 832 q 1160 602 1135 682 q 1186 421 1186 522 q 1165 203 1186 314 q 1529 715 1286 517 q 1439 708 1467 708 l 1413 708 q 1329 719 1329 708 q 1340 728 1329 728 q 1382 723 1357 725 q 1425 721 1407 721 q 1480 724 1454 721 q 1557 736 1506 728 q 1729 842 1671 842 q 1758 832 1747 842 q 1769 806 1769 822 q 1593 722 1769 751 q 1340 482 1444 618 q 1167 171 1235 346 q 1148 37 1167 83 q 1100 -10 1129 -10 q 1079 17 1079 -10 q 1096 80 1079 38 q 1149 186 1113 122 q 1156 239 1154 214 q 1157 296 1157 264 q 1060 653 1157 490 m 1497 1165 q 1572 1142 1521 1165 q 1643 1119 1624 1119 q 1692 1149 1669 1119 q 1719 1178 1714 1178 q 1731 1169 1731 1178 q 1704 1107 1731 1143 q 1632 1063 1671 1063 q 1556 1085 1607 1063 q 1485 1108 1504 1108 q 1436 1079 1458 1108 q 1408 1050 1414 1050 q 1397 1058 1397 1050 q 1425 1121 1397 1083 q 1497 1165 1458 1165 z "},"":{"ha":743,"x_min":43,"x_max":872,"o":"m 511 71 l 549 68 q 688 118 622 68 q 729 156 710 135 q 760 186 758 186 l 765 182 q 699 106 765 154 q 532 46 617 46 l 479 51 q 285 -6 374 -6 q 108 67 174 -6 q 43 263 43 139 q 110 511 43 382 q 296 736 178 640 q 649 879 471 879 q 810 819 747 879 q 872 663 872 760 q 801 474 872 568 q 688 242 761 342 q 511 71 615 142 m 447 61 q 337 151 378 89 q 296 296 296 214 q 336 492 296 396 q 450 661 376 588 q 646 761 549 761 q 766 708 722 761 q 810 557 810 654 l 808 522 q 832 577 824 550 q 840 635 840 604 q 786 799 840 738 q 640 861 732 861 q 457 810 550 861 q 288 661 364 758 q 135 242 135 463 q 178 76 135 135 q 303 18 221 18 q 447 61 364 18 m 485 79 q 731 418 660 182 q 550 379 658 379 q 489 390 489 379 q 503 400 489 400 l 540 399 q 662 412 613 399 q 740 454 711 425 q 753 528 749 496 q 758 586 758 561 q 726 703 758 661 q 640 744 694 744 q 469 643 558 744 q 388 499 415 579 q 360 331 360 419 q 394 165 360 232 q 485 79 429 97 m 767 1026 l 757 1018 q 686 1078 736 1018 q 636 1181 636 1139 q 675 1231 636 1231 q 710 1188 710 1231 l 710 1153 q 738 1067 710 1107 q 767 1026 751 1046 z "},"":{"ha":743,"x_min":43,"x_max":872,"o":"m 511 71 l 549 68 q 688 118 622 68 q 729 156 710 135 q 760 186 758 186 l 765 182 q 699 106 765 154 q 532 46 617 46 l 479 51 q 285 -6 374 -6 q 108 67 174 -6 q 43 263 43 139 q 110 511 43 382 q 296 736 178 640 q 649 879 471 879 q 810 819 747 879 q 872 663 872 760 q 801 474 872 568 q 688 242 761 342 q 511 71 615 142 m 447 61 q 337 151 378 89 q 296 296 296 214 q 336 492 296 396 q 450 661 376 588 q 646 761 549 761 q 766 708 722 761 q 810 557 810 654 l 808 522 q 832 577 824 550 q 840 635 840 604 q 786 799 840 738 q 640 861 732 861 q 457 810 550 861 q 288 661 364 758 q 135 242 135 463 q 178 76 135 135 q 303 18 221 18 q 447 61 364 18 m 485 79 q 731 418 660 182 q 550 379 658 379 q 489 390 489 379 q 503 400 489 400 l 540 399 q 662 412 613 399 q 740 454 711 425 q 753 528 749 496 q 758 586 758 561 q 726 703 758 661 q 640 744 694 744 q 469 643 558 744 q 388 499 415 579 q 360 331 360 419 q 394 165 360 232 q 485 79 429 97 m 669 1021 q 660 1029 660 1021 q 707 1067 660 1031 q 758 1121 736 1088 q 790 1189 763 1126 q 833 1226 807 1226 q 869 1190 869 1226 q 757 1063 869 1128 q 669 1021 689 1021 z "},"":{"ha":743,"x_min":43,"x_max":872,"o":"m 511 71 l 549 68 q 688 118 622 68 q 729 156 710 135 q 760 186 758 186 l 765 182 q 699 106 765 154 q 532 46 617 46 l 479 51 q 285 -6 374 -6 q 108 67 174 -6 q 43 263 43 139 q 110 511 43 382 q 296 736 178 640 q 649 879 471 879 q 810 819 747 879 q 872 663 872 760 q 801 474 872 568 q 688 242 761 342 q 511 71 615 142 m 447 61 q 337 151 378 89 q 296 296 296 214 q 336 492 296 396 q 450 661 376 588 q 646 761 549 761 q 766 708 722 761 q 810 557 810 654 l 808 522 q 832 577 824 550 q 840 635 840 604 q 786 799 840 738 q 640 861 732 861 q 457 810 550 861 q 288 661 364 758 q 135 242 135 463 q 178 76 135 135 q 303 18 221 18 q 447 61 364 18 m 485 79 q 731 418 660 182 q 550 379 658 379 q 489 390 489 379 q 503 400 489 400 l 540 399 q 662 412 613 399 q 740 454 711 425 q 753 528 749 496 q 758 586 758 561 q 726 703 758 661 q 640 744 694 744 q 469 643 558 744 q 388 499 415 579 q 360 331 360 419 q 394 165 360 232 q 485 79 429 97 m 771 1133 l 629 1058 q 558 1028 571 1028 q 543 1039 543 1028 q 563 1060 543 1047 q 624 1099 597 1082 q 719 1164 671 1128 q 789 1213 785 1213 q 806 1199 801 1213 l 846 1054 l 849 1039 q 839 1026 849 1026 q 771 1133 824 1026 z "},"":{"ha":743,"x_min":43,"x_max":894,"o":"m 511 71 l 549 68 q 688 118 622 68 q 729 156 710 135 q 760 186 758 186 l 765 182 q 699 106 765 154 q 532 46 617 46 l 479 51 q 285 -6 374 -6 q 108 67 174 -6 q 43 263 43 139 q 110 511 43 382 q 296 736 178 640 q 649 879 471 879 q 810 819 747 879 q 872 663 872 760 q 801 474 872 568 q 688 242 761 342 q 511 71 615 142 m 447 61 q 337 151 378 89 q 296 296 296 214 q 336 492 296 396 q 450 661 376 588 q 646 761 549 761 q 766 708 722 761 q 810 557 810 654 l 808 522 q 832 577 824 550 q 840 635 840 604 q 786 799 840 738 q 640 861 732 861 q 457 810 550 861 q 288 661 364 758 q 135 242 135 463 q 178 76 135 135 q 303 18 221 18 q 447 61 364 18 m 485 79 q 731 418 660 182 q 550 379 658 379 q 489 390 489 379 q 503 400 489 400 l 540 399 q 662 412 613 399 q 740 454 711 425 q 753 528 749 496 q 758 586 758 561 q 726 703 758 661 q 640 744 694 744 q 469 643 558 744 q 388 499 415 579 q 360 331 360 419 q 394 165 360 232 q 485 79 429 97 m 661 1165 q 736 1142 685 1165 q 807 1119 788 1119 q 856 1149 833 1119 q 883 1178 878 1178 q 894 1169 894 1178 q 868 1107 894 1143 q 796 1063 835 1063 q 719 1085 771 1063 q 649 1108 668 1108 q 600 1079 622 1108 q 572 1050 578 1050 q 561 1058 561 1050 q 589 1121 561 1083 q 661 1165 622 1165 z "},"":{"ha":743,"x_min":43,"x_max":872,"o":"m 511 71 l 549 68 q 688 118 622 68 q 729 156 710 135 q 760 186 758 186 l 765 182 q 699 106 765 154 q 532 46 617 46 l 479 51 q 285 -6 374 -6 q 108 67 174 -6 q 43 263 43 139 q 110 511 43 382 q 296 736 178 640 q 649 879 471 879 q 810 819 747 879 q 872 663 872 760 q 801 474 872 568 q 688 242 761 342 q 511 71 615 142 m 447 61 q 337 151 378 89 q 296 296 296 214 q 336 492 296 396 q 450 661 376 588 q 646 761 549 761 q 766 708 722 761 q 810 557 810 654 l 808 522 q 832 577 824 550 q 840 635 840 604 q 786 799 840 738 q 640 861 732 861 q 457 810 550 861 q 288 661 364 758 q 135 242 135 463 q 178 76 135 135 q 303 18 221 18 q 447 61 364 18 m 485 79 q 731 418 660 182 q 550 379 658 379 q 489 390 489 379 q 503 400 489 400 l 540 399 q 662 412 613 399 q 740 454 711 425 q 753 528 749 496 q 758 586 758 561 q 726 703 758 661 q 640 744 694 744 q 469 643 558 744 q 388 499 415 579 q 360 331 360 419 q 394 165 360 232 q 485 79 429 97 m 782 1108 q 797 1144 782 1129 q 833 1160 813 1160 q 871 1119 871 1160 q 857 1083 871 1099 q 821 1068 843 1068 q 782 1108 782 1068 m 585 1108 q 599 1145 585 1131 q 635 1160 614 1160 q 674 1119 674 1160 q 660 1083 674 1099 q 624 1068 646 1068 q 585 1108 585 1068 z "},"":{"ha":1013,"x_min":183,"x_max":829,"o":"m 218 682 l 507 394 l 796 682 l 829 649 l 540 361 l 829 72 l 796 39 l 507 326 l 218 39 l 183 72 l 472 361 l 183 649 l 218 682 z "},"":{"ha":743,"x_min":6,"x_max":925,"o":"m 511 71 l 549 68 q 688 118 622 68 q 729 156 710 135 q 760 186 758 186 l 765 182 q 699 106 765 154 q 532 46 617 46 l 479 51 q 285 -6 374 -6 q 143 36 193 -6 l 24 -97 l 6 -81 l 124 51 q 43 261 43 136 q 111 510 43 379 q 296 736 179 642 q 643 879 471 879 q 817 813 750 879 l 906 913 l 925 896 l 835 794 q 872 663 872 738 q 853 565 872 613 q 801 474 835 517 q 688 242 761 342 q 511 71 615 142 m 165 96 l 301 247 l 296 310 q 421 631 296 475 q 532 727 472 693 q 644 761 592 761 q 740 729 692 761 l 794 788 q 647 861 744 861 q 290 662 446 861 q 133 239 133 463 q 140 163 133 197 q 165 96 147 129 m 361 310 l 721 710 q 640 744 690 744 q 519 693 583 744 q 411 554 454 642 q 360 335 360 456 l 361 310 m 738 689 l 364 278 q 485 79 381 115 q 731 418 660 182 q 569 379 657 379 q 531 390 531 379 q 546 400 531 400 l 575 400 q 672 415 625 400 q 740 454 718 431 q 752 519 747 489 q 757 583 757 549 q 738 689 757 635 m 808 765 l 760 713 q 798 647 786 685 q 810 558 810 610 l 808 522 q 832 578 825 549 q 839 638 839 608 q 831 706 839 674 q 808 765 824 738 m 308 217 l 179 75 q 303 19 222 19 q 447 61 365 19 q 308 217 342 103 z "},"":{"ha":1092,"x_min":156,"x_max":1294,"o":"m 392 325 q 542 504 467 414 q 646 642 618 594 q 683 754 683 706 q 651 828 683 800 q 563 856 619 856 q 374 785 472 856 q 263 653 303 732 q 222 490 222 575 q 392 325 222 325 m 850 268 q 1138 578 1018 411 q 1275 824 1275 774 q 1257 847 1275 847 q 1085 694 1204 847 q 946 484 1008 597 q 850 268 883 371 m 750 192 q 805 368 758 268 q 939 583 851 468 q 1260 860 1149 860 q 1285 847 1275 860 q 1294 813 1294 835 q 1185 590 1294 736 q 842 231 1063 428 q 825 114 825 154 q 840 44 825 69 q 879 19 854 19 q 1031 103 951 19 q 1068 142 1057 129 q 1097 169 1093 169 l 1103 164 q 1057 106 1103 151 q 956 22 1003 50 q 861 -6 908 -6 q 749 157 749 -6 l 749 167 q 407 -8 499 -8 q 301 107 301 -8 q 374 306 301 203 q 212 358 268 306 q 156 503 156 410 q 197 649 156 578 q 319 779 238 719 q 567 871 443 871 q 670 831 628 871 q 713 729 713 792 q 657 542 713 640 q 497 325 608 456 q 617 361 565 338 q 696 406 656 383 l 704 396 q 483 306 704 344 q 391 171 424 236 q 358 67 358 106 q 415 11 358 11 q 542 56 461 11 q 750 192 622 100 m 1072 1026 l 1063 1018 q 992 1078 1042 1018 q 942 1181 942 1139 q 981 1231 942 1231 q 1015 1188 1015 1231 l 1015 1153 q 1043 1067 1015 1107 q 1072 1026 1057 1046 z "},"":{"ha":1092,"x_min":156,"x_max":1294,"o":"m 392 325 q 542 504 467 414 q 646 642 618 594 q 683 754 683 706 q 651 828 683 800 q 563 856 619 856 q 374 785 472 856 q 263 653 303 732 q 222 490 222 575 q 392 325 222 325 m 850 268 q 1138 578 1018 411 q 1275 824 1275 774 q 1257 847 1275 847 q 1085 694 1204 847 q 946 484 1008 597 q 850 268 883 371 m 750 192 q 805 368 758 268 q 939 583 851 468 q 1260 860 1149 860 q 1285 847 1275 860 q 1294 813 1294 835 q 1185 590 1294 736 q 842 231 1063 428 q 825 114 825 154 q 840 44 825 69 q 879 19 854 19 q 1031 103 951 19 q 1068 142 1057 129 q 1097 169 1093 169 l 1103 164 q 1057 106 1103 151 q 956 22 1003 50 q 861 -6 908 -6 q 749 157 749 -6 l 749 167 q 407 -8 499 -8 q 301 107 301 -8 q 374 306 301 203 q 212 358 268 306 q 156 503 156 410 q 197 649 156 578 q 319 779 238 719 q 567 871 443 871 q 670 831 628 871 q 713 729 713 792 q 657 542 713 640 q 497 325 608 456 q 617 361 565 338 q 696 406 656 383 l 704 396 q 483 306 704 344 q 391 171 424 236 q 358 67 358 106 q 415 11 358 11 q 542 56 461 11 q 750 192 622 100 m 975 1021 q 965 1029 965 1021 q 1013 1067 965 1031 q 1064 1121 1042 1088 q 1096 1189 1068 1126 q 1139 1226 1113 1226 q 1175 1190 1175 1226 q 1063 1063 1175 1128 q 975 1021 994 1021 z "},"":{"ha":1092,"x_min":156,"x_max":1294,"o":"m 392 325 q 542 504 467 414 q 646 642 618 594 q 683 754 683 706 q 651 828 683 800 q 563 856 619 856 q 374 785 472 856 q 263 653 303 732 q 222 490 222 575 q 392 325 222 325 m 850 268 q 1138 578 1018 411 q 1275 824 1275 774 q 1257 847 1275 847 q 1085 694 1204 847 q 946 484 1008 597 q 850 268 883 371 m 750 192 q 805 368 758 268 q 939 583 851 468 q 1260 860 1149 860 q 1285 847 1275 860 q 1294 813 1294 835 q 1185 590 1294 736 q 842 231 1063 428 q 825 114 825 154 q 840 44 825 69 q 879 19 854 19 q 1031 103 951 19 q 1068 142 1057 129 q 1097 169 1093 169 l 1103 164 q 1057 106 1103 151 q 956 22 1003 50 q 861 -6 908 -6 q 749 157 749 -6 l 749 167 q 407 -8 499 -8 q 301 107 301 -8 q 374 306 301 203 q 212 358 268 306 q 156 503 156 410 q 197 649 156 578 q 319 779 238 719 q 567 871 443 871 q 670 831 628 871 q 713 729 713 792 q 657 542 713 640 q 497 325 608 456 q 617 361 565 338 q 696 406 656 383 l 704 396 q 483 306 704 344 q 391 171 424 236 q 358 67 358 106 q 415 11 358 11 q 542 56 461 11 q 750 192 622 100 m 1076 1133 l 935 1058 q 864 1028 876 1028 q 849 1039 849 1028 q 868 1060 849 1047 q 929 1099 903 1082 q 1025 1164 976 1128 q 1094 1213 1090 1213 q 1111 1199 1107 1213 l 1151 1054 l 1154 1039 q 1144 1026 1154 1026 q 1076 1133 1129 1026 z "},"":{"ha":1092,"x_min":156,"x_max":1294,"o":"m 392 325 q 542 504 467 414 q 646 642 618 594 q 683 754 683 706 q 651 828 683 800 q 563 856 619 856 q 374 785 472 856 q 263 653 303 732 q 222 490 222 575 q 392 325 222 325 m 850 268 q 1138 578 1018 411 q 1275 824 1275 774 q 1257 847 1275 847 q 1085 694 1204 847 q 946 484 1008 597 q 850 268 883 371 m 750 192 q 805 368 758 268 q 939 583 851 468 q 1260 860 1149 860 q 1285 847 1275 860 q 1294 813 1294 835 q 1185 590 1294 736 q 842 231 1063 428 q 825 114 825 154 q 840 44 825 69 q 879 19 854 19 q 1031 103 951 19 q 1068 142 1057 129 q 1097 169 1093 169 l 1103 164 q 1057 106 1103 151 q 956 22 1003 50 q 861 -6 908 -6 q 749 157 749 -6 l 749 167 q 407 -8 499 -8 q 301 107 301 -8 q 374 306 301 203 q 212 358 268 306 q 156 503 156 410 q 197 649 156 578 q 319 779 238 719 q 567 871 443 871 q 670 831 628 871 q 713 729 713 792 q 657 542 713 640 q 497 325 608 456 q 617 361 565 338 q 696 406 656 383 l 704 396 q 483 306 704 344 q 391 171 424 236 q 358 67 358 106 q 415 11 358 11 q 542 56 461 11 q 750 192 622 100 m 1088 1108 q 1103 1144 1088 1129 q 1139 1160 1118 1160 q 1176 1119 1176 1160 q 1163 1083 1176 1099 q 1126 1068 1149 1068 q 1088 1108 1088 1068 m 890 1108 q 905 1145 890 1131 q 940 1160 919 1160 q 979 1119 979 1160 q 965 1083 979 1099 q 929 1068 951 1068 q 890 1108 890 1068 z "},"":{"ha":1122,"x_min":63,"x_max":1442,"o":"m 869 174 q 1188 699 1032 506 q 1399 869 1325 869 q 1442 819 1442 869 q 1314 563 1442 728 q 915 185 1164 369 q 648 -147 794 -33 q 349 -260 501 -260 q 139 -187 215 -260 q 63 15 63 -115 q 88 158 63 103 q 151 213 114 213 q 192 171 192 213 q 133 101 192 126 q 94 85 99 88 q 81 44 81 74 q 97 -23 81 13 q 149 -96 113 -58 q 414 -208 249 -208 q 650 -127 550 -208 q 847 135 750 -46 q 578 1 661 1 q 463 160 463 1 q 490 288 463 225 q 622 488 517 350 q 713 607 694 582 q 778 744 778 697 q 685 839 778 839 q 576 813 639 839 q 457 739 514 786 q 301 390 301 607 q 314 274 301 328 q 343 183 328 228 q 336 176 339 176 q 307 243 325 176 q 285 410 285 324 q 401 751 285 613 q 646 878 507 878 q 793 733 793 878 q 751 579 793 667 q 644 390 726 526 q 578 271 596 306 q 529 106 529 174 q 590 24 529 24 q 702 60 632 24 q 869 174 772 97 m 935 221 q 1104 375 1017 282 q 1281 585 1181 457 q 1390 737 1354 679 q 1425 822 1425 794 q 1403 850 1425 850 q 935 221 1257 850 m 1026 1021 q 1017 1029 1017 1021 q 1064 1067 1017 1031 q 1115 1121 1093 1088 q 1147 1189 1119 1126 q 1190 1226 1164 1226 q 1226 1190 1226 1226 q 1114 1063 1226 1128 q 1026 1021 1046 1021 z "},"":{"ha":1208,"x_min":76,"x_max":1338,"o":"m 1049 729 q 985 740 1018 736 q 918 744 951 744 q 725 717 818 744 q 560 639 632 689 q 410 390 410 533 q 439 306 410 338 q 522 274 468 274 q 588 288 560 274 q 635 321 611 304 l 640 315 q 600 264 640 296 q 497 225 551 225 q 401 260 436 225 q 365 357 365 296 q 414 508 365 428 q 553 651 463 588 q 961 767 718 767 q 1005 767 988 767 q 1069 761 1022 767 q 1137 823 1107 801 q 1175 844 1167 844 l 1181 838 q 1146 806 1181 836 q 1099 757 1125 788 q 1274 672 1211 735 q 1338 521 1338 608 q 1267 351 1338 422 q 1099 281 1196 281 q 986 308 1028 281 q 944 381 944 336 q 993 443 944 443 q 1040 404 1040 443 q 1032 374 1040 393 q 1024 344 1024 354 q 1099 299 1024 299 q 1210 345 1168 299 q 1253 474 1253 392 q 1074 722 1253 664 q 921 450 1035 664 q 829 292 871 356 q 374 -7 635 -7 q 156 76 236 -7 q 76 306 76 158 q 102 429 76 382 q 168 476 128 476 q 202 462 189 476 q 215 424 215 447 q 164 369 215 378 q 121 364 142 367 q 94 310 94 357 q 195 124 94 206 q 431 43 296 43 q 800 294 653 43 q 1049 729 924 511 z "},"":{"ha":419,"x_min":-208,"x_max":575,"o":"m -122 -346 l -208 -356 l 146 299 q 58 214 97 256 q -4 150 0 150 l -8 156 q 38 217 -8 165 q 182 361 89 274 q 518 757 389 757 q 558 740 542 757 q 575 700 575 724 q 531 594 575 653 q 404 463 492 543 q 356 417 379 439 q 322 342 322 381 q 333 251 322 314 q 343 156 343 189 q 341 119 343 138 q 326 74 339 100 q 393 146 354 101 q 421 172 417 172 q 426 169 424 172 q 429 165 428 167 q 382 108 429 156 q 285 23 329 51 q 199 -6 242 -6 q 138 12 161 -6 q 115 57 115 29 q 121 78 115 68 q 151 96 132 96 q 179 72 179 96 q 171 51 179 67 q 163 26 163 36 q 186 14 163 14 q 253 52 222 14 q 285 157 285 90 q 279 233 285 185 q 274 303 274 282 q 328 408 274 347 q 403 488 375 458 q 511 620 475 564 q 547 706 547 676 q 515 740 547 740 q 390 642 461 740 q 224 347 325 550 l -122 -346 z "},"":{"ha":479,"x_min":-10,"x_max":489,"o":"m 325 258 l 375 332 l 456 336 l 322 126 q 296 85 308 106 q 276 33 276 51 q 296 14 276 14 q 426 117 328 14 q 464 157 438 128 q 482 172 478 172 l 489 167 q 435 101 489 157 q 347 20 382 46 q 282 -6 313 -6 q 232 54 232 -6 l 238 100 q 85 -6 153 -6 q 33 27 53 -6 q 14 118 14 60 q 24 174 14 146 q -3 150 8 150 l -10 156 q 48 223 -10 165 q 164 311 106 281 q 267 342 222 342 q 313 326 296 342 q 331 286 331 310 q 325 258 331 274 m 65 53 q 94 15 65 15 q 208 92 136 15 q 285 199 258 149 q 311 286 311 250 q 300 313 311 301 q 271 324 289 324 q 138 225 208 324 q 85 129 104 178 q 65 53 65 81 m 367 364 l 357 356 q 286 416 336 356 q 236 518 236 476 q 275 568 236 568 q 310 525 310 568 l 310 490 q 338 404 310 444 q 367 364 351 383 z "},"":{"ha":479,"x_min":-10,"x_max":489,"o":"m 325 258 l 375 332 l 456 336 l 322 126 q 296 85 308 106 q 276 33 276 51 q 296 14 276 14 q 426 117 328 14 q 464 157 438 128 q 482 172 478 172 l 489 167 q 435 101 489 157 q 347 20 382 46 q 282 -6 313 -6 q 232 54 232 -6 l 238 100 q 85 -6 153 -6 q 33 27 53 -6 q 14 118 14 60 q 24 174 14 146 q -3 150 8 150 l -10 156 q 48 223 -10 165 q 164 311 106 281 q 267 342 222 342 q 313 326 296 342 q 331 286 331 310 q 325 258 331 274 m 65 53 q 94 15 65 15 q 208 92 136 15 q 285 199 258 149 q 311 286 311 250 q 300 313 311 301 q 271 324 289 324 q 138 225 208 324 q 85 129 104 178 q 65 53 65 81 m 269 358 q 260 367 260 358 q 307 404 260 368 q 358 458 336 425 q 390 526 363 464 q 433 564 407 564 q 469 528 469 564 q 357 400 469 465 q 269 358 289 358 z "},"":{"ha":479,"x_min":-10,"x_max":489,"o":"m 325 258 l 375 332 l 456 336 l 322 126 q 296 85 308 106 q 276 33 276 51 q 296 14 276 14 q 426 117 328 14 q 464 157 438 128 q 482 172 478 172 l 489 167 q 435 101 489 157 q 347 20 382 46 q 282 -6 313 -6 q 232 54 232 -6 l 238 100 q 85 -6 153 -6 q 33 27 53 -6 q 14 118 14 60 q 24 174 14 146 q -3 150 8 150 l -10 156 q 48 223 -10 165 q 164 311 106 281 q 267 342 222 342 q 313 326 296 342 q 331 286 331 310 q 325 258 331 274 m 65 53 q 94 15 65 15 q 208 92 136 15 q 285 199 258 149 q 311 286 311 250 q 300 313 311 301 q 271 324 289 324 q 138 225 208 324 q 85 129 104 178 q 65 53 65 81 m 371 471 l 229 396 q 158 365 171 365 q 143 376 143 365 q 163 397 143 385 q 224 436 197 419 q 319 501 271 465 q 389 550 385 550 q 406 536 401 550 l 446 392 l 449 376 q 439 364 449 364 q 371 471 424 364 z "},"":{"ha":479,"x_min":-10,"x_max":494,"o":"m 325 258 l 375 332 l 456 336 l 322 126 q 296 85 308 106 q 276 33 276 51 q 296 14 276 14 q 426 117 328 14 q 464 157 438 128 q 482 172 478 172 l 489 167 q 435 101 489 157 q 347 20 382 46 q 282 -6 313 -6 q 232 54 232 -6 l 238 100 q 85 -6 153 -6 q 33 27 53 -6 q 14 118 14 60 q 24 174 14 146 q -3 150 8 150 l -10 156 q 48 223 -10 165 q 164 311 106 281 q 267 342 222 342 q 313 326 296 342 q 331 286 331 310 q 325 258 331 274 m 65 53 q 94 15 65 15 q 208 92 136 15 q 285 199 258 149 q 311 286 311 250 q 300 313 311 301 q 271 324 289 324 q 138 225 208 324 q 85 129 104 178 q 65 53 65 81 m 261 503 q 336 480 285 503 q 407 457 388 457 q 456 486 433 457 q 483 515 478 515 q 494 507 494 515 q 468 444 494 481 q 396 400 435 400 q 319 423 371 400 q 249 446 268 446 q 200 417 222 446 q 172 388 178 388 q 161 396 161 388 q 189 458 161 421 q 261 503 222 503 z "},"":{"ha":479,"x_min":-10,"x_max":489,"o":"m 325 258 l 375 332 l 456 336 l 322 126 q 296 85 308 106 q 276 33 276 51 q 296 14 276 14 q 426 117 328 14 q 464 157 438 128 q 482 172 478 172 l 489 167 q 435 101 489 157 q 347 20 382 46 q 282 -6 313 -6 q 232 54 232 -6 l 238 100 q 85 -6 153 -6 q 33 27 53 -6 q 14 118 14 60 q 24 174 14 146 q -3 150 8 150 l -10 156 q 48 223 -10 165 q 164 311 106 281 q 267 342 222 342 q 313 326 296 342 q 331 286 331 310 q 325 258 331 274 m 65 53 q 94 15 65 15 q 208 92 136 15 q 285 199 258 149 q 311 286 311 250 q 300 313 311 301 q 271 324 289 324 q 138 225 208 324 q 85 129 104 178 q 65 53 65 81 m 382 446 q 397 482 382 467 q 433 497 413 497 q 471 457 471 497 q 457 421 471 436 q 421 406 443 406 q 382 446 382 406 m 185 446 q 199 483 185 468 q 235 497 214 497 q 274 457 274 497 q 260 421 274 436 q 224 406 246 406 q 185 446 185 406 z "},"":{"ha":479,"x_min":-10,"x_max":489,"o":"m 325 258 l 375 332 l 456 336 l 322 126 q 296 85 308 106 q 276 33 276 51 q 296 14 276 14 q 426 117 328 14 q 464 157 438 128 q 482 172 478 172 l 489 167 q 435 101 489 157 q 347 20 382 46 q 282 -6 313 -6 q 232 54 232 -6 l 238 100 q 85 -6 153 -6 q 33 27 53 -6 q 14 118 14 60 q 24 174 14 146 q -3 150 8 150 l -10 156 q 48 223 -10 165 q 164 311 106 281 q 267 342 222 342 q 313 326 296 342 q 331 286 331 310 q 325 258 331 274 m 65 53 q 94 15 65 15 q 208 92 136 15 q 285 199 258 149 q 311 286 311 250 q 300 313 311 301 q 271 324 289 324 q 138 225 208 324 q 85 129 104 178 q 65 53 65 81 m 246 464 q 276 537 246 507 q 349 567 306 567 q 422 538 393 567 q 451 464 451 508 q 422 390 451 421 q 349 360 393 360 q 276 390 307 360 q 246 464 246 421 m 279 464 q 299 413 279 433 q 349 392 318 392 q 399 413 378 392 q 421 464 421 435 q 399 513 421 493 q 349 533 378 533 q 299 514 318 533 q 279 464 279 494 z "},"":{"ha":590,"x_min":-10,"x_max":603,"o":"m 72 49 q 81 21 72 29 q 99 13 90 13 q 200 79 139 13 q 281 190 254 136 q 308 286 308 244 q 297 311 308 300 q 271 322 286 322 q 149 235 211 322 q 72 49 72 131 m 339 136 q 486 211 426 154 q 538 303 538 260 q 515 326 538 326 q 429 278 479 326 q 339 136 371 221 m 401 294 q 511 340 456 340 q 558 325 540 340 q 576 286 576 310 q 511 190 576 238 q 333 117 446 143 l 326 68 q 375 13 326 13 q 525 100 435 13 q 574 153 546 121 q 596 172 590 172 l 603 165 q 540 93 603 158 q 368 -6 442 -6 q 294 31 322 -6 q 267 129 267 67 q 101 -6 168 -6 q 47 26 68 -6 q 26 111 26 57 q 32 155 26 135 q 40 186 38 175 q -3 150 4 150 l -10 156 q 42 215 -10 168 q 164 307 101 274 q 267 340 226 340 q 328 279 328 340 l 364 343 l 431 350 l 401 294 z "},"":{"ha":342,"x_min":-72,"x_max":353,"o":"m 24 174 q -3 151 7 151 l -10 156 q 39 215 -10 165 q 258 342 157 342 q 317 325 296 342 q 338 278 338 308 q 325 238 338 253 q 293 222 313 222 q 257 254 257 222 q 282 286 257 269 q 294 304 294 294 q 268 324 294 324 q 150 243 218 324 q 76 68 76 156 q 126 11 76 11 q 276 100 185 11 q 325 153 301 125 q 346 172 342 172 q 351 169 349 172 q 353 165 351 167 q 292 93 353 157 q 119 -6 193 -6 q 46 31 75 -6 q 17 125 17 68 q 24 174 17 143 m 53 -71 q 122 -53 83 -53 q 211 -128 211 -53 q 177 -198 211 -171 q 86 -225 143 -225 q -22 -205 28 -225 q -72 -174 -72 -185 q -62 -168 -65 -168 q 10 -187 -26 -179 q 82 -196 47 -196 q 138 -178 115 -196 q 161 -136 161 -160 q 96 -89 161 -89 l 60 -94 l 53 -71 z "},"":{"ha":342,"x_min":-8,"x_max":353,"o":"m 24 175 q -3 151 7 151 l -8 156 q 39 215 -8 167 q 261 342 156 342 q 328 286 328 342 q 263 190 328 238 q 83 117 197 143 l 78 68 q 126 13 78 13 q 194 34 160 13 q 276 100 229 56 q 325 153 301 125 q 346 172 342 172 q 351 169 349 172 q 353 165 351 167 q 292 93 353 157 q 121 -6 193 -6 q 46 31 75 -6 q 17 125 17 67 q 24 175 17 144 m 90 136 q 236 211 176 154 q 288 303 288 260 q 267 326 288 326 q 181 278 231 326 q 90 136 122 221 m 289 364 l 279 356 q 208 416 258 356 q 158 518 158 476 q 197 568 158 568 q 232 525 232 568 l 232 490 q 260 404 232 444 q 289 364 274 383 z "},"":{"ha":342,"x_min":-8,"x_max":392,"o":"m 24 175 q -3 151 7 151 l -8 156 q 39 215 -8 167 q 261 342 156 342 q 328 286 328 342 q 263 190 328 238 q 83 117 197 143 l 78 68 q 126 13 78 13 q 194 34 160 13 q 276 100 229 56 q 325 153 301 125 q 346 172 342 172 q 351 169 349 172 q 353 165 351 167 q 292 93 353 157 q 121 -6 193 -6 q 46 31 75 -6 q 17 125 17 67 q 24 175 17 144 m 90 136 q 236 211 176 154 q 288 303 288 260 q 267 326 288 326 q 181 278 231 326 q 90 136 122 221 m 192 358 q 182 367 182 358 q 229 404 182 368 q 281 458 258 425 q 313 526 285 464 q 356 564 329 564 q 392 528 392 564 q 279 400 392 465 q 192 358 211 358 z "},"":{"ha":342,"x_min":-8,"x_max":371,"o":"m 24 175 q -3 151 7 151 l -8 156 q 39 215 -8 167 q 261 342 156 342 q 328 286 328 342 q 263 190 328 238 q 83 117 197 143 l 78 68 q 126 13 78 13 q 194 34 160 13 q 276 100 229 56 q 325 153 301 125 q 346 172 342 172 q 351 169 349 172 q 353 165 351 167 q 292 93 353 157 q 121 -6 193 -6 q 46 31 75 -6 q 17 125 17 67 q 24 175 17 144 m 90 136 q 236 211 176 154 q 288 303 288 260 q 267 326 288 326 q 181 278 231 326 q 90 136 122 221 m 293 471 l 151 396 q 81 365 93 365 q 65 376 65 365 q 85 397 65 385 q 146 436 119 419 q 242 501 193 465 q 311 550 307 550 q 328 536 324 550 l 368 392 l 371 376 q 361 364 371 364 q 293 471 346 364 z "},"":{"ha":342,"x_min":-8,"x_max":393,"o":"m 24 175 q -3 151 7 151 l -8 156 q 39 215 -8 167 q 261 342 156 342 q 328 286 328 342 q 263 190 328 238 q 83 117 197 143 l 78 68 q 126 13 78 13 q 194 34 160 13 q 276 100 229 56 q 325 153 301 125 q 346 172 342 172 q 351 169 349 172 q 353 165 351 167 q 292 93 353 157 q 121 -6 193 -6 q 46 31 75 -6 q 17 125 17 67 q 24 175 17 144 m 90 136 q 236 211 176 154 q 288 303 288 260 q 267 326 288 326 q 181 278 231 326 q 90 136 122 221 m 304 446 q 319 482 304 467 q 356 497 335 497 q 393 457 393 497 q 379 421 393 436 q 343 406 365 406 q 304 446 304 406 m 107 446 q 122 483 107 468 q 157 497 136 497 q 196 457 196 497 q 182 421 196 436 q 146 406 168 406 q 107 446 107 406 z "},"":{"ha":267,"x_min":-8,"x_max":279,"o":"m 108 265 q 43 197 83 242 q -4 151 3 151 l -8 156 q 146 331 -8 169 l 233 336 l 113 147 q 69 76 82 100 q 53 33 53 46 q 74 11 53 11 q 131 37 97 11 q 217 117 164 63 q 246 150 239 142 q 272 172 265 172 l 279 165 q 224 99 279 157 q 75 -6 119 -6 q 10 71 10 -6 q 51 176 10 108 q 108 265 72 211 m 246 364 l 236 356 q 165 416 215 356 q 115 518 115 476 q 154 568 115 568 q 189 525 189 568 l 189 490 q 217 404 189 444 q 246 364 231 383 z "},"":{"ha":267,"x_min":-8,"x_max":349,"o":"m 108 265 q 43 197 83 242 q -4 151 3 151 l -8 156 q 146 331 -8 169 l 233 336 l 113 147 q 69 76 82 100 q 53 33 53 46 q 74 11 53 11 q 131 37 97 11 q 217 117 164 63 q 246 150 239 142 q 272 172 265 172 l 279 165 q 224 99 279 157 q 75 -6 119 -6 q 10 71 10 -6 q 51 176 10 108 q 108 265 72 211 m 149 358 q 139 367 139 358 q 186 404 139 368 q 238 458 215 425 q 269 526 242 464 q 313 564 286 564 q 349 528 349 564 q 236 400 349 465 q 149 358 168 358 z "},"":{"ha":267,"x_min":-8,"x_max":328,"o":"m 108 265 q 43 197 83 242 q -4 151 3 151 l -8 156 q 146 331 -8 169 l 233 336 l 113 147 q 69 76 82 100 q 53 33 53 46 q 74 11 53 11 q 131 37 97 11 q 217 117 164 63 q 246 150 239 142 q 272 172 265 172 l 279 165 q 224 99 279 157 q 75 -6 119 -6 q 10 71 10 -6 q 51 176 10 108 q 108 265 72 211 m 250 471 l 108 396 q 38 365 50 365 q 22 376 22 365 q 42 397 22 385 q 103 436 76 419 q 199 501 150 465 q 268 550 264 550 q 285 536 281 550 l 325 392 l 328 376 q 318 364 328 364 q 250 471 303 364 z "},"":{"ha":267,"x_min":-8,"x_max":350,"o":"m 108 265 q 43 197 83 242 q -4 151 3 151 l -8 156 q 146 331 -8 169 l 233 336 l 113 147 q 69 76 82 100 q 53 33 53 46 q 74 11 53 11 q 131 37 97 11 q 217 117 164 63 q 246 150 239 142 q 272 172 265 172 l 279 165 q 224 99 279 157 q 75 -6 119 -6 q 10 71 10 -6 q 51 176 10 108 q 108 265 72 211 m 261 446 q 276 482 261 467 q 313 497 292 497 q 350 457 350 497 q 336 421 350 436 q 300 406 322 406 q 261 446 261 406 m 64 446 q 78 483 64 468 q 114 497 93 497 q 153 457 153 497 q 139 421 153 436 q 103 406 125 406 q 64 446 64 406 z "},"":{"ha":403,"x_min":-8,"x_max":460,"o":"m 67 56 q 103 14 67 14 q 219 86 151 14 q 306 263 306 176 q 258 324 306 324 q 136 225 206 324 q 85 131 103 176 q 67 56 67 85 m 315 321 l 321 372 q 315 444 321 403 q 296 539 310 485 l 138 486 l 131 507 l 290 558 q 243 678 271 617 q 222 728 222 724 q 224 734 222 732 q 228 738 226 736 q 325 568 243 738 l 451 610 l 460 589 l 332 550 q 372 336 372 429 q 269 72 372 167 q 183 16 231 38 q 97 -6 135 -6 q 14 119 14 -6 q 17 144 14 131 q 24 175 19 158 q -3 151 7 151 l -8 156 q 42 218 -8 164 q 258 344 157 344 q 315 321 293 344 z "},"":{"ha":538,"x_min":-8,"x_max":550,"o":"m 17 -1 l 175 235 q 203 277 193 260 q 214 307 214 294 q 197 324 214 324 q 143 295 178 324 q 54 210 108 267 q 13 160 33 185 q -3 150 3 150 l -8 156 q 19 194 -8 163 l 58 238 q 201 343 157 343 q 249 286 249 343 q 200 156 249 232 q 421 342 367 342 q 468 283 468 342 q 446 211 468 249 q 392 136 443 206 q 351 74 365 99 q 336 33 336 49 q 356 13 336 13 q 488 115 389 13 q 543 172 542 172 l 550 165 q 490 96 550 158 q 354 -6 390 -6 q 313 18 329 -6 q 296 81 296 42 q 317 150 296 114 q 374 229 331 175 q 406 267 389 247 q 428 308 428 294 q 414 322 428 322 q 101 7 351 322 l 17 -1 m 293 503 q 368 480 317 503 q 439 457 419 457 q 488 486 465 457 q 515 515 510 515 q 526 507 526 515 q 500 444 526 481 q 428 400 467 400 q 351 423 403 400 q 281 446 300 446 q 232 417 254 446 q 204 388 210 388 q 193 396 193 388 q 221 458 193 421 q 293 503 254 503 z "},"":{"ha":403,"x_min":-8,"x_max":422,"o":"m 272 110 l 292 107 q 341 119 315 107 q 392 160 367 131 l 408 178 l 418 182 q 422 174 422 176 l 421 168 l 408 153 q 285 89 356 89 q 257 92 267 89 q 96 -6 168 -6 q 14 119 14 -6 q 17 144 14 131 q 24 175 19 158 q -3 151 7 151 l -8 156 q 42 218 -8 164 q 155 311 99 279 q 256 343 211 343 q 316 320 293 343 q 339 257 339 297 q 272 110 339 193 m 68 57 q 106 14 68 14 q 156 32 126 14 q 219 86 186 50 q 306 263 306 176 q 260 324 306 324 q 136 225 206 324 q 85 131 103 178 q 68 57 68 85 m 304 364 l 294 356 q 224 416 274 356 q 174 518 174 476 q 213 568 174 568 q 247 525 247 568 l 247 490 q 275 404 247 444 q 304 364 289 383 z "},"":{"ha":403,"x_min":-8,"x_max":422,"o":"m 272 110 l 292 107 q 341 119 315 107 q 392 160 367 131 l 408 178 l 418 182 q 422 174 422 176 l 421 168 l 408 153 q 285 89 356 89 q 257 92 267 89 q 96 -6 168 -6 q 14 119 14 -6 q 17 144 14 131 q 24 175 19 158 q -3 151 7 151 l -8 156 q 42 218 -8 164 q 155 311 99 279 q 256 343 211 343 q 316 320 293 343 q 339 257 339 297 q 272 110 339 193 m 68 57 q 106 14 68 14 q 156 32 126 14 q 219 86 186 50 q 306 263 306 176 q 260 324 306 324 q 136 225 206 324 q 85 131 103 178 q 68 57 68 85 m 207 358 q 197 367 197 358 q 244 404 197 368 q 296 458 274 425 q 328 526 300 464 q 371 564 344 564 q 407 528 407 564 q 294 400 407 465 q 207 358 226 358 z "},"":{"ha":403,"x_min":-8,"x_max":422,"o":"m 272 110 l 292 107 q 341 119 315 107 q 392 160 367 131 l 408 178 l 418 182 q 422 174 422 176 l 421 168 l 408 153 q 285 89 356 89 q 257 92 267 89 q 96 -6 168 -6 q 14 119 14 -6 q 17 144 14 131 q 24 175 19 158 q -3 151 7 151 l -8 156 q 42 218 -8 164 q 155 311 99 279 q 256 343 211 343 q 316 320 293 343 q 339 257 339 297 q 272 110 339 193 m 68 57 q 106 14 68 14 q 156 32 126 14 q 219 86 186 50 q 306 263 306 176 q 260 324 306 324 q 136 225 206 324 q 85 131 103 178 q 68 57 68 85 m 308 471 l 167 396 q 96 365 108 365 q 81 376 81 365 q 100 397 81 385 q 161 436 135 419 q 257 501 208 465 q 326 550 322 550 q 343 536 339 550 l 383 392 l 386 376 q 376 364 386 364 q 308 471 361 364 z "},"":{"ha":403,"x_min":-8,"x_max":432,"o":"m 272 110 l 292 107 q 341 119 315 107 q 392 160 367 131 l 408 178 l 418 182 q 422 174 422 176 l 421 168 l 408 153 q 285 89 356 89 q 257 92 267 89 q 96 -6 168 -6 q 14 119 14 -6 q 17 144 14 131 q 24 175 19 158 q -3 151 7 151 l -8 156 q 42 218 -8 164 q 155 311 99 279 q 256 343 211 343 q 316 320 293 343 q 339 257 339 297 q 272 110 339 193 m 68 57 q 106 14 68 14 q 156 32 126 14 q 219 86 186 50 q 306 263 306 176 q 260 324 306 324 q 136 225 206 324 q 85 131 103 178 q 68 57 68 85 m 199 503 q 274 480 222 503 q 344 457 325 457 q 393 486 371 457 q 421 515 415 515 q 432 507 432 515 q 406 444 432 481 q 333 400 372 400 q 257 423 308 400 q 186 446 206 446 q 138 417 160 446 q 110 388 115 388 q 99 396 99 388 q 126 458 99 421 q 199 503 160 503 z "},"":{"ha":403,"x_min":-8,"x_max":422,"o":"m 272 110 l 292 107 q 341 119 315 107 q 392 160 367 131 l 408 178 l 418 182 q 422 174 422 176 l 421 168 l 408 153 q 285 89 356 89 q 257 92 267 89 q 96 -6 168 -6 q 14 119 14 -6 q 17 144 14 131 q 24 175 19 158 q -3 151 7 151 l -8 156 q 42 218 -8 164 q 155 311 99 279 q 256 343 211 343 q 316 320 293 343 q 339 257 339 297 q 272 110 339 193 m 68 57 q 106 14 68 14 q 156 32 126 14 q 219 86 186 50 q 306 263 306 176 q 260 324 306 324 q 136 225 206 324 q 85 131 103 178 q 68 57 68 85 m 319 446 q 335 482 319 467 q 371 497 350 497 q 408 457 408 497 q 394 421 408 436 q 358 406 381 406 q 319 446 319 406 m 122 446 q 137 483 122 468 q 172 497 151 497 q 211 457 211 497 q 197 421 211 436 q 161 406 183 406 q 122 446 122 406 z "},"":{"ha":1013,"x_min":150,"x_max":861,"o":"m 507 624 q 549 607 532 624 q 565 565 565 590 q 549 524 565 542 q 507 506 532 506 q 465 522 482 506 q 449 565 449 539 q 465 607 449 590 q 507 624 482 624 m 150 385 l 861 385 l 861 338 l 150 338 l 150 385 m 507 217 q 548 199 531 217 q 565 157 565 182 q 549 115 565 132 q 507 99 532 99 q 465 115 482 99 q 449 157 449 132 q 465 199 449 181 q 507 217 482 217 z "},"":{"ha":401,"x_min":-10,"x_max":418,"o":"m 256 90 q 94 -6 169 -6 l 82 -4 l 25 -89 l 6 -76 l 61 4 q 14 118 14 25 q 16 144 14 129 q 24 175 18 158 q -3 151 10 151 l -10 156 q 4 175 -1 168 q 46 224 22 200 q 158 313 104 283 q 256 343 211 343 q 288 338 272 343 l 336 411 l 354 400 l 306 328 q 338 257 338 308 q 271 108 338 190 l 293 106 q 369 140 326 106 q 411 176 390 158 l 418 174 q 372 123 418 157 q 283 89 326 89 l 256 90 m 76 25 l 276 319 l 258 322 q 136 224 206 322 q 84 131 101 176 q 67 53 67 85 q 76 25 67 42 m 293 307 l 92 14 l 101 13 q 204 71 142 13 q 278 168 251 115 q 306 261 306 221 q 293 307 306 289 z "},"":{"ha":471,"x_min":-10,"x_max":482,"o":"m 303 106 q 276 61 285 76 q 268 33 268 46 q 288 13 268 13 q 419 115 319 13 q 457 157 436 132 q 475 172 469 172 l 482 167 q 435 108 482 156 q 286 -6 326 -6 q 244 17 260 -6 q 229 76 229 39 q 235 111 229 89 q 75 -6 132 -6 q 27 15 46 -6 q 8 71 8 36 q 50 176 8 108 q 107 265 78 222 q 29 182 71 229 q -4 151 3 151 l -10 156 q 144 331 -10 168 l 232 335 l 111 147 q 53 33 53 53 q 72 13 53 13 q 367 331 175 13 l 449 335 l 303 106 m 363 364 l 353 356 q 282 416 332 356 q 232 518 232 476 q 271 568 232 568 q 306 525 306 568 l 306 490 q 333 404 306 444 q 363 364 347 383 z "},"":{"ha":471,"x_min":-10,"x_max":482,"o":"m 303 106 q 276 61 285 76 q 268 33 268 46 q 288 13 268 13 q 419 115 319 13 q 457 157 436 132 q 475 172 469 172 l 482 167 q 435 108 482 156 q 286 -6 326 -6 q 244 17 260 -6 q 229 76 229 39 q 235 111 229 89 q 75 -6 132 -6 q 27 15 46 -6 q 8 71 8 36 q 50 176 8 108 q 107 265 78 222 q 29 182 71 229 q -4 151 3 151 l -10 156 q 144 331 -10 168 l 232 335 l 111 147 q 53 33 53 53 q 72 13 53 13 q 367 331 175 13 l 449 335 l 303 106 m 265 358 q 256 367 256 358 q 303 404 256 368 q 354 458 332 425 q 386 526 358 464 q 429 564 403 564 q 465 528 465 564 q 353 400 465 465 q 265 358 285 358 z "},"":{"ha":471,"x_min":-10,"x_max":482,"o":"m 303 106 q 276 61 285 76 q 268 33 268 46 q 288 13 268 13 q 419 115 319 13 q 457 157 436 132 q 475 172 469 172 l 482 167 q 435 108 482 156 q 286 -6 326 -6 q 244 17 260 -6 q 229 76 229 39 q 235 111 229 89 q 75 -6 132 -6 q 27 15 46 -6 q 8 71 8 36 q 50 176 8 108 q 107 265 78 222 q 29 182 71 229 q -4 151 3 151 l -10 156 q 144 331 -10 168 l 232 335 l 111 147 q 53 33 53 53 q 72 13 53 13 q 367 331 175 13 l 449 335 l 303 106 m 367 471 l 225 396 q 154 365 167 365 q 139 376 139 365 q 158 397 139 385 q 219 436 193 419 q 315 501 267 465 q 385 550 381 550 q 401 536 397 550 l 442 392 l 444 376 q 435 364 444 364 q 367 471 419 364 z "},"":{"ha":471,"x_min":-10,"x_max":482,"o":"m 303 106 q 276 61 285 76 q 268 33 268 46 q 288 13 268 13 q 419 115 319 13 q 457 157 436 132 q 475 172 469 172 l 482 167 q 435 108 482 156 q 286 -6 326 -6 q 244 17 260 -6 q 229 76 229 39 q 235 111 229 89 q 75 -6 132 -6 q 27 15 46 -6 q 8 71 8 36 q 50 176 8 108 q 107 265 78 222 q 29 182 71 229 q -4 151 3 151 l -10 156 q 144 331 -10 168 l 232 335 l 111 147 q 53 33 53 53 q 72 13 53 13 q 367 331 175 13 l 449 335 l 303 106 m 378 446 q 393 482 378 467 q 429 497 408 497 q 467 457 467 497 q 453 421 467 436 q 417 406 439 406 q 378 446 378 406 m 181 446 q 195 483 181 468 q 231 497 210 497 q 269 457 269 497 q 256 421 269 436 q 219 406 242 406 q 181 446 181 406 z "},"":{"ha":518,"x_min":-67,"x_max":531,"o":"m 353 161 q 150 4 217 4 q 114 24 129 4 q 99 75 99 43 q 118 150 99 114 q 164 217 125 164 q 213 307 213 282 q 194 324 213 324 q 141 294 176 324 q 54 208 106 264 q 17 165 49 203 q -3 150 3 150 l -8 156 q 19 194 -8 163 l 58 238 q 119 300 103 285 q 204 343 167 343 q 257 279 257 343 q 236 208 257 246 q 207 164 231 197 q 140 44 140 61 q 146 28 140 35 q 160 21 151 21 q 267 94 192 21 q 447 332 361 186 l 521 336 q 328 -3 408 153 q 446 90 396 42 q 525 172 485 131 l 531 165 q 311 -31 531 104 q 135 -294 221 -200 q -4 -382 54 -382 q -67 -322 -67 -382 q 257 -24 -67 -211 l 353 161 m 244 -49 q 35 -203 108 -126 q -33 -324 -33 -272 q 1 -365 -33 -365 q 244 -49 83 -365 m 293 358 q 283 367 283 358 q 331 404 283 368 q 382 458 360 425 q 414 526 386 464 q 457 564 431 564 q 493 528 493 564 q 381 400 493 465 q 293 358 313 358 z "},"":{"ha":458,"x_min":-231,"x_max":486,"o":"m -231 -319 l 124 278 l 26 174 q 8 156 17 163 q -1 150 6 153 l -8 156 q 100 276 35 201 q 238 461 174 361 l 407 728 l 486 739 l 121 156 q 343 342 290 342 q 389 283 389 342 q 357 193 389 240 q 314 136 328 157 q 257 33 257 57 q 276 13 257 13 q 396 103 303 13 q 444 154 414 119 q 461 172 451 161 q 469 165 469 172 q 411 96 469 154 q 276 -6 311 -6 q 218 81 218 -6 q 239 150 218 113 q 296 229 256 179 q 326 267 311 247 q 349 308 349 294 q 335 324 349 324 q 171 185 293 324 q 8 -40 81 83 l -151 -311 l -231 -319 z "},"":{"ha":518,"x_min":-67,"x_max":531,"o":"m 353 161 q 150 4 217 4 q 114 24 129 4 q 99 75 99 43 q 118 150 99 114 q 164 217 125 164 q 213 307 213 282 q 194 324 213 324 q 141 294 176 324 q 54 208 106 264 q 17 165 49 203 q -3 150 3 150 l -8 156 q 19 194 -8 163 l 58 238 q 119 300 103 285 q 204 343 167 343 q 257 279 257 343 q 236 208 257 246 q 207 164 231 197 q 140 44 140 61 q 146 28 140 35 q 160 21 151 21 q 267 94 192 21 q 447 332 361 186 l 521 336 q 328 -3 408 153 q 446 90 396 42 q 525 172 485 131 l 531 165 q 311 -31 531 104 q 135 -294 221 -200 q -4 -382 54 -382 q -67 -322 -67 -382 q 257 -24 -67 -211 l 353 161 m 244 -49 q 35 -203 108 -126 q -33 -324 -33 -272 q 1 -365 -33 -365 q 244 -49 83 -365 m 406 446 q 421 482 406 467 q 457 497 436 497 q 494 457 494 497 q 481 421 494 436 q 444 406 467 406 q 406 446 406 406 m 208 446 q 223 483 208 468 q 258 497 238 497 q 297 457 297 497 q 283 421 297 436 q 247 406 269 406 q 208 446 208 406 z "},"":{"ha":607,"x_min":257,"x_max":589,"o":"m 271 543 q 285 533 279 543 q 294 514 290 522 q 393 454 325 454 q 444 463 419 454 q 499 489 469 472 q 558 526 529 506 q 579 540 578 540 q 589 531 589 540 q 576 505 589 519 q 556 481 564 490 q 383 385 464 385 q 294 431 331 385 q 257 522 257 476 q 271 543 257 543 z "},"":{"ha":607,"x_min":364,"x_max":458,"o":"m 364 447 q 379 490 364 474 q 418 507 394 507 q 458 465 458 507 q 406 408 458 408 q 364 447 364 408 z "},"":{"ha":267,"x_min":-8,"x_max":279,"o":"m 108 265 q 43 197 83 242 q -4 151 3 151 l -8 156 q 146 331 -8 169 l 233 336 l 113 147 q 69 76 82 100 q 53 33 53 46 q 74 11 53 11 q 131 37 97 11 q 217 117 164 63 q 246 150 239 142 q 272 172 265 172 l 279 165 q 224 99 279 157 q 75 -6 119 -6 q 10 71 10 -6 q 51 176 10 108 q 108 265 72 211 z "},"":{"ha":607,"x_min":307,"x_max":514,"o":"m 307 464 q 337 537 307 507 q 411 567 367 567 q 485 538 456 567 q 514 464 514 508 q 485 390 514 421 q 411 360 456 360 q 338 390 368 360 q 307 464 307 421 m 342 464 q 361 413 342 433 q 411 392 381 392 q 461 413 440 392 q 482 464 482 433 q 461 513 482 492 q 411 533 440 533 q 361 514 381 533 q 342 464 342 494 z "},"":{"ha":607,"x_min":124,"x_max":296,"o":"m 261 4 q 178 -144 178 -90 q 188 -179 178 -167 q 218 -192 199 -192 q 256 -181 239 -192 q 286 -154 271 -167 q 293 -157 292 -154 q 296 -161 294 -160 q 268 -199 296 -176 q 192 -226 235 -226 q 142 -209 161 -226 q 124 -161 124 -192 q 242 4 124 -96 l 261 4 z "},"":{"ha":607,"x_min":322,"x_max":626,"o":"m 400 443 l 540 518 q 611 547 597 547 q 626 538 626 547 q 547 476 626 528 q 410 381 483 436 q 381 363 386 363 q 365 378 371 363 l 325 521 l 322 536 q 331 550 322 550 q 400 443 346 550 z "},"":{"ha":1090,"x_min":-7,"x_max":1222,"o":"m 646 435 l 860 532 l 865 511 l 626 401 q 461 161 533 239 q 276 43 376 69 q 553 -33 460 -11 q 753 -62 675 -62 q 940 -10 872 -62 q 1008 126 1008 42 q 1006 169 1008 147 q 1003 194 1003 192 q 1010 204 1003 204 q 1026 136 1026 204 q 937 -56 1026 21 q 721 -133 847 -133 q 598 -113 667 -133 q 432 -53 529 -93 q 238 31 396 -37 q 79 1 158 1 q -7 50 -7 1 q 44 88 -7 88 q 150 74 85 88 q 236 53 206 60 q 403 133 322 53 q 567 372 485 213 l 333 263 l 326 286 l 582 404 q 1044 847 790 847 q 1174 803 1125 847 q 1222 685 1222 758 q 1162 518 1222 600 q 1008 400 1101 436 q 929 376 972 386 q 863 365 886 365 q 851 371 851 365 q 877 382 851 376 q 938 396 903 388 q 1089 498 1024 417 q 1154 679 1154 579 q 1122 789 1154 750 q 1031 828 1090 828 q 646 435 833 828 z "},"":{"ha":267,"x_min":-8,"x_max":482,"o":"m 108 265 q 43 197 83 242 q -4 151 3 151 l -8 156 q 161 356 -8 157 l 15 300 l 35 329 l 179 385 l 403 728 l 482 739 l 283 422 l 426 476 l 407 446 l 264 390 l 108 147 q 49 33 49 51 q 71 11 49 11 q 133 39 97 11 q 217 117 158 58 q 254 157 228 128 q 272 172 268 172 l 279 165 q 224 99 279 157 q 75 -6 119 -6 q 10 71 10 -6 q 51 176 10 108 q 108 265 72 211 z "},"":{"ha":203,"x_min":-208,"x_max":410,"o":"m 410 586 l -175 -15 l -208 -15 l 378 586 l 410 586 z "},"":{"ha":535,"x_min":-208,"x_max":608,"o":"m 224 344 q 472 564 381 450 q 547 706 547 657 q 515 740 547 740 q 224 344 418 740 m 61 17 q 156 58 104 17 q 264 169 189 86 q 413 331 349 265 l 500 336 l 381 147 q 321 33 321 57 q 342 11 321 11 q 483 117 385 11 q 539 172 536 172 q 544 169 542 172 q 547 165 546 167 q 492 100 547 156 q 407 22 436 44 q 343 -6 371 -6 q 295 15 314 -6 q 276 71 276 36 q 318 176 276 108 q 375 265 339 211 q 190 67 282 165 q 44 -12 107 -12 l -122 -346 l -208 -356 l -15 0 q -35 33 -35 15 q -24 62 -35 50 q 3 74 -12 74 l 22 68 l 146 299 q 58 214 97 256 q -4 150 0 150 l -8 156 q 38 217 -8 165 q 182 361 89 274 q 518 757 389 757 q 558 740 542 757 q 575 700 575 724 q 203 306 575 574 l 61 17 m 526 526 q 542 563 526 546 q 576 581 558 581 q 608 546 608 581 q 594 509 608 526 q 560 492 579 492 q 526 526 526 492 z "},"":{"ha":535,"x_min":-208,"x_max":750,"o":"m 224 344 q 472 564 381 450 q 547 706 547 657 q 515 740 547 740 q 224 344 418 740 m 61 17 l 68 17 q 217 115 124 17 q 375 292 303 207 q 431 358 399 319 l 671 728 l 750 739 l 375 147 q 332 76 344 100 q 315 33 315 46 q 338 11 315 11 q 400 39 364 11 q 483 117 425 58 q 514 149 499 132 q 539 172 535 172 q 544 169 542 172 q 547 165 546 167 q 492 100 547 156 q 407 22 436 44 q 343 -6 371 -6 q 295 15 314 -6 q 276 71 276 36 q 318 176 276 108 q 375 265 339 211 q 244 122 308 192 q 139 22 179 51 q 46 -12 90 -12 l -122 -346 l -208 -356 l -15 0 q -35 33 -35 15 q -24 62 -35 50 q 3 74 -12 74 l 22 68 l 146 299 q 58 214 97 256 q -4 150 0 150 l -8 156 q 38 217 -8 165 q 182 361 89 274 q 518 757 389 757 q 558 740 542 757 q 575 700 575 724 q 203 306 575 574 l 61 17 z "},"":{"ha":931,"x_min":35,"x_max":1382,"o":"m 1000 686 q 1310 865 1192 865 q 1371 806 1371 865 q 1292 691 1371 740 q 1082 642 1213 642 l 993 646 q 731 354 826 453 q 503 150 604 224 q 296 43 393 69 q 444 7 361 38 q 618 -67 497 -12 q 806 -149 774 -135 q 979 -210 907 -190 q 1124 -231 1051 -231 q 1336 -156 1253 -231 q 1363 -126 1346 -147 q 1378 -114 1372 -114 l 1382 -118 q 1339 -175 1382 -133 q 1039 -304 1199 -304 q 893 -272 969 -304 q 741 -190 835 -247 q 557 -79 647 -133 q 281 26 378 26 l 275 26 q 151 3 194 11 q 82 -4 108 -4 q 35 25 35 -4 q 121 61 35 61 q 175 58 142 61 q 247 50 208 54 q 431 124 326 50 q 664 333 522 189 q 964 654 740 411 q 726 769 928 665 q 607 807 654 807 q 483 728 535 807 q 432 531 432 650 l 438 456 q 489 311 489 374 q 461 275 489 275 q 419 446 419 275 q 326 510 378 488 q 249 540 288 525 q 257 547 254 547 q 329 529 285 547 q 419 472 374 511 l 418 526 q 506 785 418 679 q 679 881 585 881 q 860 786 742 881 q 1000 686 946 717 m 1025 676 q 1103 663 1076 663 q 1288 715 1215 663 q 1351 817 1351 761 q 1303 853 1351 853 q 1025 676 1203 853 m 974 1106 l 1114 1181 q 1185 1210 1171 1210 q 1200 1200 1200 1210 q 1121 1139 1200 1190 q 983 1043 1057 1099 q 954 1025 960 1025 q 939 1040 944 1025 l 899 1183 l 896 1199 q 904 1213 896 1213 q 974 1106 919 1213 z "},"":{"ha":401,"x_min":-44,"x_max":508,"o":"m 13 69 q 250 261 133 174 q 208 251 229 256 q 171 247 188 247 q 104 271 129 247 l 26 176 l 7 156 q 2 150 6 153 q -3 147 -1 147 l -8 151 l -7 161 l 6 178 q 50 231 26 203 q 94 289 74 260 l 89 310 q 129 347 89 347 q 161 321 161 347 q 158 305 161 314 q 151 286 154 296 q 190 265 151 265 q 278 288 242 265 q 344 338 311 313 q 363 324 363 338 q 340 294 363 307 q 306 275 325 286 q 94 111 189 192 q 150 136 136 131 q 196 147 178 147 q 229 135 215 147 q 243 103 243 122 q 231 58 243 86 q 218 25 218 31 q 226 13 218 13 q 340 104 246 13 q 385 154 350 114 q 406 172 400 172 l 413 165 q 354 97 413 156 q 215 -6 254 -6 q 165 61 165 -6 q 172 97 165 74 q 175 114 175 107 q 167 118 169 118 q 115 106 149 118 q 50 69 81 93 q 4 21 31 54 q -29 -4 -15 -4 q -44 11 -44 -4 q 13 69 -44 38 m 282 443 l 422 518 q 493 547 479 547 q 508 538 508 547 q 429 476 508 528 q 292 381 365 436 q 263 363 268 363 q 247 378 253 363 l 207 521 l 204 536 q 213 550 204 550 q 282 443 228 550 z "}}}
